<svg version="1.1" viewBox="0.0 0.0 712.0393700787401 288.20997375328085" fill="none" stroke="none" stroke-linecap="square" stroke-miterlimit="10" xmlns:xlink="http://www.w3.org/1999/xlink" xmlns="http://www.w3.org/2000/svg"><clipPath id="p.0"><path d="m0 0l712.03937 0l0 288.20996l-712.03937 0l0 -288.20996z" clip-rule="nonzero"/></clipPath><g clip-path="url(#p.0)"><path fill="#000000" fill-opacity="0.0" d="m0 0l712.03937 0l0 288.20996l-712.03937 0z" fill-rule="evenodd"/><path fill="#000000" fill-opacity="0.0" d="m236.51443 6.4199476l202.3937 0l0 47.33858l-202.3937 0z" fill-rule="evenodd"/><path fill="#000000" d="m273.5839 39.73995l0 -18.125002l2.390625 0l0 7.4375l9.421875 0l0 -7.4375l2.40625 0l0 18.125002l-2.40625 0l0 -8.546877l-9.421875 0l0 8.546877l-2.390625 0zm26.916168 -4.234375l2.296875 0.296875q-0.53125 2.015625 -2.015625 3.125q-1.46875 1.109375 -3.75 1.109375q-2.890625 0 -4.578125 -1.765625q-1.6875 -1.78125 -1.6875 -4.984375q0 -3.312502 1.703125 -5.140627q1.71875 -1.84375 4.4375 -1.84375q2.640625 0 4.296875 1.796875q1.671875 1.796875 1.671875 5.046877q0 0.203125 -0.015625 0.59375l-9.78125 0q0.109375 2.171875 1.203125 3.328125q1.109375 1.140625 2.765625 1.140625q1.21875 0 2.078125 -0.640625q0.875 -0.640625 1.375 -2.0625zm-7.3125 -3.593752l7.34375 0q-0.15625 -1.65625 -0.84375 -2.484375q-1.0625 -1.28125 -2.75 -1.28125q-1.546875 0 -2.59375 1.03125q-1.03125 1.015625 -1.15625 2.734375zm12.367554 7.828127l0 -18.125002l2.21875 0l0 18.125002l-2.21875 0zm5.6271057 0l0 -18.125002l2.21875 0l0 18.125002l-2.21875 0zm4.8458557 -6.5625q0 -3.656252 2.03125 -5.406252q1.6875 -1.46875 4.125 -1.46875q2.703125 0 4.421875 1.78125q1.71875 1.78125 1.71875 4.906252q0 2.53125 -0.765625 3.984375q-0.75 1.453125 -2.203125 2.265625q-1.453125 0.796875 -3.171875 0.796875q-2.765625 0 -4.46875 -1.765625q-1.6875 -1.765625 -1.6875 -5.09375zm2.28125 0q0 2.515625 1.09375 3.78125q1.109375 1.25 2.78125 1.25q1.65625 0 2.75 -1.265625q1.109375 -1.265625 1.109375 -3.84375q0 -2.437502 -1.109375 -3.687502q-1.109375 -1.265625 -2.75 -1.265625q-1.671875 0 -2.78125 1.25q-1.09375 1.25 -1.09375 3.781252zm22.092041 6.5625l-4.015625 -13.140627l2.296875 0l2.09375 7.593752l0.78125 2.8125q0.046875 -0.203125 0.671875 -2.703125l2.09375 -7.703127l2.28125 0l1.96875 7.625002l0.65625 2.515625l0.75 -2.546875l2.25 -7.593752l2.171875 0l-4.109375 13.140627l-2.3125 0l-2.09375 -7.859377l-0.5 -2.25l-2.65625 10.109377l-2.328125 0zm15.041168 -6.5625q0 -3.656252 2.03125 -5.406252q1.6875 -1.46875 4.125 -1.46875q2.703125 0 4.421875 1.78125q1.71875 1.78125 1.71875 4.906252q0 2.53125 -0.765625 3.984375q-0.75 1.453125 -2.203125 2.265625q-1.453125 0.796875 -3.171875 0.796875q-2.765625 0 -4.46875 -1.765625q-1.6875 -1.765625 -1.6875 -5.09375zm2.28125 0q0 2.515625 1.09375 3.78125q1.109375 1.25 2.78125 1.25q1.65625 0 2.75 -1.265625q1.109375 -1.265625 1.109375 -3.84375q0 -2.437502 -1.109375 -3.687502q-1.109375 -1.265625 -2.75 -1.265625q-1.671875 0 -2.78125 1.25q-1.09375 1.25 -1.09375 3.781252zm12.601929 6.5625l0 -13.140627l2.0 0l0 2.0q0.78125 -1.40625 1.421875 -1.84375q0.65625 -0.453125 1.4375 -0.453125q1.125 0 2.28125 0.71875l-0.765625 2.078125q-0.8125 -0.484375 -1.640625 -0.484375q-0.71875 0 -1.3125 0.4375q-0.578125 0.4375 -0.828125 1.21875q-0.359375 1.1875 -0.359375 2.593752l0 6.875l-2.234375 0zm8.418823 0l0 -18.125002l2.21875 0l0 18.125002l-2.21875 0zm14.189606 0l0 -1.65625q-1.25 1.953125 -3.671875 1.953125q-1.5625 0 -2.890625 -0.859375q-1.3125 -0.875 -2.046875 -2.421875q-0.71875 -1.546875 -0.71875 -3.5625q0 -1.9687519 0.65625 -3.562502q0.65625 -1.609375 1.96875 -2.46875q1.3125 -0.859375 2.9375 -0.859375q1.1875 0 2.109375 0.515625q0.9375 0.5 1.515625 1.296875l0 -6.5l2.203125 0l0 18.125002l-2.0625 0zm-7.03125 -6.546875q0 2.515625 1.0625 3.765625q1.0625 1.25 2.515625 1.25q1.453125 0 2.46875 -1.1875q1.03125 -1.203125 1.03125 -3.65625q0 -2.687502 -1.046875 -3.953127q-1.03125 -1.265625 -2.5625 -1.265625q-1.484375 0 -2.484375 1.21875q-0.984375 1.203125 -0.984375 3.828127zm13.789429 2.046875l-0.6875 -9.609377l0 -4.015625l2.765625 0l0 4.015625l-0.640625 9.609377l-1.4375 0zm-0.578125 4.5l0 -2.53125l2.546875 0l0 2.53125l-2.546875 0z" fill-rule="nonzero"/><path fill="#000000" fill-opacity="0.0" d="m492.51443 -1.5800525l202.3937 0l0 47.33858l-202.3937 0z" fill-rule="evenodd"/><path fill="#000000" d="m512.68787 38.13995l0 -22.90625l3.03125 0l0 9.406249l11.90625 0l0 -9.406249l3.03125 0l0 22.90625l-3.03125 0l0 -10.796877l-11.90625 0l0 10.796877l-3.03125 0zm34.015625 -5.34375l2.90625 0.359375q-0.6875 2.546875 -2.546875 3.953125q-1.859375 1.40625 -4.75 1.40625q-3.640625 0 -5.78125 -2.234375q-2.125 -2.25 -2.125 -6.296877q0 -4.1875 2.15625 -6.5q2.15625 -2.3125 5.59375 -2.3125q3.328125 0 5.4375 2.265625q2.109375 2.265625 2.109375 6.375q0 0.25 -0.015625 0.75l-12.375 0q0.15625 2.734377 1.546875 4.187502q1.390625 1.453125 3.46875 1.453125q1.546875 0 2.640625 -0.8125q1.09375 -0.8125 1.734375 -2.59375zm-9.234375 -4.546877l9.265625 0q-0.1875 -2.09375 -1.0625 -3.140625q-1.34375 -1.625 -3.484375 -1.625q-1.9375 0 -3.265625 1.296875q-1.3125 1.296875 -1.453125 3.46875zm15.609375 9.890627l0 -22.90625l2.8125 0l0 22.90625l-2.8125 0zm7.109375 0l0 -22.90625l2.8125 0l0 22.90625l-2.8125 0zm6.125 -8.296877q0 -4.609375 2.5625 -6.828125q2.140625 -1.84375 5.21875 -1.84375q3.421875 0 5.59375 2.25q2.171875 2.234375 2.171875 6.1875q0 3.203127 -0.96875 5.046877q-0.953125 1.828125 -2.796875 2.84375q-1.828125 1.015625 -4.0 1.015625q-3.484375 0 -5.640625 -2.234375q-2.140625 -2.234375 -2.140625 -6.437502zm2.890625 0q0 3.187502 1.390625 4.781252q1.390625 1.578125 3.5 1.578125q2.09375 0 3.484375 -1.59375q1.390625 -1.59375 1.390625 -4.859377q0 -3.078125 -1.40625 -4.65625q-1.390625 -1.59375 -3.46875 -1.59375q-2.109375 0 -3.5 1.578125q-1.390625 1.578125 -1.390625 4.765625zm27.90625 8.296877l-5.078125 -16.593752l2.90625 0l2.640625 9.578125l0.984375 3.562502q0.0625 -0.265625 0.859375 -3.421877l2.640625 -9.71875l2.890625 0l2.484375 9.625l0.828125 3.171877l0.953125 -3.203127l2.84375 -9.59375l2.734375 0l-5.1875 16.593752l-2.921875 0l-2.640625 -9.937502l-0.640625 -2.828125l-3.359375 12.765627l-2.9375 0zm19.0 -8.296877q0 -4.609375 2.5625 -6.828125q2.140625 -1.84375 5.21875 -1.84375q3.421875 0 5.59375 2.25q2.171875 2.234375 2.171875 6.1875q0 3.203127 -0.96875 5.046877q-0.953125 1.828125 -2.796875 2.84375q-1.828125 1.015625 -4.0 1.015625q-3.484375 0 -5.640625 -2.234375q-2.140625 -2.234375 -2.140625 -6.437502zm2.890625 0q0 3.187502 1.390625 4.781252q1.390625 1.578125 3.5 1.578125q2.09375 0 3.484375 -1.59375q1.390625 -1.59375 1.390625 -4.859377q0 -3.078125 -1.40625 -4.65625q-1.390625 -1.59375 -3.46875 -1.59375q-2.109375 0 -3.5 1.578125q-1.390625 1.578125 -1.390625 4.765625zm15.921875 8.296877l0 -16.593752l2.53125 0l0 2.515625q0.96875 -1.765625 1.78125 -2.328125q0.828125 -0.5625 1.8125 -0.5625q1.421875 0 2.890625 0.90625l-0.96875 2.609375q-1.03125 -0.609375 -2.0625 -0.609375q-0.921875 0 -1.65625 0.5625q-0.734375 0.546875 -1.046875 1.53125q-0.46875 1.5 -0.46875 3.28125l0 8.687502l-2.8125 0zm10.625 0l0 -22.90625l2.8125 0l0 22.90625l-2.8125 0zm17.9375 0l0 -2.09375q-1.578125 2.46875 -4.640625 2.46875q-1.984375 0 -3.65625 -1.09375q-1.65625 -1.09375 -2.578125 -3.046875q-0.90625 -1.96875 -0.90625 -4.515627q0 -2.484375 0.828125 -4.5q0.828125 -2.03125 2.484375 -3.109375q1.65625 -1.078125 3.703125 -1.078125q1.5 0 2.671875 0.640625q1.171875 0.625 1.90625 1.640625l0 -8.218749l2.796875 0l0 22.90625l-2.609375 0zm-8.890625 -8.281252q0 3.187502 1.34375 4.765627q1.34375 1.578125 3.171875 1.578125q1.84375 0 3.125 -1.5q1.296875 -1.515625 1.296875 -4.609377q0 -3.40625 -1.3125 -5.0q-1.3125 -1.59375 -3.234375 -1.59375q-1.875 0 -3.140625 1.53125q-1.25 1.53125 -1.25 4.828125zm17.421875 2.593752l-0.859375 -12.140627l0 -5.078124l3.484375 0l0 5.078124l-0.8125 12.140627l-1.8125 0zm-0.734375 5.6875l0 -3.203125l3.234375 0l0 3.203125l-3.234375 0z" fill-rule="nonzero"/><path fill="#000000" fill-opacity="0.0" d="m12.514436 11.454912l202.3937 0l0 47.338585l-202.3937 0z" fill-rule="evenodd"/><path fill="#000000" d="m63.079453 39.65491l0 -14.3125l1.890625 0l0 5.875l7.4375 0l0 -5.875l1.890625 0l0 14.3125l-1.890625 0l0 -6.75l-7.4375 0l0 6.75l-1.890625 0zm21.25586 -3.34375l1.8125 0.234375q-0.421875 1.578125 -1.59375 2.46875q-1.15625 0.875 -2.96875 0.875q-2.265625 0 -3.609375 -1.390625q-1.328125 -1.40625 -1.328125 -3.9375q0 -2.625 1.34375 -4.0625q1.34375 -1.453125 3.5 -1.453125q2.078125 0 3.390625 1.421875q1.328125 1.40625 1.328125 3.984375q0 0.15625 -0.015625 0.46875l-7.734375 0q0.09375 1.703125 0.96875 2.609375q0.875 0.90625 2.171875 0.90625q0.96875 0 1.640625 -0.5q0.6875 -0.515625 1.09375 -1.625zm-5.78125 -2.84375l5.796875 0q-0.109375 -1.296875 -0.65625 -1.953125q-0.84375 -1.015625 -2.1875 -1.015625q-1.203125 0 -2.03125 0.8125q-0.828125 0.796875 -0.921875 2.15625zm9.763672 6.1875l0 -14.3125l1.75 0l0 14.3125l-1.75 0zm4.4433594 0l0 -14.3125l1.75 0l0 14.3125l-1.75 0zm3.8339844 -5.1875q0 -2.875 1.59375 -4.265625q1.34375 -1.15625 3.265625 -1.15625q2.140625 0 3.484375 1.40625q1.359375 1.40625 1.359375 3.875q0 2.0 -0.59375 3.15625q-0.59375 1.140625 -1.75 1.78125q-1.140625 0.625 -2.5 0.625q-2.1875 0 -3.53125 -1.390625q-1.328125 -1.40625 -1.328125 -4.03125zm1.796875 0q0 2.0 0.859375 2.984375q0.875 0.984375 2.203125 0.984375q1.3125 0 2.171875 -0.984375q0.875 -1.0 0.875 -3.046875q0 -1.921875 -0.875 -2.90625q-0.875 -1.0 -2.171875 -1.0q-1.328125 0 -2.203125 1.0q-0.859375 0.984375 -0.859375 2.96875zm17.445312 5.1875l-3.171875 -10.375l1.8125 0l1.65625 5.984375l0.609375 2.234375q0.046875 -0.171875 0.53125 -2.140625l1.65625 -6.078125l1.8125 0l1.546875 6.015625l0.515625 1.984375l0.59375 -2.0l1.78125 -6.0l1.703125 0l-3.234375 10.375l-1.828125 0l-1.65625 -6.21875l-0.390625 -1.765625l-2.109375 7.984375l-1.828125 0zm11.880859 -5.1875q0 -2.875 1.59375 -4.265625q1.34375 -1.15625 3.265625 -1.15625q2.140625 0 3.484375 1.40625q1.359375 1.40625 1.359375 3.875q0 2.0 -0.59375 3.15625q-0.59375 1.140625 -1.75 1.78125q-1.140625 0.625 -2.5 0.625q-2.1875 0 -3.53125 -1.390625q-1.328125 -1.40625 -1.328125 -4.03125zm1.796875 0q0 2.0 0.859375 2.984375q0.875 0.984375 2.203125 0.984375q1.3125 0 2.171875 -0.984375q0.875 -1.0 0.875 -3.046875q0 -1.921875 -0.875 -2.90625q-0.875 -1.0 -2.171875 -1.0q-1.328125 0 -2.203125 1.0q-0.859375 0.984375 -0.859375 2.96875zm9.951172 5.1875l0 -10.375l1.578125 0l0 1.578125q0.609375 -1.109375 1.125 -1.453125q0.515625 -0.359375 1.125 -0.359375q0.890625 0 1.8125 0.5625l-0.609375 1.640625q-0.640625 -0.390625 -1.28125 -0.390625q-0.578125 0 -1.046875 0.359375q-0.453125 0.34375 -0.65625 0.953125q-0.28125 0.9375 -0.28125 2.046875l0 5.4375l-1.765625 0zm6.6445312 0l0 -14.3125l1.75 0l0 14.3125l-1.75 0zm11.208984 0l0 -1.3125q-0.984375 1.546875 -2.90625 1.546875q-1.234375 0 -2.28125 -0.6875q-1.03125 -0.6875 -1.609375 -1.90625q-0.5625 -1.21875 -0.5625 -2.8125q0 -1.5625 0.515625 -2.828125q0.515625 -1.265625 1.546875 -1.9375q1.046875 -0.671875 2.3125 -0.671875q0.9375 0 1.671875 0.40625q0.734375 0.390625 1.203125 1.015625l0 -5.125l1.734375 0l0 14.3125l-1.625 0zm-5.5625 -5.171875q0 1.984375 0.84375 2.96875q0.84375 0.984375 1.984375 0.984375q1.15625 0 1.953125 -0.9375q0.8125 -0.9375 0.8125 -2.875q0 -2.125 -0.828125 -3.125q-0.8125 -1.0 -2.015625 -1.0q-1.171875 0 -1.96875 0.96875q-0.78125 0.953125 -0.78125 3.015625zm10.888672 1.609375l-0.53125 -7.578125l0 -3.171875l2.171875 0l0 3.171875l-0.5 7.578125l-1.140625 0zm-0.453125 3.5625l0 -2.0l2.015625 0l0 2.0l-2.015625 0z" fill-rule="nonzero"/><path fill="#000000" fill-opacity="0.0" d="m505.32538 54.41995l180.5669 0l0 47.33858l-180.5669 0z" fill-rule="evenodd"/><path fill="#cc0000" d="m535.20416 81.04057q0 0.5625 -0.1875 1.0q-0.1875 0.4375 -0.515625 0.78125q-0.328125 0.328125 -0.75 0.578125q-0.421875 0.234375 -0.90625 0.390625q-0.484375 0.15625 -1.0 0.21875q-0.515625 0.078125 -1.0 0.078125q-1.0625 0 -1.953125 -0.09375q-0.890625 -0.09375 -1.75 -0.296875l0 -1.671875q0.921875 0.265625 1.828125 0.40625q0.90625 0.125 1.796875 0.125q1.3125 0 1.9375 -0.34375q0.625 -0.359375 0.625 -1.015625q0 -0.28125 -0.109375 -0.5q-0.09375 -0.234375 -0.359375 -0.4375q-0.25 -0.203125 -0.796875 -0.421875q-0.546875 -0.21875 -1.5 -0.5q-0.703125 -0.203125 -1.3125 -0.46875q-0.59375 -0.265625 -1.03125 -0.625q-0.4375 -0.375 -0.6875 -0.859375q-0.25 -0.5 -0.25 -1.15625q0 -0.4375 0.203125 -0.953125q0.203125 -0.53125 0.6875 -0.96875q0.5 -0.453125 1.328125 -0.75q0.828125 -0.296875 2.078125 -0.296875q0.625 0 1.375 0.0625q0.75 0.0625 1.5625 0.234375l0 1.609375q-0.859375 -0.203125 -1.625 -0.296875q-0.765625 -0.109375 -1.328125 -0.109375q-0.671875 0 -1.140625 0.109375q-0.46875 0.109375 -0.75 0.296875q-0.28125 0.171875 -0.40625 0.421875q-0.125 0.234375 -0.125 0.515625q0 0.28125 0.109375 0.515625q0.109375 0.234375 0.40625 0.453125q0.296875 0.203125 0.828125 0.421875q0.53125 0.203125 1.375 0.453125q0.9375 0.28125 1.5625 0.578125q0.640625 0.296875 1.03125 0.65625q0.40625 0.359375 0.578125 0.828125q0.171875 0.453125 0.171875 1.03125zm11.570007 2.46875q-0.71875 0.28125 -1.46875 0.40625q-0.734375 0.125 -1.53125 0.125q-2.46875 0 -3.8125 -1.34375q-1.34375 -1.34375 -1.34375 -3.921875q0 -1.234375 0.390625 -2.25q0.390625 -1.015625 1.078125 -1.734375q0.703125 -0.71875 1.671875 -1.109375q0.96875 -0.390625 2.140625 -0.390625q0.8125 0 1.515625 0.125q0.703125 0.109375 1.359375 0.375l0 1.71875q-0.6875 -0.34375 -1.390625 -0.5q-0.703125 -0.171875 -1.453125 -0.171875q-0.6875 0 -1.3125 0.265625q-0.625 0.265625 -1.09375 0.765625q-0.46875 0.5 -0.734375 1.21875q-0.265625 0.71875 -0.265625 1.625q0 1.890625 0.921875 2.84375q0.921875 0.9375 2.546875 0.9375q0.75 0 1.4375 -0.15625q0.6875 -0.171875 1.34375 -0.515625l0 1.6875zm10.320068 0.390625l-0.046875 -1.40625q-0.859375 0.84375 -1.734375 1.21875q-0.875 0.375 -1.84375 0.375q-0.90625 0 -1.546875 -0.21875q-0.625 -0.234375 -1.046875 -0.640625q-0.40625 -0.40625 -0.59375 -0.9375q-0.1875 -0.546875 -0.1875 -1.1875q0 -1.5625 1.171875 -2.453125q1.171875 -0.890625 3.453125 -0.890625l2.171875 0l0 -0.921875q0 -0.921875 -0.59375 -1.484375q-0.59375 -0.5625 -1.8125 -0.5625q-0.890625 0 -1.75 0.203125q-0.859375 0.203125 -1.765625 0.5625l0 -1.640625q0.34375 -0.125 0.765625 -0.234375q0.421875 -0.125 0.890625 -0.21875q0.46875 -0.09375 0.96875 -0.140625q0.515625 -0.0625 1.03125 -0.0625q0.953125 0 1.703125 0.203125q0.765625 0.203125 1.296875 0.640625q0.53125 0.421875 0.8125 1.078125q0.28125 0.640625 0.28125 1.515625l0 7.203125l-1.625 0zm-0.203125 -4.765625l-2.296875 0q-0.6875 0 -1.171875 0.140625q-0.484375 0.140625 -0.796875 0.390625q-0.3125 0.25 -0.46875 0.59375q-0.15625 0.34375 -0.15625 0.78125q0 0.3125 0.09375 0.59375q0.09375 0.265625 0.296875 0.484375q0.21875 0.203125 0.546875 0.328125q0.34375 0.125 0.8125 0.125q0.625 0 1.4375 -0.375q0.8125 -0.375 1.703125 -1.203125l0 -1.859375zm8.773193 -8.453125l-3.09375 0l0 -1.5l4.921875 0l0 13.203125l3.109375 0l0 1.515625l-8.375 0l0 -1.515625l3.4375 0l0 -11.703125zm16.991943 7.4375q0 0.390625 -0.015625 0.65625q0 0.25 -0.03125 0.484375l-7.34375 0q0 1.59375 0.890625 2.453125q0.90625 0.859375 2.59375 0.859375q0.453125 0 0.90625 -0.03125q0.46875 -0.03125 0.890625 -0.09375q0.4375 -0.0625 0.828125 -0.140625q0.390625 -0.078125 0.71875 -0.171875l0 1.484375q-0.734375 0.203125 -1.671875 0.328125q-0.9375 0.140625 -1.9375 0.140625q-1.34375 0 -2.3125 -0.359375q-0.96875 -0.375 -1.59375 -1.0625q-0.609375 -0.6875 -0.90625 -1.6875q-0.296875 -1.015625 -0.296875 -2.28125q0 -1.109375 0.3125 -2.09375q0.328125 -0.984375 0.9375 -1.71875q0.609375 -0.75 1.484375 -1.1875q0.890625 -0.4375 2.015625 -0.4375q1.09375 0 1.9375 0.34375q0.84375 0.34375 1.421875 0.96875q0.578125 0.625 0.875 1.53125q0.296875 0.90625 0.296875 2.015625zm-1.890625 -0.265625q0.03125 -0.6875 -0.140625 -1.265625q-0.15625 -0.578125 -0.515625 -1.0q-0.34375 -0.421875 -0.859375 -0.65625q-0.515625 -0.234375 -1.203125 -0.234375q-0.59375 0 -1.09375 0.234375q-0.484375 0.234375 -0.84375 0.65625q-0.34375 0.40625 -0.5625 1.0q-0.21875 0.578125 -0.28125 1.265625l5.5 0zm12.101257 1.21875l-6.234375 0l0 -1.703125l6.234375 0l0 1.703125zm13.351318 -0.59375q0 1.3125 -0.359375 2.34375q-0.359375 1.015625 -1.03125 1.734375q-0.65625 0.703125 -1.609375 1.09375q-0.9375 0.375 -2.125 0.375q-0.9375 0 -1.90625 -0.171875q-0.96875 -0.1875 -1.90625 -0.5625l0 -14.109375l1.8125 0l0 4.046875l-0.09375 1.9375q0.78125 -1.046875 1.671875 -1.46875q0.890625 -0.4375 1.921875 -0.4375q0.890625 0 1.5625 0.375q0.6875 0.375 1.140625 1.0625q0.453125 0.671875 0.6875 1.640625q0.234375 0.953125 0.234375 2.140625zm-1.859375 0.09375q0 -0.828125 -0.125 -1.515625q-0.109375 -0.6875 -0.375 -1.171875q-0.265625 -0.5 -0.671875 -0.765625q-0.40625 -0.28125 -0.96875 -0.28125q-0.34375 0 -0.703125 0.109375q-0.34375 0.109375 -0.734375 0.375q-0.375 0.25 -0.796875 0.671875q-0.421875 0.421875 -0.890625 1.046875l0 5.0625q0.53125 0.21875 1.078125 0.34375q0.546875 0.109375 1.046875 0.109375q0.625 0 1.1875 -0.1875q0.578125 -0.203125 1.0 -0.671875q0.4375 -0.46875 0.6875 -1.234375q0.265625 -0.765625 0.265625 -1.890625zm13.945068 -5.125l-3.5625 9.34375q-0.546875 1.4375 -1.140625 2.46875q-0.59375 1.03125 -1.296875 1.6875q-0.6875 0.65625 -1.53125 0.96875q-0.828125 0.3125 -1.859375 0.3125q-0.265625 0 -0.484375 -0.015625q-0.21875 0 -0.484375 -0.015625l0 -1.65625q0.234375 0.03125 0.5 0.0625q0.28125 0.03125 0.578125 0.03125q0.5 0 0.921875 -0.15625q0.4375 -0.140625 0.828125 -0.46875q0.390625 -0.328125 0.734375 -0.859375q0.359375 -0.515625 0.6875 -1.25l-4.171875 -10.453125l2.0625 0l2.640625 6.90625l0.53125 1.625l0.609375 -1.65625l2.453125 -6.875l1.984375 0zm11.101318 3.71875l-8.953125 0l0 -1.53125l8.953125 0l0 1.53125zm0 3.625l-8.953125 0l0 -1.53125l8.953125 0l0 1.53125zm6.3668823 -11.609375l-0.28125 4.890625l-1.71875 0l-0.296875 -4.890625l2.296875 0zm4.0625 0l-0.296875 4.890625l-1.703125 0l-0.3125 -4.890625l2.3125 0zm13.179443 14.71875l-8.96875 0l0 -1.625l3.515625 -3.5q0.875 -0.859375 1.40625 -1.484375q0.546875 -0.625 0.84375 -1.140625q0.3125 -0.515625 0.40625 -0.96875q0.109375 -0.453125 0.109375 -0.984375q0 -0.5 -0.140625 -0.953125q-0.125 -0.453125 -0.40625 -0.796875q-0.28125 -0.34375 -0.734375 -0.53125q-0.453125 -0.203125 -1.078125 -0.203125q-0.859375 0 -1.578125 0.390625q-0.703125 0.375 -1.296875 0.984375l-1.0 -1.1875q0.78125 -0.8125 1.78125 -1.296875q1.0 -0.5 2.34375 -0.5q0.90625 0 1.640625 0.28125q0.75 0.265625 1.28125 0.78125q0.546875 0.5 0.84375 1.25q0.296875 0.734375 0.296875 1.65625q0 0.78125 -0.203125 1.453125q-0.203125 0.65625 -0.625 1.328125q-0.421875 0.65625 -1.0625 1.359375q-0.640625 0.703125 -1.515625 1.546875l-2.46875 2.40625l6.609375 0l0 1.734375zm6.2106934 -14.71875l-0.28125 4.890625l-1.71875 0l-0.296875 -4.890625l2.296875 0zm4.0625 0l-0.296875 4.890625l-1.703125 0l-0.3125 -4.890625l2.3125 0z" fill-rule="nonzero"/><path fill="#000000" fill-opacity="0.0" d="m17.774271 54.41995l197.70078 0l0 47.33858l-197.70078 0z" fill-rule="evenodd"/><path fill="#cc0000" d="m44.493668 81.04057q0 0.5625 -0.1875 1.0q-0.1875 0.4375 -0.515625 0.78125q-0.328125 0.328125 -0.75 0.578125q-0.421875 0.234375 -0.90625 0.390625q-0.484375 0.15625 -1.0 0.21875q-0.515625 0.078125 -1.0 0.078125q-1.0625 0 -1.953125 -0.09375q-0.890625 -0.09375 -1.75 -0.296875l0 -1.671875q0.921875 0.265625 1.828125 0.40625q0.90625 0.125 1.796875 0.125q1.3125 0 1.9375 -0.34375q0.625 -0.359375 0.625 -1.015625q0 -0.28125 -0.109375 -0.5q-0.09375 -0.234375 -0.359375 -0.4375q-0.25 -0.203125 -0.796875 -0.421875q-0.546875 -0.21875 -1.5 -0.5q-0.703125 -0.203125 -1.3125 -0.46875q-0.59375 -0.265625 -1.03125 -0.625q-0.4375 -0.375 -0.6875 -0.859375q-0.25 -0.5 -0.25 -1.15625q0 -0.4375 0.203125 -0.953125q0.203125 -0.53125 0.6875 -0.96875q0.5 -0.453125 1.328125 -0.75q0.828125 -0.296875 2.078125 -0.296875q0.625 0 1.375 0.0625q0.75 0.0625 1.5625 0.234375l0 1.609375q-0.859375 -0.203125 -1.625 -0.296875q-0.765625 -0.109375 -1.328125 -0.109375q-0.671875 0 -1.140625 0.109375q-0.46875 0.109375 -0.75 0.296875q-0.28125 0.171875 -0.40625 0.421875q-0.125 0.234375 -0.125 0.515625q0 0.28125 0.109375 0.515625q0.109375 0.234375 0.40625 0.453125q0.296875 0.203125 0.828125 0.421875q0.53125 0.203125 1.375 0.453125q0.9375 0.28125 1.5625 0.578125q0.640625 0.296875 1.03125 0.65625q0.40625 0.359375 0.578125 0.828125q0.171875 0.453125 0.171875 1.03125zm11.570053 2.46875q-0.71875 0.28125 -1.46875 0.40625q-0.734375 0.125 -1.53125 0.125q-2.46875 0 -3.8125 -1.34375q-1.34375 -1.34375 -1.34375 -3.921875q0 -1.234375 0.390625 -2.25q0.390625 -1.015625 1.078125 -1.734375q0.703125 -0.71875 1.671875 -1.109375q0.96875 -0.390625 2.140625 -0.390625q0.8125 0 1.515625 0.125q0.703125 0.109375 1.359375 0.375l0 1.71875q-0.6875 -0.34375 -1.390625 -0.5q-0.703125 -0.171875 -1.453125 -0.171875q-0.6875 0 -1.3125 0.265625q-0.625 0.265625 -1.09375 0.765625q-0.46875 0.5 -0.734375 1.21875q-0.265625 0.71875 -0.265625 1.625q0 1.890625 0.921875 2.84375q0.921875 0.9375 2.546875 0.9375q0.75 0 1.4375 -0.15625q0.6875 -0.171875 1.34375 -0.515625l0 1.6875zm10.320053 0.390625l-0.046875 -1.40625q-0.859375 0.84375 -1.734375 1.21875q-0.875 0.375 -1.84375 0.375q-0.90625 0 -1.546875 -0.21875q-0.625 -0.234375 -1.046875 -0.640625q-0.40625 -0.40625 -0.59375 -0.9375q-0.1875 -0.546875 -0.1875 -1.1875q0 -1.5625 1.171875 -2.453125q1.171875 -0.890625 3.453125 -0.890625l2.171875 0l0 -0.921875q0 -0.921875 -0.59375 -1.484375q-0.59375 -0.5625 -1.8125 -0.5625q-0.890625 0 -1.75 0.203125q-0.859375 0.203125 -1.765625 0.5625l0 -1.640625q0.34375 -0.125 0.765625 -0.234375q0.421875 -0.125 0.890625 -0.21875q0.46875 -0.09375 0.96875 -0.140625q0.515625 -0.0625 1.03125 -0.0625q0.953125 0 1.703125 0.203125q0.765625 0.203125 1.296875 0.640625q0.53125 0.421875 0.8125 1.078125q0.28125 0.640625 0.28125 1.515625l0 7.203125l-1.625 0zm-0.203125 -4.765625l-2.296875 0q-0.6875 0 -1.171875 0.140625q-0.484375 0.140625 -0.796875 0.390625q-0.3125 0.25 -0.46875 0.59375q-0.15625 0.34375 -0.15625 0.78125q0 0.3125 0.09375 0.59375q0.09375 0.265625 0.296875 0.484375q0.21875 0.203125 0.546875 0.328125q0.34375 0.125 0.8125 0.125q0.625 0 1.4375 -0.375q0.8125 -0.375 1.703125 -1.203125l0 -1.859375zm8.773178 -8.453125l-3.09375 0l0 -1.5l4.921875 0l0 13.203125l3.109375 0l0 1.515625l-8.375 0l0 -1.515625l3.4375 0l0 -11.703125zm16.991928 7.4375q0 0.390625 -0.015625 0.65625q0 0.25 -0.03125 0.484375l-7.34375 0q0 1.59375 0.890625 2.453125q0.90625 0.859375 2.59375 0.859375q0.453125 0 0.90625 -0.03125q0.46875 -0.03125 0.890625 -0.09375q0.4375 -0.0625 0.828125 -0.140625q0.390625 -0.078125 0.71875 -0.171875l0 1.484375q-0.734375 0.203125 -1.671875 0.328125q-0.9375 0.140625 -1.9375 0.140625q-1.34375 0 -2.3125 -0.359375q-0.96875 -0.375 -1.59375 -1.0625q-0.609375 -0.6875 -0.90625 -1.6875q-0.296875 -1.015625 -0.296875 -2.28125q0 -1.109375 0.3125 -2.09375q0.328125 -0.984375 0.9375 -1.71875q0.609375 -0.75 1.484375 -1.1875q0.890625 -0.4375 2.015625 -0.4375q1.09375 0 1.9375 0.34375q0.84375 0.34375 1.421875 0.96875q0.578125 0.625 0.875 1.53125q0.296875 0.90625 0.296875 2.015625zm-1.890625 -0.265625q0.03125 -0.6875 -0.140625 -1.265625q-0.15625 -0.578125 -0.515625 -1.0q-0.34375 -0.421875 -0.859375 -0.65625q-0.515625 -0.234375 -1.203125 -0.234375q-0.59375 0 -1.09375 0.234375q-0.484375 0.234375 -0.84375 0.65625q-0.34375 0.40625 -0.5625 1.0q-0.21875 0.578125 -0.28125 1.265625l5.5 0zm12.101303 1.21875l-6.234375 0l0 -1.703125l6.234375 0l0 1.703125zm13.351303 -0.59375q0 1.3125 -0.359375 2.34375q-0.359375 1.015625 -1.03125 1.734375q-0.65625 0.703125 -1.609375 1.09375q-0.9375 0.375 -2.125 0.375q-0.9375 0 -1.90625 -0.171875q-0.96875 -0.1875 -1.90625 -0.5625l0 -14.109375l1.8125 0l0 4.046875l-0.09375 1.9375q0.78125 -1.046875 1.671875 -1.46875q0.890625 -0.4375 1.921875 -0.4375q0.890625 0 1.5625 0.375q0.6875 0.375 1.140625 1.0625q0.453125 0.671875 0.6875 1.640625q0.234375 0.953125 0.234375 2.140625zm-1.859375 0.09375q0 -0.828125 -0.125 -1.515625q-0.109375 -0.6875 -0.375 -1.171875q-0.265625 -0.5 -0.671875 -0.765625q-0.40625 -0.28125 -0.96875 -0.28125q-0.34375 0 -0.703125 0.109375q-0.34375 0.109375 -0.734375 0.375q-0.375 0.25 -0.796875 0.671875q-0.421875 0.421875 -0.890625 1.046875l0 5.0625q0.53125 0.21875 1.078125 0.34375q0.546875 0.109375 1.046875 0.109375q0.625 0 1.1875 -0.1875q0.578125 -0.203125 1.0 -0.671875q0.4375 -0.46875 0.6875 -1.234375q0.265625 -0.765625 0.265625 -1.890625zm13.945053 -5.125l-3.5625 9.34375q-0.546875 1.4375 -1.140625 2.46875q-0.59375 1.03125 -1.296875 1.6875q-0.6875 0.65625 -1.53125 0.96875q-0.828125 0.3125 -1.859375 0.3125q-0.265625 0 -0.484375 -0.015625q-0.21875 0 -0.484375 -0.015625l0 -1.65625q0.234375 0.03125 0.5 0.0625q0.28125 0.03125 0.578125 0.03125q0.5 0 0.921875 -0.15625q0.4375 -0.140625 0.828125 -0.46875q0.390625 -0.328125 0.734375 -0.859375q0.359375 -0.515625 0.6875 -1.25l-4.171875 -10.453125l2.0625 0l2.640625 6.90625l0.53125 1.625l0.609375 -1.65625l2.453125 -6.875l1.984375 0zm11.101303 3.71875l-8.953125 0l0 -1.53125l8.953125 0l0 1.53125zm0 3.625l-8.953125 0l0 -1.53125l8.953125 0l0 1.53125zm6.366928 -11.609375l-0.28125 4.890625l-1.71875 0l-0.296875 -4.890625l2.296875 0zm4.0625153 0l-0.296875 4.890625l-1.703125 0l-0.3125 -4.890625l2.3125 0zm13.491913 7.921875q0 1.5625 -0.3125 2.84375q-0.3125 1.28125 -0.953125 2.203125q-0.625 0.921875 -1.578125 1.4375q-0.9375 0.5 -2.203125 0.5q-1.09375 0 -2.0 -0.40625q-0.890625 -0.421875 -1.53125 -1.265625q-0.625 -0.859375 -0.96875 -2.171875q-0.34375 -1.328125 -0.34375 -3.140625q0 -1.5625 0.3125 -2.84375q0.3125 -1.296875 0.9375 -2.21875q0.640625 -0.921875 1.578125 -1.421875q0.953125 -0.515625 2.21875 -0.515625q1.09375 0 1.984375 0.421875q0.90625 0.40625 1.53125 1.265625q0.640625 0.859375 0.984375 2.1875q0.34375 1.3125 0.34375 3.125zm-1.828125 0.0625q0 -0.359375 -0.03125 -0.703125q-0.03125 -0.359375 -0.0625 -0.6875l-5.75 4.28125q0.15625 0.546875 0.390625 1.0q0.234375 0.453125 0.578125 0.78125q0.34375 0.328125 0.765625 0.515625q0.4375 0.1875 0.984375 0.1875q0.71875 0 1.296875 -0.34375q0.578125 -0.34375 0.984375 -1.015625q0.40625 -0.6875 0.625 -1.6875q0.21875 -1.015625 0.21875 -2.328125zm-6.234375 -0.125q0 0.3125 0 0.640625q0.015625 0.328125 0.046875 0.625l5.75 -4.265625q-0.15625 -0.53125 -0.390625 -0.953125q-0.234375 -0.4375 -0.578125 -0.75q-0.328125 -0.328125 -0.765625 -0.5q-0.421875 -0.1875 -0.953125 -0.1875q-0.703125 0 -1.28125 0.34375q-0.578125 0.34375 -0.984375 1.03125q-0.40625 0.671875 -0.625 1.6875q-0.21875 1.0 -0.21875 2.328125zm14.757568 3.578125q0.359375 0 0.671875 0.140625q0.3125 0.125 0.546875 0.375q0.234375 0.234375 0.375 0.5625q0.140625 0.3125 0.140625 0.671875q0 0.359375 -0.140625 0.671875q-0.140625 0.3125 -0.375 0.546875q-0.234375 0.234375 -0.546875 0.359375q-0.3125 0.140625 -0.671875 0.140625q-0.359375 0 -0.671875 -0.140625q-0.3125 -0.125 -0.546875 -0.359375q-0.234375 -0.234375 -0.375 -0.546875q-0.140625 -0.3125 -0.140625 -0.671875q0 -0.359375 0.140625 -0.671875q0.140625 -0.328125 0.375 -0.5625q0.234375 -0.25 0.546875 -0.375q0.3125 -0.140625 0.671875 -0.140625zm16.366913 -8.640625l-5.703125 11.921875l-2.078125 0l5.9375 -11.921875l-7.359375 0l0 -1.6875l9.203125 0l0 1.6875zm6.2888184 -2.796875l-0.28125 4.890625l-1.71875 0l-0.296875 -4.890625l2.296875 0zm4.0625 0l-0.296875 4.890625l-1.703125 0l-0.3125 -4.890625l2.3125 0z" fill-rule="nonzero"/><path fill="#000000" fill-opacity="0.0" d="m238.86089 54.41995l197.70079 0l0 47.33858l-197.70079 0z" fill-rule="evenodd"/><path fill="#666666" d="m305.81818 83.89995l2.3125 -11.0625l1.71875 0l-0.40625 1.921875q1.109375 -1.125 2.078125 -1.640625q0.96875 -0.53125 1.984375 -0.53125q1.34375 0 2.09375 0.734375q0.765625 0.71875 0.765625 1.9375q0 0.625 -0.265625 1.9375l-1.40625 6.703125l-1.875 0l1.46875 -7.015625q0.21875 -1.015625 0.21875 -1.5q0 -0.5625 -0.390625 -0.90625q-0.375 -0.34375 -1.09375 -0.34375q-1.453125 0 -2.578125 1.046875q-1.125 1.046875 -1.65625 3.578125l-1.078125 5.140625l-1.890625 0zm12.205444 -4.203125q0 -3.234375 1.90625 -5.359375q1.5625 -1.75 4.125 -1.75q2.0 0 3.21875 1.25q1.21875 1.25 1.21875 3.375q0 1.90625 -0.765625 3.546875q-0.765625 1.640625 -2.1875 2.515625q-1.421875 0.875 -3.0 0.875q-1.296875 0 -2.359375 -0.546875q-1.046875 -0.5625 -1.609375 -1.5625q-0.546875 -1.015625 -0.546875 -2.34375zm1.875 -0.1875q0 1.5625 0.75 2.375q0.75 0.8125 1.90625 0.8125q0.609375 0 1.203125 -0.25q0.59375 -0.25 1.09375 -0.75q0.515625 -0.5 0.875 -1.140625q0.359375 -0.640625 0.578125 -1.375q0.328125 -1.03125 0.328125 -1.984375q0 -1.5 -0.765625 -2.328125q-0.75 -0.828125 -1.890625 -0.828125q-0.890625 0 -1.625 0.421875q-0.71875 0.421875 -1.3125 1.234375q-0.578125 0.8125 -0.859375 1.890625q-0.28125 1.078125 -0.28125 1.921875zm9.642944 4.390625l2.3125 -11.0625l1.671875 0l-0.46875 2.265625q0.859375 -1.28125 1.671875 -1.890625q0.8125 -0.625 1.671875 -0.625q0.5625 0 1.390625 0.40625l-0.78125 1.75q-0.484375 -0.359375 -1.0625 -0.359375q-1.0 0 -2.046875 1.109375q-1.03125 1.109375 -1.625 3.96875l-0.9375 4.4375l-1.796875 0zm7.1024475 0l2.3125 -11.0625l1.875 0l-0.375 1.828125q1.046875 -1.1875 1.875 -1.625q0.828125 -0.453125 1.796875 -0.453125q1.03125 0 1.71875 0.546875q0.703125 0.546875 0.90625 1.53125q0.84375 -1.046875 1.78125 -1.5625q0.9375 -0.515625 1.96875 -0.515625q1.375 0 2.0625 0.65625q0.703125 0.65625 0.703125 1.84375q0 0.515625 -0.234375 1.6875l-1.5 7.125l-1.875 0l1.515625 -7.3125q0.203125 -0.890625 0.203125 -1.28125q0 -0.546875 -0.34375 -0.859375q-0.34375 -0.3125 -0.96875 -0.3125q-0.84375 0 -1.71875 0.515625q-0.875 0.515625 -1.359375 1.34375q-0.484375 0.828125 -0.84375 2.546875l-1.125 5.359375l-1.890625 0l1.5625 -7.46875q0.171875 -0.765625 0.171875 -1.078125q0 -0.546875 -0.34375 -0.875q-0.34375 -0.34375 -0.875 -0.34375q-0.8125 0 -1.6875 0.515625q-0.875 0.515625 -1.4375 1.421875q-0.546875 0.90625 -0.90625 2.59375l-1.09375 5.234375l-1.875 0zm25.23523 -1.375q-0.984375 0.84375 -1.890625 1.234375q-0.90625 0.390625 -1.9375 0.390625q-1.53125 0 -2.46875 -0.890625q-0.9375 -0.90625 -0.9375 -2.3125q0 -0.9375 0.421875 -1.640625q0.421875 -0.71875 1.109375 -1.140625q0.703125 -0.4375 1.71875 -0.625q0.640625 -0.125 2.40625 -0.203125q1.78125 -0.078125 2.546875 -0.375q0.21875 -0.765625 0.21875 -1.28125q0 -0.65625 -0.46875 -1.03125q-0.65625 -0.515625 -1.921875 -0.515625q-1.1875 0 -1.953125 0.53125q-0.75 0.515625 -1.09375 1.484375l-1.90625 -0.171875q0.59375 -1.640625 1.859375 -2.515625q1.265625 -0.875 3.1875 -0.875q2.046875 0 3.25 0.984375q0.90625 0.71875 0.90625 1.890625q0 0.890625 -0.25 2.046875l-0.609375 2.75q-0.296875 1.3125 -0.296875 2.140625q0 0.515625 0.234375 1.5l-1.90625 0q-0.15625 -0.546875 -0.21875 -1.375zm0.6875 -4.234375q-0.390625 0.15625 -0.84375 0.25q-0.453125 0.078125 -1.515625 0.171875q-1.640625 0.140625 -2.328125 0.375q-0.671875 0.21875 -1.015625 0.71875q-0.34375 0.484375 -0.34375 1.078125q0 0.78125 0.546875 1.296875q0.546875 0.515625 1.5625 0.515625q0.9375 0 1.796875 -0.5q0.859375 -0.5 1.359375 -1.375q0.5 -0.890625 0.78125 -2.53125zm3.5648193 5.609375l3.1875 -15.265625l1.890625 0l-3.1875 15.265625l-1.890625 0z" fill-rule="nonzero"/><path fill="#6fa8dc" d="m339.02408 188.37404c11.541992 -27.614182 56.555786 0 0 35.503937c-56.555756 -35.503937 -11.541992 -63.11812 0 -35.503937z" fill-rule="evenodd"/><path fill="#6fa8dc" d="m596.73224 172.06633c16.233643 -39.7769 79.54462 0 0 51.14174c-79.54462 -51.14174 -16.233582 -90.91864 0 -51.14174z" fill-rule="evenodd"/><path fill="#6fa8dc" d="m112.70429 200.08708c8.248032 -20.24672 40.41535 0 0 26.031494c-40.41535 -26.031494 -8.248032 -46.278214 0 -26.031494z" fill-rule="evenodd"/><path fill="#000000" fill-opacity="0.0" d="m505.32538 230.41995l180.5669 0l0 47.338593l-180.5669 0z" fill-rule="evenodd"/><path fill="#cc0000" d="m535.20416 257.04056q0 0.5625 -0.1875 1.0q-0.1875 0.4375 -0.515625 0.78125q-0.328125 0.328125 -0.75 0.578125q-0.421875 0.234375 -0.90625 0.390625q-0.484375 0.15625 -1.0 0.21875q-0.515625 0.078125 -1.0 0.078125q-1.0625 0 -1.953125 -0.09375q-0.890625 -0.09375 -1.75 -0.296875l0 -1.671875q0.921875 0.265625 1.828125 0.40625q0.90625 0.125 1.796875 0.125q1.3125 0 1.9375 -0.34375q0.625 -0.359375 0.625 -1.015625q0 -0.28125 -0.109375 -0.5q-0.09375 -0.234375 -0.359375 -0.4375q-0.25 -0.203125 -0.796875 -0.42185974q-0.546875 -0.21875 -1.5 -0.5q-0.703125 -0.203125 -1.3125 -0.46875q-0.59375 -0.265625 -1.03125 -0.625q-0.4375 -0.375 -0.6875 -0.859375q-0.25 -0.5 -0.25 -1.15625q0 -0.4375 0.203125 -0.953125q0.203125 -0.53125 0.6875 -0.96875q0.5 -0.453125 1.328125 -0.75q0.828125 -0.296875 2.078125 -0.296875q0.625 0 1.375 0.0625q0.75 0.0625 1.5625 0.234375l0 1.609375q-0.859375 -0.203125 -1.625 -0.296875q-0.765625 -0.109375 -1.328125 -0.109375q-0.671875 0 -1.140625 0.109375q-0.46875 0.109375 -0.75 0.296875q-0.28125 0.171875 -0.40625 0.421875q-0.125 0.234375 -0.125 0.515625q0 0.28125 0.109375 0.515625q0.109375 0.234375 0.40625 0.453125q0.296875 0.203125 0.828125 0.421875q0.53125 0.203125 1.375 0.453125q0.9375 0.28125 1.5625 0.578125q0.640625 0.296875 1.03125 0.65625q0.40625 0.359375 0.578125 0.82810974q0.171875 0.453125 0.171875 1.03125zm11.570007 2.46875q-0.71875 0.28125 -1.46875 0.40625q-0.734375 0.125 -1.53125 0.125q-2.46875 0 -3.8125 -1.34375q-1.34375 -1.34375 -1.34375 -3.9218597q0 -1.234375 0.390625 -2.25q0.390625 -1.015625 1.078125 -1.734375q0.703125 -0.71875 1.671875 -1.109375q0.96875 -0.390625 2.140625 -0.390625q0.8125 0 1.515625 0.125q0.703125 0.109375 1.359375 0.375l0 1.71875q-0.6875 -0.34375 -1.390625 -0.5q-0.703125 -0.171875 -1.453125 -0.171875q-0.6875 0 -1.3125 0.265625q-0.625 0.265625 -1.09375 0.765625q-0.46875 0.5 -0.734375 1.21875q-0.265625 0.71875 -0.265625 1.625q0 1.8906097 0.921875 2.8437347q0.921875 0.9375 2.546875 0.9375q0.75 0 1.4375 -0.15625q0.6875 -0.171875 1.34375 -0.515625l0 1.6875zm10.320068 0.390625l-0.046875 -1.40625q-0.859375 0.84375 -1.734375 1.21875q-0.875 0.375 -1.84375 0.375q-0.90625 0 -1.546875 -0.21875q-0.625 -0.234375 -1.046875 -0.640625q-0.40625 -0.40625 -0.59375 -0.9375q-0.1875 -0.546875 -0.1875 -1.1875q0 -1.5624847 1.171875 -2.4531097q1.171875 -0.890625 3.453125 -0.890625l2.171875 0l0 -0.921875q0 -0.921875 -0.59375 -1.484375q-0.59375 -0.5625 -1.8125 -0.5625q-0.890625 0 -1.75 0.203125q-0.859375 0.203125 -1.765625 0.5625l0 -1.640625q0.34375 -0.125 0.765625 -0.234375q0.421875 -0.125 0.890625 -0.21875q0.46875 -0.09375 0.96875 -0.140625q0.515625 -0.0625 1.03125 -0.0625q0.953125 0 1.703125 0.203125q0.765625 0.203125 1.296875 0.640625q0.53125 0.421875 0.8125 1.078125q0.28125 0.640625 0.28125 1.515625l0 7.2031097l-1.625 0zm-0.203125 -4.7656097l-2.296875 0q-0.6875 0 -1.171875 0.140625q-0.484375 0.140625 -0.796875 0.390625q-0.3125 0.25 -0.46875 0.59373474q-0.15625 0.34375 -0.15625 0.78125q0 0.3125 0.09375 0.59375q0.09375 0.265625 0.296875 0.484375q0.21875 0.203125 0.546875 0.328125q0.34375 0.125 0.8125 0.125q0.625 0 1.4375 -0.375q0.8125 -0.375 1.703125 -1.203125l0 -1.8593597zm8.773193 -8.453125l-3.09375 0l0 -1.5l4.921875 0l0 13.20311l3.109375 0l0 1.515625l-8.375 0l0 -1.515625l3.4375 0l0 -11.70311zm16.991943 7.4375q0 0.390625 -0.015625 0.65625q0 0.25 -0.03125 0.484375l-7.34375 0q0 1.5937347 0.890625 2.4531097q0.90625 0.859375 2.59375 0.859375q0.453125 0 0.90625 -0.03125q0.46875 -0.03125 0.890625 -0.09375q0.4375 -0.0625 0.828125 -0.140625q0.390625 -0.078125 0.71875 -0.171875l0 1.484375q-0.734375 0.203125 -1.671875 0.328125q-0.9375 0.140625 -1.9375 0.140625q-1.34375 0 -2.3125 -0.359375q-0.96875 -0.375 -1.59375 -1.0625q-0.609375 -0.6875 -0.90625 -1.6875q-0.296875 -1.0156097 -0.296875 -2.2812347q0 -1.109375 0.3125 -2.09375q0.328125 -0.984375 0.9375 -1.71875q0.609375 -0.75 1.484375 -1.1875q0.890625 -0.4375 2.015625 -0.4375q1.09375 0 1.9375 0.34375q0.84375 0.34375 1.421875 0.96875q0.578125 0.625 0.875 1.53125q0.296875 0.90625 0.296875 2.015625zm-1.890625 -0.265625q0.03125 -0.6875 -0.140625 -1.265625q-0.15625 -0.578125 -0.515625 -1.0q-0.34375 -0.421875 -0.859375 -0.65625q-0.515625 -0.234375 -1.203125 -0.234375q-0.59375 0 -1.09375 0.234375q-0.484375 0.234375 -0.84375 0.65625q-0.34375 0.40625 -0.5625 1.0q-0.21875 0.578125 -0.28125 1.265625l5.5 0zm12.101257 1.21875l-6.234375 0l0 -1.703125l6.234375 0l0 1.703125zm13.351318 -0.59375q0 1.3125 -0.359375 2.3437347q-0.359375 1.015625 -1.03125 1.734375q-0.65625 0.703125 -1.609375 1.09375q-0.9375 0.375 -2.125 0.375q-0.9375 0 -1.90625 -0.171875q-0.96875 -0.1875 -1.90625 -0.5625l0 -14.10936l1.8125 0l0 4.046875l-0.09375 1.9375q0.78125 -1.046875 1.671875 -1.46875q0.890625 -0.4375 1.921875 -0.4375q0.890625 0 1.5625 0.375q0.6875 0.375 1.140625 1.0625q0.453125 0.671875 0.6875 1.640625q0.234375 0.953125 0.234375 2.140625zm-1.859375 0.09375q0 -0.828125 -0.125 -1.515625q-0.109375 -0.6875 -0.375 -1.171875q-0.265625 -0.5 -0.671875 -0.765625q-0.40625 -0.28125 -0.96875 -0.28125q-0.34375 0 -0.703125 0.109375q-0.34375 0.109375 -0.734375 0.375q-0.375 0.25 -0.796875 0.671875q-0.421875 0.421875 -0.890625 1.046875l0 5.0624847q0.53125 0.21875 1.078125 0.34375q0.546875 0.109375 1.046875 0.109375q0.625 0 1.1875 -0.1875q0.578125 -0.203125 1.0 -0.671875q0.4375 -0.46875 0.6875 -1.234375q0.265625 -0.76560974 0.265625 -1.8906097zm13.945068 -5.125l-3.5625 9.343735q-0.546875 1.4375 -1.140625 2.46875q-0.59375 1.03125 -1.296875 1.6875q-0.6875 0.65625 -1.53125 0.96875q-0.828125 0.3125 -1.859375 0.3125q-0.265625 0 -0.484375 -0.015625q-0.21875 0 -0.484375 -0.015625l0 -1.65625q0.234375 0.03125 0.5 0.0625q0.28125 0.03125 0.578125 0.03125q0.5 0 0.921875 -0.15625q0.4375 -0.140625 0.828125 -0.46875q0.390625 -0.328125 0.734375 -0.859375q0.359375 -0.515625 0.6875 -1.25l-4.171875 -10.45311l2.0625 0l2.640625 6.9062347l0.53125 1.625l0.609375 -1.65625l2.453125 -6.8749847l1.984375 0zm11.101318 3.71875l-8.953125 0l0 -1.53125l8.953125 0l0 1.53125zm0 3.6249847l-8.953125 0l0 -1.5312347l8.953125 0l0 1.5312347zm6.3668823 -11.60936l-0.28125 4.890625l-1.71875 0l-0.296875 -4.890625l2.296875 0zm4.0625 0l-0.296875 4.890625l-1.703125 0l-0.3125 -4.890625l2.3125 0zm12.913818 10.578125q0 0.90623474 -0.359375 1.6874847q-0.359375 0.78125 -1.09375 1.375q-0.734375 0.59375 -1.84375 0.9375q-1.09375 0.328125 -2.5625 0.328125q-0.8125 0 -1.46875 -0.0625q-0.640625 -0.046875 -1.203125 -0.125l0 -1.625q0.65625 0.109375 1.375 0.171875q0.71875 0.0625 1.46875 0.0625q1.015625 0 1.734375 -0.171875q0.734375 -0.1875 1.1875 -0.53125q0.453125 -0.34375 0.65625 -0.828125q0.21875 -0.5 0.21875 -1.1093597q0 -0.5625 -0.25 -0.96875q-0.25 -0.421875 -0.703125 -0.703125q-0.453125 -0.28125 -1.09375 -0.421875q-0.625 -0.140625 -1.375 -0.140625l-1.546875 0l0 -1.5l1.578125 0q0.609375 0 1.109375 -0.15625q0.515625 -0.15625 0.875 -0.453125q0.359375 -0.3125 0.546875 -0.75q0.1875 -0.453125 0.1875 -1.015625q0 -1.078125 -0.671875 -1.578125q-0.65625 -0.5 -1.953125 -0.5q-0.6875 0 -1.421875 0.140625q-0.71875 0.125 -1.546875 0.390625l0 -1.578125q0.34375 -0.125 0.75 -0.21875q0.40625 -0.109375 0.796875 -0.171875q0.40625 -0.0625 0.796875 -0.09375q0.40625 -0.046875 0.765625 -0.046875q1.078125 0 1.90625 0.234375q0.828125 0.234375 1.375 0.671875q0.546875 0.4375 0.828125 1.0625q0.28125 0.625 0.28125 1.40625q0 1.15625 -0.59375 1.953125q-0.59375 0.796875 -1.640625 1.265625q0.53125 0.078125 1.046875 0.328125q0.515625 0.25 0.921875 0.640625q0.421875 0.390625 0.671875 0.921875q0.25 0.53125 0.25 1.171875zm6.4763184 -10.578125l-0.28125 4.890625l-1.71875 0l-0.296875 -4.890625l2.296875 0zm4.0625 0l-0.296875 4.890625l-1.703125 0l-0.3125 -4.890625l2.3125 0z" fill-rule="nonzero"/><path fill="#000000" fill-opacity="0.0" d="m17.774271 230.41995l197.70078 0l0 47.338593l-197.70078 0z" fill-rule="evenodd"/><path fill="#cc0000" d="m44.493668 257.04056q0 0.5625 -0.1875 1.0q-0.1875 0.4375 -0.515625 0.78125q-0.328125 0.328125 -0.75 0.578125q-0.421875 0.234375 -0.90625 0.390625q-0.484375 0.15625 -1.0 0.21875q-0.515625 0.078125 -1.0 0.078125q-1.0625 0 -1.953125 -0.09375q-0.890625 -0.09375 -1.75 -0.296875l0 -1.671875q0.921875 0.265625 1.828125 0.40625q0.90625 0.125 1.796875 0.125q1.3125 0 1.9375 -0.34375q0.625 -0.359375 0.625 -1.015625q0 -0.28125 -0.109375 -0.5q-0.09375 -0.234375 -0.359375 -0.4375q-0.25 -0.203125 -0.796875 -0.42185974q-0.546875 -0.21875 -1.5 -0.5q-0.703125 -0.203125 -1.3125 -0.46875q-0.59375 -0.265625 -1.03125 -0.625q-0.4375 -0.375 -0.6875 -0.859375q-0.25 -0.5 -0.25 -1.15625q0 -0.4375 0.203125 -0.953125q0.203125 -0.53125 0.6875 -0.96875q0.5 -0.453125 1.328125 -0.75q0.828125 -0.296875 2.078125 -0.296875q0.625 0 1.375 0.0625q0.75 0.0625 1.5625 0.234375l0 1.609375q-0.859375 -0.203125 -1.625 -0.296875q-0.765625 -0.109375 -1.328125 -0.109375q-0.671875 0 -1.140625 0.109375q-0.46875 0.109375 -0.75 0.296875q-0.28125 0.171875 -0.40625 0.421875q-0.125 0.234375 -0.125 0.515625q0 0.28125 0.109375 0.515625q0.109375 0.234375 0.40625 0.453125q0.296875 0.203125 0.828125 0.421875q0.53125 0.203125 1.375 0.453125q0.9375 0.28125 1.5625 0.578125q0.640625 0.296875 1.03125 0.65625q0.40625 0.359375 0.578125 0.82810974q0.171875 0.453125 0.171875 1.03125zm11.570053 2.46875q-0.71875 0.28125 -1.46875 0.40625q-0.734375 0.125 -1.53125 0.125q-2.46875 0 -3.8125 -1.34375q-1.34375 -1.34375 -1.34375 -3.9218597q0 -1.234375 0.390625 -2.25q0.390625 -1.015625 1.078125 -1.734375q0.703125 -0.71875 1.671875 -1.109375q0.96875 -0.390625 2.140625 -0.390625q0.8125 0 1.515625 0.125q0.703125 0.109375 1.359375 0.375l0 1.71875q-0.6875 -0.34375 -1.390625 -0.5q-0.703125 -0.171875 -1.453125 -0.171875q-0.6875 0 -1.3125 0.265625q-0.625 0.265625 -1.09375 0.765625q-0.46875 0.5 -0.734375 1.21875q-0.265625 0.71875 -0.265625 1.625q0 1.8906097 0.921875 2.8437347q0.921875 0.9375 2.546875 0.9375q0.75 0 1.4375 -0.15625q0.6875 -0.171875 1.34375 -0.515625l0 1.6875zm10.320053 0.390625l-0.046875 -1.40625q-0.859375 0.84375 -1.734375 1.21875q-0.875 0.375 -1.84375 0.375q-0.90625 0 -1.546875 -0.21875q-0.625 -0.234375 -1.046875 -0.640625q-0.40625 -0.40625 -0.59375 -0.9375q-0.1875 -0.546875 -0.1875 -1.1875q0 -1.5624847 1.171875 -2.4531097q1.171875 -0.890625 3.453125 -0.890625l2.171875 0l0 -0.921875q0 -0.921875 -0.59375 -1.484375q-0.59375 -0.5625 -1.8125 -0.5625q-0.890625 0 -1.75 0.203125q-0.859375 0.203125 -1.765625 0.5625l0 -1.640625q0.34375 -0.125 0.765625 -0.234375q0.421875 -0.125 0.890625 -0.21875q0.46875 -0.09375 0.96875 -0.140625q0.515625 -0.0625 1.03125 -0.0625q0.953125 0 1.703125 0.203125q0.765625 0.203125 1.296875 0.640625q0.53125 0.421875 0.8125 1.078125q0.28125 0.640625 0.28125 1.515625l0 7.2031097l-1.625 0zm-0.203125 -4.7656097l-2.296875 0q-0.6875 0 -1.171875 0.140625q-0.484375 0.140625 -0.796875 0.390625q-0.3125 0.25 -0.46875 0.59373474q-0.15625 0.34375 -0.15625 0.78125q0 0.3125 0.09375 0.59375q0.09375 0.265625 0.296875 0.484375q0.21875 0.203125 0.546875 0.328125q0.34375 0.125 0.8125 0.125q0.625 0 1.4375 -0.375q0.8125 -0.375 1.703125 -1.203125l0 -1.8593597zm8.773178 -8.453125l-3.09375 0l0 -1.5l4.921875 0l0 13.20311l3.109375 0l0 1.515625l-8.375 0l0 -1.515625l3.4375 0l0 -11.70311zm16.991928 7.4375q0 0.390625 -0.015625 0.65625q0 0.25 -0.03125 0.484375l-7.34375 0q0 1.5937347 0.890625 2.4531097q0.90625 0.859375 2.59375 0.859375q0.453125 0 0.90625 -0.03125q0.46875 -0.03125 0.890625 -0.09375q0.4375 -0.0625 0.828125 -0.140625q0.390625 -0.078125 0.71875 -0.171875l0 1.484375q-0.734375 0.203125 -1.671875 0.328125q-0.9375 0.140625 -1.9375 0.140625q-1.34375 0 -2.3125 -0.359375q-0.96875 -0.375 -1.59375 -1.0625q-0.609375 -0.6875 -0.90625 -1.6875q-0.296875 -1.0156097 -0.296875 -2.2812347q0 -1.109375 0.3125 -2.09375q0.328125 -0.984375 0.9375 -1.71875q0.609375 -0.75 1.484375 -1.1875q0.890625 -0.4375 2.015625 -0.4375q1.09375 0 1.9375 0.34375q0.84375 0.34375 1.421875 0.96875q0.578125 0.625 0.875 1.53125q0.296875 0.90625 0.296875 2.015625zm-1.890625 -0.265625q0.03125 -0.6875 -0.140625 -1.265625q-0.15625 -0.578125 -0.515625 -1.0q-0.34375 -0.421875 -0.859375 -0.65625q-0.515625 -0.234375 -1.203125 -0.234375q-0.59375 0 -1.09375 0.234375q-0.484375 0.234375 -0.84375 0.65625q-0.34375 0.40625 -0.5625 1.0q-0.21875 0.578125 -0.28125 1.265625l5.5 0zm12.101303 1.21875l-6.234375 0l0 -1.703125l6.234375 0l0 1.703125zm13.351303 -0.59375q0 1.3125 -0.359375 2.3437347q-0.359375 1.015625 -1.03125 1.734375q-0.65625 0.703125 -1.609375 1.09375q-0.9375 0.375 -2.125 0.375q-0.9375 0 -1.90625 -0.171875q-0.96875 -0.1875 -1.90625 -0.5625l0 -14.10936l1.8125 0l0 4.046875l-0.09375 1.9375q0.78125 -1.046875 1.671875 -1.46875q0.890625 -0.4375 1.921875 -0.4375q0.890625 0 1.5625 0.375q0.6875 0.375 1.140625 1.0625q0.453125 0.671875 0.6875 1.640625q0.234375 0.953125 0.234375 2.140625zm-1.859375 0.09375q0 -0.828125 -0.125 -1.515625q-0.109375 -0.6875 -0.375 -1.171875q-0.265625 -0.5 -0.671875 -0.765625q-0.40625 -0.28125 -0.96875 -0.28125q-0.34375 0 -0.703125 0.109375q-0.34375 0.109375 -0.734375 0.375q-0.375 0.25 -0.796875 0.671875q-0.421875 0.421875 -0.890625 1.046875l0 5.0624847q0.53125 0.21875 1.078125 0.34375q0.546875 0.109375 1.046875 0.109375q0.625 0 1.1875 -0.1875q0.578125 -0.203125 1.0 -0.671875q0.4375 -0.46875 0.6875 -1.234375q0.265625 -0.76560974 0.265625 -1.8906097zm13.945053 -5.125l-3.5625 9.343735q-0.546875 1.4375 -1.140625 2.46875q-0.59375 1.03125 -1.296875 1.6875q-0.6875 0.65625 -1.53125 0.96875q-0.828125 0.3125 -1.859375 0.3125q-0.265625 0 -0.484375 -0.015625q-0.21875 0 -0.484375 -0.015625l0 -1.65625q0.234375 0.03125 0.5 0.0625q0.28125 0.03125 0.578125 0.03125q0.5 0 0.921875 -0.15625q0.4375 -0.140625 0.828125 -0.46875q0.390625 -0.328125 0.734375 -0.859375q0.359375 -0.515625 0.6875 -1.25l-4.171875 -10.45311l2.0625 0l2.640625 6.9062347l0.53125 1.625l0.609375 -1.65625l2.453125 -6.8749847l1.984375 0zm11.101303 3.71875l-8.953125 0l0 -1.53125l8.953125 0l0 1.53125zm0 3.6249847l-8.953125 0l0 -1.5312347l8.953125 0l0 1.5312347zm6.366928 -11.60936l-0.28125 4.890625l-1.71875 0l-0.296875 -4.890625l2.296875 0zm4.0625153 0l-0.296875 4.890625l-1.703125 0l-0.3125 -4.890625l2.3125 0zm13.491913 7.921875q0 1.5625 -0.3125 2.84375q-0.3125 1.2812347 -0.953125 2.2031097q-0.625 0.921875 -1.578125 1.4375q-0.9375 0.5 -2.203125 0.5q-1.09375 0 -2.0 -0.40625q-0.890625 -0.421875 -1.53125 -1.265625q-0.625 -0.859375 -0.96875 -2.171875q-0.34375 -1.3281097 -0.34375 -3.1406097q0 -1.5625 0.3125 -2.84375q0.3125 -1.296875 0.9375 -2.21875q0.640625 -0.921875 1.578125 -1.421875q0.953125 -0.515625 2.21875 -0.515625q1.09375 0 1.984375 0.421875q0.90625 0.40625 1.53125 1.265625q0.640625 0.859375 0.984375 2.1875q0.34375 1.3125 0.34375 3.125zm-1.828125 0.0625q0 -0.359375 -0.03125 -0.703125q-0.03125 -0.359375 -0.0625 -0.6875l-5.75 4.2812347q0.15625 0.546875 0.390625 1.0q0.234375 0.453125 0.578125 0.78125q0.34375 0.328125 0.765625 0.515625q0.4375 0.1875 0.984375 0.1875q0.71875 0 1.296875 -0.34375q0.578125 -0.34375 0.984375 -1.015625q0.40625 -0.6875 0.625 -1.6874847q0.21875 -1.015625 0.21875 -2.328125zm-6.234375 -0.125q0 0.3125 0 0.640625q0.015625 0.328125 0.046875 0.625l5.75 -4.265625q-0.15625 -0.53125 -0.390625 -0.953125q-0.234375 -0.4375 -0.578125 -0.75q-0.328125 -0.328125 -0.765625 -0.5q-0.421875 -0.1875 -0.953125 -0.1875q-0.703125 0 -1.28125 0.34375q-0.578125 0.34375 -0.984375 1.03125q-0.40625 0.671875 -0.625 1.6875q-0.21875 1.0 -0.21875 2.328125zm14.757568 3.5781097q0.359375 0 0.671875 0.140625q0.3125 0.125 0.546875 0.375q0.234375 0.234375 0.375 0.5625q0.140625 0.3125 0.140625 0.671875q0 0.359375 -0.140625 0.671875q-0.140625 0.3125 -0.375 0.546875q-0.234375 0.234375 -0.546875 0.359375q-0.3125 0.140625 -0.671875 0.140625q-0.359375 0 -0.671875 -0.140625q-0.3125 -0.125 -0.546875 -0.359375q-0.234375 -0.234375 -0.375 -0.546875q-0.140625 -0.3125 -0.140625 -0.671875q0 -0.359375 0.140625 -0.671875q0.140625 -0.328125 0.375 -0.5625q0.234375 -0.25 0.546875 -0.375q0.3125 -0.140625 0.671875 -0.140625zm16.101288 -1.0781097q0 1.0156097 -0.4375 1.8593597q-0.4375 0.828125 -1.203125 1.421875q-0.765625 0.59375 -1.8125 0.9375q-1.03125 0.328125 -2.25 0.328125q-0.296875 0 -0.65625 -0.015625q-0.34375 -0.015625 -0.6875 -0.046875q-0.34375 -0.015625 -0.671875 -0.046875q-0.328125 -0.03125 -0.578125 -0.078125l0 -1.640625q0.5625 0.125 1.28125 0.1875q0.71875 0.0625 1.46875 0.0625q0.828125 0 1.484375 -0.1875q0.671875 -0.203125 1.140625 -0.5625q0.46875 -0.375 0.71875 -0.90625q0.25 -0.53125 0.25 -1.1874847q0 -1.265625 -0.90625 -1.84375q-0.90625 -0.578125 -2.625 -0.578125l-2.578125 0l0 -6.953125l7.328125 0l0 1.578125l-5.625 0l0 3.828125l1.1875 0q0.984375 0 1.90625 0.171875q0.9375 0.171875 1.65625 0.625q0.71875 0.4375 1.15625 1.1875q0.453125 0.734375 0.453125 1.859375zm6.5544434 -10.359375l-0.28125 4.890625l-1.71875 0l-0.296875 -4.890625l2.296875 0zm4.0625 0l-0.296875 4.890625l-1.703125 0l-0.3125 -4.890625l2.3125 0z" fill-rule="nonzero"/><path fill="#000000" fill-opacity="0.0" d="m238.86089 230.41995l197.70079 0l0 47.338593l-197.70079 0z" fill-rule="evenodd"/><path fill="#666666" d="m305.81818 259.89993l2.3125 -11.062485l1.71875 0l-0.40625 1.921875q1.109375 -1.125 2.078125 -1.640625q0.96875 -0.53125 1.984375 -0.53125q1.34375 0 2.09375 0.734375q0.765625 0.71875 0.765625 1.9375q0 0.625 -0.265625 1.9375l-1.40625 6.7031097l-1.875 0l1.46875 -7.0156097q0.21875 -1.015625 0.21875 -1.5q0 -0.5625 -0.390625 -0.90625q-0.375 -0.34375 -1.09375 -0.34375q-1.453125 0 -2.578125 1.046875q-1.125 1.046875 -1.65625 3.578125l-1.078125 5.1406097l-1.890625 0zm12.205444 -4.2031097q0 -3.234375 1.90625 -5.359375q1.5625 -1.75 4.125 -1.75q2.0 0 3.21875 1.25q1.21875 1.25 1.21875 3.375q0 1.90625 -0.765625 3.5468597q-0.765625 1.640625 -2.1875 2.515625q-1.421875 0.875 -3.0 0.875q-1.296875 0 -2.359375 -0.546875q-1.046875 -0.5625 -1.609375 -1.5625q-0.546875 -1.015625 -0.546875 -2.3437347zm1.875 -0.1875q0 1.5624847 0.75 2.3749847q0.75 0.8125 1.90625 0.8125q0.609375 0 1.203125 -0.25q0.59375 -0.25 1.09375 -0.75q0.515625 -0.5 0.875 -1.140625q0.359375 -0.64060974 0.578125 -1.3749847q0.328125 -1.03125 0.328125 -1.984375q0 -1.5 -0.765625 -2.328125q-0.75 -0.828125 -1.890625 -0.828125q-0.890625 0 -1.625 0.421875q-0.71875 0.421875 -1.3125 1.234375q-0.578125 0.8125 -0.859375 1.890625q-0.28125 1.078125 -0.28125 1.921875zm9.642944 4.3906097l2.3125 -11.062485l1.671875 0l-0.46875 2.265625q0.859375 -1.28125 1.671875 -1.890625q0.8125 -0.625 1.671875 -0.625q0.5625 0 1.390625 0.40625l-0.78125 1.75q-0.484375 -0.359375 -1.0625 -0.359375q-1.0 0 -2.046875 1.109375q-1.03125 1.109375 -1.625 3.96875l-0.9375 4.4374847l-1.796875 0zm7.1024475 0l2.3125 -11.062485l1.875 0l-0.375 1.828125q1.046875 -1.1875 1.875 -1.625q0.828125 -0.453125 1.796875 -0.453125q1.03125 0 1.71875 0.546875q0.703125 0.546875 0.90625 1.53125q0.84375 -1.046875 1.78125 -1.5625q0.9375 -0.515625 1.96875 -0.515625q1.375 0 2.0625 0.65625q0.703125 0.65625 0.703125 1.84375q0 0.515625 -0.234375 1.6875l-1.5 7.1249847l-1.875 0l1.515625 -7.3124847q0.203125 -0.890625 0.203125 -1.28125q0 -0.546875 -0.34375 -0.859375q-0.34375 -0.3125 -0.96875 -0.3125q-0.84375 0 -1.71875 0.515625q-0.875 0.515625 -1.359375 1.34375q-0.484375 0.828125 -0.84375 2.546875l-1.125 5.3593597l-1.890625 0l1.5625 -7.4687347q0.171875 -0.765625 0.171875 -1.078125q0 -0.546875 -0.34375 -0.875q-0.34375 -0.34375 -0.875 -0.34375q-0.8125 0 -1.6875 0.515625q-0.875 0.515625 -1.4375 1.421875q-0.546875 0.90625 -0.90625 2.59375l-1.09375 5.2343597l-1.875 0zm25.23523 -1.375q-0.984375 0.84375 -1.890625 1.234375q-0.90625 0.390625 -1.9375 0.390625q-1.53125 0 -2.46875 -0.890625q-0.9375 -0.90625 -0.9375 -2.3125q0 -0.9375 0.421875 -1.6406097q0.421875 -0.71875 1.109375 -1.140625q0.703125 -0.4375 1.71875 -0.625q0.640625 -0.125 2.40625 -0.203125q1.78125 -0.078125 2.546875 -0.375q0.21875 -0.765625 0.21875 -1.28125q0 -0.65625 -0.46875 -1.03125q-0.65625 -0.515625 -1.921875 -0.515625q-1.1875 0 -1.953125 0.53125q-0.75 0.515625 -1.09375 1.484375l-1.90625 -0.171875q0.59375 -1.640625 1.859375 -2.515625q1.265625 -0.875 3.1875 -0.875q2.046875 0 3.25 0.984375q0.90625 0.71875 0.90625 1.890625q0 0.890625 -0.25 2.046875l-0.609375 2.7499847q-0.296875 1.3125 -0.296875 2.140625q0 0.515625 0.234375 1.5l-1.90625 0q-0.15625 -0.546875 -0.21875 -1.375zm0.6875 -4.2343597q-0.390625 0.15625 -0.84375 0.25q-0.453125 0.078125 -1.515625 0.171875q-1.640625 0.140625 -2.328125 0.375q-0.671875 0.21875 -1.015625 0.71875q-0.34375 0.48435974 -0.34375 1.0781097q0 0.78125 0.546875 1.296875q0.546875 0.515625 1.5625 0.515625q0.9375 0 1.796875 -0.5q0.859375 -0.5 1.359375 -1.375q0.5 -0.89060974 0.78125 -2.5312347zm3.5648193 5.6093597l3.1875 -15.26561l1.890625 0l-3.1875 15.26561l-1.890625 0z" fill-rule="nonzero"/></g></svg>