<svg version="1.1" viewBox="0.0 0.0 702.9763779527559 519.8162729658793" fill="none" stroke="none" stroke-linecap="square" stroke-miterlimit="10" xmlns:xlink="http://www.w3.org/1999/xlink" xmlns="http://www.w3.org/2000/svg"><clipPath id="p.0"><path d="m0 0l702.9764 0l0 519.8163l-702.9764 0l0 -519.8163z" clip-rule="nonzero"/></clipPath><g clip-path="url(#p.0)"><path fill="#000000" fill-opacity="0.0" d="m0 0l702.9764 0l0 519.8163l-702.9764 0z" fill-rule="evenodd"/><path fill="#ffffff" d="m69.97289 17.43832l590.77167 0l0 485.25983l-590.77167 0z" fill-rule="evenodd"/><path stroke="#000000" stroke-width="1.0" stroke-linejoin="round" stroke-linecap="butt" d="m69.97289 17.43832l590.77167 0l0 485.25983l-590.77167 0z" fill-rule="evenodd"/><path fill="#000000" fill-opacity="0.0" d="m89.104126 37.58005l362.51968 0l0 91.65355l-362.51968 0z" fill-rule="evenodd"/><path fill="#000000" d="m99.760376 68.34005l0 -16.21875l3.28125 0l0 6.390625l6.40625 0l0 -6.390625l3.28125 0l0 16.21875l-3.28125 0l0 -7.09375l-6.40625 0l0 7.09375l-3.28125 0zm23.142868 -3.734375l3.09375 0.515625q-0.59375 1.703125 -1.890625 2.59375q-1.28125 0.890625 -3.21875 0.890625q-3.0625 0 -4.546875 -2.0q-1.15625 -1.609375 -1.15625 -4.046875q0 -2.921875 1.515625 -4.578125q1.53125 -1.65625 3.875 -1.65625q2.625 0 4.140625 1.734375q1.515625 1.734375 1.4375 5.296875l-7.78125 0q0.03125 1.390625 0.75 2.15625q0.71875 0.765625 1.796875 0.765625q0.71875 0 1.21875 -0.390625q0.5 -0.40625 0.765625 -1.28125zm0.171875 -3.140625q-0.03125 -1.359375 -0.703125 -2.0625q-0.65625 -0.703125 -1.609375 -0.703125q-1.015625 0 -1.6875 0.75q-0.65625 0.734375 -0.65625 2.015625l4.65625 0zm5.6159515 6.875l0 -16.21875l3.109375 0l0 16.21875l-3.109375 0zm6.294632 0l0 -16.21875l3.109375 0l0 16.21875l-3.109375 0zm5.575882 -6.046875q0 -1.546875 0.765625 -2.984375q0.765625 -1.453125 2.15625 -2.21875q1.40625 -0.765625 3.125 -0.765625q2.671875 0 4.375 1.734375q1.703125 1.734375 1.703125 4.375q0 2.671875 -1.71875 4.421875q-1.71875 1.75 -4.328125 1.75q-1.625 0 -3.09375 -0.71875q-1.453125 -0.734375 -2.21875 -2.140625q-0.765625 -1.421875 -0.765625 -3.453125zm3.1875 0.171875q0 1.75 0.828125 2.6875q0.828125 0.921875 2.046875 0.921875q1.21875 0 2.03125 -0.921875q0.828125 -0.9375 0.828125 -2.703125q0 -1.734375 -0.828125 -2.65625q-0.8125 -0.9375 -2.03125 -0.9375q-1.21875 0 -2.046875 0.9375q-0.828125 0.921875 -0.828125 2.671875zm28.071472 -0.09375l3.171875 1.015625q-0.734375 2.65625 -2.4375 3.953125q-1.6875 1.28125 -4.296875 1.28125q-3.234375 0 -5.3125 -2.203125q-2.078125 -2.21875 -2.078125 -6.046875q0 -4.046875 2.078125 -6.28125q2.09375 -2.25 5.5 -2.25q2.984375 0 4.84375 1.765625q1.109375 1.03125 1.65625 2.984375l-3.234375 0.78125q-0.296875 -1.265625 -1.21875 -2.0q-0.90625 -0.734375 -2.203125 -0.734375q-1.8125 0 -2.9375 1.296875q-1.109375 1.296875 -1.109375 4.203125q0 3.0625 1.09375 4.375q1.109375 1.3125 2.890625 1.3125q1.296875 0 2.234375 -0.828125q0.9375 -0.84375 1.359375 -2.625zm5.955368 5.96875l0 -16.21875l3.109375 0l0 16.21875l-3.109375 0zm5.575882 -6.046875q0 -1.546875 0.765625 -2.984375q0.765625 -1.453125 2.15625 -2.21875q1.40625 -0.765625 3.125 -0.765625q2.671875 0 4.375 1.734375q1.703125 1.734375 1.703125 4.375q0 2.671875 -1.71875 4.421875q-1.71875 1.75 -4.328125 1.75q-1.625 0 -3.09375 -0.71875q-1.453125 -0.734375 -2.21875 -2.140625q-0.765625 -1.421875 -0.765625 -3.453125zm3.1875 0.171875q0 1.75 0.828125 2.6875q0.828125 0.921875 2.046875 0.921875q1.21875 0 2.03125 -0.921875q0.828125 -0.9375 0.828125 -2.703125q0 -1.734375 -0.828125 -2.65625q-0.8125 -0.9375 -2.03125 -0.9375q-1.21875 0 -2.046875 0.9375q-0.828125 0.921875 -0.828125 2.671875zm10.27684 2.515625l3.125 -0.46875q0.1875 0.90625 0.796875 1.375q0.609375 0.46875 1.703125 0.46875q1.21875 0 1.8125 -0.4375q0.421875 -0.3125 0.421875 -0.828125q0 -0.359375 -0.21875 -0.59375q-0.234375 -0.21875 -1.046875 -0.40625q-3.765625 -0.828125 -4.765625 -1.515625q-1.390625 -0.953125 -1.390625 -2.640625q0 -1.53125 1.203125 -2.5625q1.203125 -1.046875 3.734375 -1.046875q2.40625 0 3.578125 0.796875q1.1875 0.78125 1.625 2.3125l-2.9375 0.546875q-0.1875 -0.6875 -0.71875 -1.046875q-0.515625 -0.375 -1.484375 -0.375q-1.234375 0 -1.765625 0.34375q-0.359375 0.25 -0.359375 0.625q0 0.34375 0.3125 0.578125q0.421875 0.296875 2.90625 0.875q2.484375 0.5625 3.46875 1.375q0.96875 0.828125 0.96875 2.3125q0 1.609375 -1.34375 2.78125q-1.34375 1.15625 -4.0 1.15625q-2.390625 0 -3.796875 -0.96875q-1.390625 -0.984375 -1.828125 -2.65625zm20.506577 -0.375l3.09375 0.515625q-0.59375 1.703125 -1.890625 2.59375q-1.28125 0.890625 -3.21875 0.890625q-3.0625 0 -4.546875 -2.0q-1.15625 -1.609375 -1.15625 -4.046875q0 -2.921875 1.515625 -4.578125q1.53125 -1.65625 3.875 -1.65625q2.625 0 4.140625 1.734375q1.515625 1.734375 1.4375 5.296875l-7.78125 0q0.03125 1.390625 0.75 2.15625q0.71875 0.765625 1.796875 0.765625q0.71875 0 1.21875 -0.390625q0.5 -0.40625 0.765625 -1.28125zm0.171875 -3.140625q-0.03125 -1.359375 -0.703125 -2.0625q-0.65625 -0.703125 -1.609375 -0.703125q-1.015625 0 -1.6875 0.75q-0.65625 0.734375 -0.65625 2.015625l4.65625 0zm8.600327 6.875l-3.109375 0l0 -11.75l2.875 0l0 1.671875q0.75 -1.1875 1.34375 -1.5625q0.59375 -0.375 1.34375 -0.375q1.0625 0 2.046875 0.59375l-0.96875 2.703125q-0.78125 -0.5 -1.453125 -0.5q-0.65625 0 -1.109375 0.359375q-0.453125 0.359375 -0.71875 1.296875q-0.25 0.9375 -0.25 3.9375l0 3.625zm12.645035 -3.734375l3.09375 0.515625q-0.59375 1.703125 -1.890625 2.59375q-1.28125 0.890625 -3.21875 0.890625q-3.0625 0 -4.546875 -2.0q-1.15625 -1.609375 -1.15625 -4.046875q0 -2.921875 1.515625 -4.578125q1.53125 -1.65625 3.875 -1.65625q2.625 0 4.140625 1.734375q1.515625 1.734375 1.4375 5.296875l-7.78125 0q0.03125 1.390625 0.75 2.15625q0.71875 0.765625 1.796875 0.765625q0.71875 0 1.21875 -0.390625q0.5 -0.40625 0.765625 -1.28125zm0.171875 -3.140625q-0.03125 -1.359375 -0.703125 -2.0625q-0.65625 -0.703125 -1.609375 -0.703125q-1.015625 0 -1.6875 0.75q-0.65625 0.734375 -0.65625 2.015625l4.65625 0zm7.9440765 -1.296875l-2.828125 -0.5q0.484375 -1.703125 1.640625 -2.515625q1.15625 -0.828125 3.453125 -0.828125q2.078125 0 3.09375 0.5q1.015625 0.484375 1.421875 1.25q0.421875 0.75 0.421875 2.78125l-0.03125 3.625q0 1.546875 0.140625 2.28125q0.15625 0.734375 0.578125 1.578125l-3.078125 0q-0.125 -0.3125 -0.296875 -0.921875q-0.078125 -0.265625 -0.109375 -0.359375q-0.796875 0.765625 -1.71875 1.15625q-0.90625 0.390625 -1.921875 0.390625q-1.828125 0 -2.875 -0.984375q-1.03125 -0.984375 -1.03125 -2.484375q0 -1.0 0.46875 -1.78125q0.484375 -0.78125 1.328125 -1.1875q0.859375 -0.421875 2.484375 -0.734375q2.171875 -0.40625 3.015625 -0.765625l0 -0.296875q0 -0.90625 -0.453125 -1.28125q-0.4375 -0.390625 -1.65625 -0.390625q-0.828125 0 -1.296875 0.328125q-0.46875 0.328125 -0.75 1.140625zm4.15625 2.53125q-0.59375 0.203125 -1.890625 0.484375q-1.296875 0.265625 -1.6875 0.53125q-0.609375 0.4375 -0.609375 1.09375q0 0.65625 0.484375 1.140625q0.484375 0.46875 1.234375 0.46875q0.84375 0 1.609375 -0.5625q0.5625 -0.40625 0.734375 -1.015625q0.125 -0.40625 0.125 -1.515625l0 -0.625zm16.897202 5.640625l-2.890625 0l0 -1.71875q-0.71875 1.0 -1.703125 1.5q-0.96875 0.484375 -1.96875 0.484375q-2.03125 0 -3.484375 -1.625q-1.4375 -1.640625 -1.4375 -4.5625q0 -2.984375 1.40625 -4.53125q1.40625 -1.5625 3.5625 -1.5625q1.96875 0 3.40625 1.640625l0 -5.84375l3.109375 0l0 16.21875zm-8.296875 -6.125q0 1.875 0.515625 2.71875q0.75 1.21875 2.09375 1.21875q1.078125 0 1.828125 -0.90625q0.75 -0.921875 0.75 -2.734375q0 -2.03125 -0.734375 -2.921875q-0.71875 -0.890625 -1.859375 -0.890625q-1.109375 0 -1.859375 0.890625q-0.734375 0.875 -0.734375 2.625z" fill-rule="nonzero"/><path fill="#000000" d="m102.604126 112.820045l0 -10.9375l-4.09375 0l0 -1.46875l9.828125 0l0 1.46875l-4.09375 0l0 10.9375l-1.640625 0zm7.225342 0l0 -12.40625l1.53125 0l0 4.453125q1.0625 -1.234375 2.6875 -1.234375q1.0 0 1.734375 0.390625q0.734375 0.390625 1.046875 1.09375q0.328125 0.6875 0.328125 2.015625l0 5.6875l-1.53125 0l0 -5.6875q0 -1.15625 -0.5 -1.671875q-0.484375 -0.515625 -1.390625 -0.515625q-0.6875 0 -1.28125 0.359375q-0.59375 0.34375 -0.84375 0.953125q-0.25 0.59375 -0.25 1.640625l0 4.921875l-1.53125 0zm9.65271 -10.65625l0 -1.75l1.515625 0l0 1.75l-1.515625 0zm0 10.65625l0 -8.984375l1.515625 0l0 8.984375l-1.515625 0zm3.224762 -2.6875l1.515625 -0.234375q0.125 0.90625 0.703125 1.390625q0.578125 0.484375 1.609375 0.484375q1.0625 0 1.5625 -0.421875q0.515625 -0.4375 0.515625 -1.015625q0 -0.515625 -0.453125 -0.8125q-0.3125 -0.203125 -1.5625 -0.515625q-1.671875 -0.421875 -2.328125 -0.71875q-0.640625 -0.3125 -0.984375 -0.859375q-0.328125 -0.546875 -0.328125 -1.203125q0 -0.609375 0.28125 -1.109375q0.28125 -0.515625 0.75 -0.859375q0.359375 -0.265625 0.96875 -0.4375q0.609375 -0.1875 1.3125 -0.1875q1.0625 0 1.859375 0.3125q0.796875 0.296875 1.171875 0.828125q0.390625 0.515625 0.53125 1.375l-1.484375 0.203125q-0.109375 -0.6875 -0.59375 -1.078125q-0.484375 -0.390625 -1.375 -0.390625q-1.046875 0 -1.5 0.34375q-0.4375 0.34375 -0.4375 0.8125q0 0.296875 0.171875 0.53125q0.1875 0.25 0.59375 0.40625q0.21875 0.09375 1.34375 0.390625q1.609375 0.4375 2.25 0.71875q0.640625 0.265625 1.0 0.796875q0.375 0.515625 0.375 1.296875q0 0.765625 -0.453125 1.4375q-0.4375 0.671875 -1.28125 1.046875q-0.828125 0.359375 -1.890625 0.359375q-1.75 0 -2.671875 -0.71875q-0.921875 -0.734375 -1.171875 -2.171875zm14.103378 -7.96875l0 -1.75l1.515625 0l0 1.75l-1.515625 0zm0 10.65625l0 -8.984375l1.515625 0l0 8.984375l-1.515625 0zm3.224762 -2.6875l1.515625 -0.234375q0.125 0.90625 0.703125 1.390625q0.578125 0.484375 1.609375 0.484375q1.0625 0 1.5625 -0.421875q0.515625 -0.4375 0.515625 -1.015625q0 -0.515625 -0.453125 -0.8125q-0.3125 -0.203125 -1.5625 -0.515625q-1.671875 -0.421875 -2.328125 -0.71875q-0.640625 -0.3125 -0.984375 -0.859375q-0.328125 -0.546875 -0.328125 -1.203125q0 -0.609375 0.28125 -1.109375q0.28125 -0.515625 0.75 -0.859375q0.359375 -0.265625 0.96875 -0.4375q0.609375 -0.1875 1.3125 -0.1875q1.0625 0 1.859375 0.3125q0.796875 0.296875 1.171875 0.828125q0.390625 0.515625 0.53125 1.375l-1.484375 0.203125q-0.109375 -0.6875 -0.59375 -1.078125q-0.484375 -0.390625 -1.375 -0.390625q-1.046875 0 -1.5 0.34375q-0.4375 0.34375 -0.4375 0.8125q0 0.296875 0.171875 0.53125q0.1875 0.25 0.59375 0.40625q0.21875 0.09375 1.34375 0.390625q1.609375 0.4375 2.25 0.71875q0.640625 0.265625 1.0 0.796875q0.375 0.515625 0.375 1.296875q0 0.765625 -0.453125 1.4375q-0.4375 0.671875 -1.28125 1.046875q-0.828125 0.359375 -1.890625 0.359375q-1.75 0 -2.671875 -0.71875q-0.921875 -0.734375 -1.171875 -2.171875zm19.947128 1.578125q-0.84375 0.71875 -1.625 1.015625q-0.78125 0.296875 -1.671875 0.296875q-1.484375 0 -2.28125 -0.71875q-0.796875 -0.734375 -0.796875 -1.859375q0 -0.65625 0.296875 -1.203125q0.3125 -0.546875 0.796875 -0.875q0.484375 -0.328125 1.09375 -0.5q0.4375 -0.109375 1.34375 -0.21875q1.84375 -0.21875 2.71875 -0.53125q0.015625 -0.3125 0.015625 -0.390625q0 -0.9375 -0.4375 -1.3125q-0.578125 -0.515625 -1.734375 -0.515625q-1.078125 0 -1.59375 0.375q-0.5 0.375 -0.75 1.328125l-1.484375 -0.203125q0.203125 -0.953125 0.65625 -1.53125q0.46875 -0.59375 1.34375 -0.90625q0.890625 -0.328125 2.046875 -0.328125q1.15625 0 1.875 0.28125q0.71875 0.265625 1.046875 0.671875q0.34375 0.40625 0.484375 1.03125q0.078125 0.390625 0.078125 1.40625l0 2.03125q0 2.125 0.09375 2.6875q0.09375 0.5625 0.390625 1.078125l-1.59375 0q-0.234375 -0.46875 -0.3125 -1.109375zm-0.125 -3.40625q-0.828125 0.34375 -2.484375 0.578125q-0.9375 0.140625 -1.328125 0.3125q-0.390625 0.171875 -0.609375 0.5q-0.203125 0.3125 -0.203125 0.71875q0 0.609375 0.453125 1.015625q0.46875 0.40625 1.359375 0.40625q0.875 0 1.5625 -0.390625q0.6875 -0.390625 1.015625 -1.046875q0.234375 -0.515625 0.234375 -1.53125l0 -0.5625zm8.107651 1.828125l1.515625 -0.234375q0.125 0.90625 0.703125 1.390625q0.578125 0.484375 1.609375 0.484375q1.0625 0 1.5625 -0.421875q0.515625 -0.4375 0.515625 -1.015625q0 -0.515625 -0.453125 -0.8125q-0.3125 -0.203125 -1.5625 -0.515625q-1.671875 -0.421875 -2.328125 -0.71875q-0.640625 -0.3125 -0.984375 -0.859375q-0.328125 -0.546875 -0.328125 -1.203125q0 -0.609375 0.28125 -1.109375q0.28125 -0.515625 0.75 -0.859375q0.359375 -0.265625 0.96875 -0.4375q0.609375 -0.1875 1.3125 -0.1875q1.0625 0 1.859375 0.3125q0.796875 0.296875 1.171875 0.828125q0.390625 0.515625 0.53125 1.375l-1.484375 0.203125q-0.109375 -0.6875 -0.59375 -1.078125q-0.484375 -0.390625 -1.375 -0.390625q-1.046875 0 -1.5 0.34375q-0.4375 0.34375 -0.4375 0.8125q0 0.296875 0.171875 0.53125q0.1875 0.25 0.59375 0.40625q0.21875 0.09375 1.34375 0.390625q1.609375 0.4375 2.25 0.71875q0.640625 0.265625 1.0 0.796875q0.375 0.515625 0.375 1.296875q0 0.765625 -0.453125 1.4375q-0.4375 0.671875 -1.28125 1.046875q-0.828125 0.359375 -1.890625 0.359375q-1.75 0 -2.671875 -0.71875q-0.921875 -0.734375 -1.171875 -2.171875zm9.2734375 2.6875l0 -12.40625l1.53125 0l0 4.453125q1.0625 -1.234375 2.6875 -1.234375q1.0 0 1.734375 0.390625q0.734375 0.390625 1.046875 1.09375q0.328125 0.6875 0.328125 2.015625l0 5.6875l-1.53125 0l0 -5.6875q0 -1.15625 -0.5 -1.671875q-0.484375 -0.515625 -1.390625 -0.515625q-0.6875 0 -1.28125 0.359375q-0.59375 0.34375 -0.84375 0.953125q-0.25 0.59375 -0.25 1.640625l0 4.921875l-1.53125 0zm9.074585 -4.5q0 -2.484375 1.390625 -3.6875q1.15625 -1.0 2.8125 -1.0q1.859375 0 3.03125 1.21875q1.1875 1.203125 1.1875 3.34375q0 1.734375 -0.53125 2.734375q-0.515625 1.0 -1.515625 1.546875q-0.984375 0.546875 -2.171875 0.546875q-1.875 0 -3.046875 -1.203125q-1.15625 -1.21875 -1.15625 -3.5zm1.5625 0q0 1.734375 0.75 2.59375q0.75 0.859375 1.890625 0.859375q1.140625 0 1.890625 -0.859375q0.75 -0.875 0.75 -2.640625q0 -1.65625 -0.75 -2.515625q-0.75 -0.859375 -1.890625 -0.859375q-1.140625 0 -1.890625 0.859375q-0.75 0.84375 -0.75 2.5625zm8.62146 4.5l0 -8.984375l1.375 0l0 1.359375q0.515625 -0.953125 0.953125 -1.25q0.453125 -0.3125 0.984375 -0.3125q0.78125 0 1.5625 0.484375l-0.515625 1.421875q-0.5625 -0.328125 -1.125 -0.328125q-0.5 0 -0.890625 0.296875q-0.390625 0.296875 -0.5625 0.828125q-0.265625 0.8125 -0.265625 1.78125l0 4.703125l-1.515625 0zm9.114151 -1.359375l0.21875 1.34375q-0.640625 0.140625 -1.15625 0.140625q-0.828125 0 -1.28125 -0.265625q-0.453125 -0.265625 -0.640625 -0.6875q-0.1875 -0.4375 -0.1875 -1.796875l0 -5.171875l-1.125 0l0 -1.1875l1.125 0l0 -2.21875l1.515625 -0.921875l0 3.140625l1.53125 0l0 1.1875l-1.53125 0l0 5.25q0 0.65625 0.078125 0.84375q0.078125 0.1875 0.25 0.296875q0.1875 0.109375 0.53125 0.109375q0.25 0 0.671875 -0.0625zm12.128632 1.359375l0 -1.140625q-0.84375 1.34375 -2.515625 1.34375q-1.0625 0 -1.96875 -0.59375q-0.90625 -0.59375 -1.40625 -1.65625q-0.484375 -1.0625 -0.484375 -2.4375q0 -1.34375 0.4375 -2.4375q0.453125 -1.09375 1.34375 -1.671875q0.90625 -0.59375 2.015625 -0.59375q0.8125 0 1.4375 0.34375q0.640625 0.34375 1.046875 0.890625l0 -4.453125l1.515625 0l0 12.40625l-1.421875 0zm-4.8125 -4.484375q0 1.71875 0.71875 2.578125q0.734375 0.859375 1.734375 0.859375q0.984375 0 1.6875 -0.8125q0.703125 -0.828125 0.703125 -2.5q0 -1.84375 -0.71875 -2.703125q-0.703125 -0.859375 -1.75 -0.859375q-1.015625 0 -1.703125 0.828125q-0.671875 0.828125 -0.671875 2.609375zm14.77771 1.59375l1.5625 0.1875q-0.359375 1.390625 -1.375 2.15625q-1.0 0.75 -2.5625 0.75q-1.984375 0 -3.140625 -1.203125q-1.140625 -1.21875 -1.140625 -3.421875q0 -2.265625 1.15625 -3.515625q1.171875 -1.25 3.03125 -1.25q1.8125 0 2.953125 1.234375q1.140625 1.21875 1.140625 3.4375q0 0.140625 -0.015625 0.40625l-6.703125 0q0.09375 1.484375 0.84375 2.28125q0.75 0.78125 1.875 0.78125q0.84375 0 1.4375 -0.4375q0.59375 -0.4375 0.9375 -1.40625zm-5.0 -2.46875l5.015625 0q-0.109375 -1.125 -0.578125 -1.703125q-0.734375 -0.875 -1.890625 -0.875q-1.046875 0 -1.765625 0.703125q-0.703125 0.703125 -0.78125 1.875zm8.480835 5.359375l0 -8.984375l1.359375 0l0 1.265625q0.421875 -0.671875 1.125 -1.0625q0.703125 -0.40625 1.609375 -0.40625q1.0 0 1.625 0.421875q0.640625 0.40625 0.90625 1.15625q1.0625 -1.578125 2.78125 -1.578125q1.328125 0 2.046875 0.75q0.71875 0.734375 0.71875 2.265625l0 6.171875l-1.515625 0l0 -5.65625q0 -0.921875 -0.15625 -1.3125q-0.140625 -0.40625 -0.53125 -0.65625q-0.375 -0.25 -0.90625 -0.25q-0.953125 0 -1.578125 0.640625q-0.625 0.625 -0.625 2.015625l0 5.21875l-1.515625 0l0 -5.84375q0 -1.015625 -0.375 -1.515625q-0.375 -0.515625 -1.21875 -0.515625q-0.640625 0 -1.1875 0.34375q-0.546875 0.34375 -0.796875 1.0q-0.234375 0.640625 -0.234375 1.875l0 4.65625l-1.53125 0zm13.8719635 -4.5q0 -2.484375 1.390625 -3.6875q1.15625 -1.0 2.8125 -1.0q1.859375 0 3.03125 1.21875q1.1875 1.203125 1.1875 3.34375q0 1.734375 -0.53125 2.734375q-0.515625 1.0 -1.515625 1.546875q-0.984375 0.546875 -2.171875 0.546875q-1.875 0 -3.046875 -1.203125q-1.15625 -1.21875 -1.15625 -3.5zm1.5625 0q0 1.734375 0.75 2.59375q0.75 0.859375 1.890625 0.859375q1.140625 0 1.890625 -0.859375q0.75 -0.875 0.75 -2.640625q0 -1.65625 -0.75 -2.515625q-0.75 -0.859375 -1.890625 -0.859375q-1.140625 0 -1.890625 0.859375q-0.75 0.84375 -0.75 2.5625zm9.074585 4.5l0 -1.734375l1.7343597 0l0 1.734375l-1.7343597 0z" fill-rule="nonzero"/><path fill="#d9d9d9" d="m73.327225 136.87927l583.3701 0l0 324.56693l-583.3701 0z" fill-rule="evenodd"/><path fill="#f6b26b" d="m16.374466 310.56693l12.086615 0l0 -67.480316l24.173227 0l0 67.480316l12.0866165 0l-24.17323 24.173218z" fill-rule="evenodd"/><path fill="#000000" fill-opacity="0.0" d="m19.032358 313.007l0 -63.43306l42.015747 0l0 63.43306z" fill-rule="evenodd"/><path fill="#ffffff" d="m43.061733 303.42886l-0.25 -1.625q0.96875 -0.125 1.5 -0.75q0.515625 -0.625 0.515625 -1.75q0 -1.125 -0.453125 -1.671875q-0.46875 -0.546875 -1.09375 -0.546875q-0.546875 0 -0.875 0.484375q-0.21875 0.328125 -0.546875 1.671875q-0.46875 1.8125 -0.796875 2.515625q-0.328125 0.6875 -0.90625 1.046875q-0.59375 0.359375 -1.3125 0.359375q-0.640625 0 -1.1875 -0.296875q-0.5625 -0.296875 -0.921875 -0.8125q-0.28125 -0.375 -0.46875 -1.03125q-0.203125 -0.671875 -0.203125 -1.421875q0 -1.140625 0.328125 -2.0q0.328125 -0.859375 0.890625 -1.265625q0.5625 -0.421875 1.5 -0.578125l0.21875 1.609375q-0.75 0.109375 -1.171875 0.640625q-0.421875 0.515625 -0.421875 1.46875q0 1.140625 0.375 1.625q0.375 0.46875 0.875 0.46875q0.3125 0 0.578125 -0.1875q0.265625 -0.203125 0.4375 -0.640625q0.09375 -0.234375 0.421875 -1.4375q0.453125 -1.75 0.75 -2.4375q0.296875 -0.6875 0.859375 -1.078125q0.5625 -0.390625 1.40625 -0.390625q0.828125 0 1.546875 0.484375q0.71875 0.46875 1.125 1.375q0.390625 0.90625 0.390625 2.046875q0 1.875 -0.78125 2.875q-0.78125 0.984375 -2.328125 1.25zm-0.65625 -16.296875l0.21875 -1.609375q1.65625 0.265625 2.609375 1.359375q0.9375 1.078125 0.9375 2.671875q0 1.984375 -1.296875 3.1875q-1.296875 1.203125 -3.71875 1.203125q-1.578125 0 -2.75 -0.515625q-1.171875 -0.515625 -1.75 -1.578125q-0.59375 -1.0625 -0.59375 -2.3125q0 -1.578125 0.796875 -2.578125q0.796875 -1.0 2.265625 -1.28125l0.234375 1.59375q-0.96875 0.234375 -1.453125 0.8125q-0.5 0.578125 -0.5 1.390625q0 1.234375 0.890625 2.015625q0.890625 0.78125 2.8125 0.78125q1.953125 0 2.84375 -0.75q0.875 -0.75 0.875 -1.953125q0 -0.96875 -0.59375 -1.609375q-0.59375 -0.65625 -1.828125 -0.828125zm3.546875 -3.0l-9.671875 0l0 -1.46875l1.46875 0q-1.03125 -0.5625 -1.359375 -1.03125q-0.328125 -0.484375 -0.328125 -1.0625q0 -0.828125 0.53125 -1.6875l1.515625 0.5625q-0.359375 0.609375 -0.359375 1.203125q0 0.546875 0.328125 0.96875q0.328125 0.421875 0.890625 0.609375q0.875 0.28125 1.921875 0.28125l5.0625 0l0 1.625zm-4.84375 -5.618927q-2.6875 0 -3.96875 -1.484375q-1.078125 -1.25 -1.078125 -3.046875q0 -2.0 1.3125 -3.265625q1.296875 -1.265625 3.609375 -1.265625q1.859375 0 2.9375 0.5625q1.0625 0.5625 1.65625 1.640625q0.59375 1.0625 0.59375 2.328125q0 2.03125 -1.296875 3.28125q-1.3125 1.25 -3.765625 1.25zm0 -1.6875q1.859375 0 2.796875 -0.796875q0.921875 -0.8125 0.921875 -2.046875q0 -1.21875 -0.921875 -2.03125q-0.9375 -0.8125 -2.84375 -0.8125q-1.796875 0 -2.71875 0.8125q-0.921875 0.8125 -0.921875 2.03125q0 1.234375 0.921875 2.046875q0.90625 0.796875 2.765625 0.796875zm4.84375 -9.250702l-13.359375 0l0 -1.640625l13.359375 0l0 1.640625zm0 -4.1448364l-13.359375 0l0 -1.640625l13.359375 0l0 1.640625z" fill-rule="nonzero"/><path fill="#87d2e9" d="m74.88628 150.52408l0 0c0 -7.108673 5.7627106 -12.871384 12.871376 -12.871384l273.43835 0c3.4136963 0 6.687561 1.3560944 9.10144 3.7699432c2.4138489 2.4138489 3.769928 5.687729 3.769928 9.10144l0 135.39111c0 7.1086426 -5.762726 12.871368 -12.871368 12.871368l-273.43835 0c-7.1086655 0 -12.871376 -5.762726 -12.871376 -12.871368z" fill-rule="evenodd"/><path fill="#90ee8f" d="m74.88628 315.19424l0 0c0 -8.221954 6.665207 -14.887146 14.887161 -14.887146l269.4068 0c3.9483032 0 7.7349243 1.5684509 10.526794 4.360321c2.79187 2.7919006 4.3603516 6.578491 4.3603516 10.526825l0 131.35956c0 8.221924 -6.665222 14.887146 -14.887146 14.887146l-269.4068 0c-8.221954 0 -14.887161 -6.665222 -14.887161 -14.887146z" fill-rule="evenodd"/><path fill="#000000" fill-opacity="0.0" d="m78.08223 202.24759l292.7874 0l0 40.40944l-292.7874 0z" fill-rule="evenodd"/><path fill="#000000" d="m88.691605 227.88759l0 -12.40625l1.640625 0l0 12.40625l-1.640625 0zm4.345566 0l0 -8.984375l1.375 0l0 1.28125q0.984375 -1.484375 2.859375 -1.484375q0.8125 0 1.484375 0.296875q0.6875 0.28125 1.015625 0.765625q0.34375 0.46875 0.484375 1.125q0.078125 0.421875 0.078125 1.46875l0 5.53125l-1.515625 0l0 -5.46875q0 -0.921875 -0.1875 -1.375q-0.171875 -0.46875 -0.625 -0.75q-0.453125 -0.28125 -1.0625 -0.28125q-0.96875 0 -1.671875 0.625q-0.703125 0.609375 -0.703125 2.34375l0 4.90625l-1.53125 0zm12.96521 -1.359375l0.21875 1.34375q-0.640625 0.140625 -1.15625 0.140625q-0.828125 0 -1.28125 -0.265625q-0.453125 -0.265625 -0.640625 -0.6875q-0.1875 -0.4375 -0.1875 -1.796875l0 -5.171875l-1.125 0l0 -1.1875l1.125 0l0 -2.21875l1.515625 -0.921875l0 3.140625l1.53125 0l0 1.1875l-1.53125 0l0 5.25q0 0.65625 0.078125 0.84375q0.078125 0.1875 0.25 0.296875q0.1875 0.109375 0.53125 0.109375q0.25 0 0.671875 -0.0625zm1.4705658 1.359375l0 -8.984375l1.375 0l0 1.359375q0.515625 -0.953125 0.953125 -1.25q0.453125 -0.3125 0.984375 -0.3125q0.78125 0 1.5625 0.484375l-0.515625 1.421875q-0.5625 -0.328125 -1.125 -0.328125q-0.5 0 -0.890625 0.296875q-0.390625 0.296875 -0.5625 0.828125q-0.265625 0.8125 -0.265625 1.78125l0 4.703125l-1.515625 0zm5.223526 -4.5q0 -2.484375 1.390625 -3.6875q1.15625 -1.0 2.8125 -1.0q1.859375 0 3.03125 1.21875q1.1875 1.203125 1.1875 3.34375q0 1.734375 -0.53125 2.734375q-0.515625 1.0 -1.515625 1.546875q-0.984375 0.546875 -2.171875 0.546875q-1.875 0 -3.046875 -1.203125q-1.15625 -1.21875 -1.15625 -3.5zm1.5625 0q0 1.734375 0.75 2.59375q0.75 0.859375 1.890625 0.859375q1.140625 0 1.890625 -0.859375q0.75 -0.875 0.75 -2.640625q0 -1.65625 -0.75 -2.515625q-0.75 -0.859375 -1.890625 -0.859375q-1.140625 0 -1.890625 0.859375q-0.75 0.84375 -0.75 2.5625zm14.46521 4.5l0 -1.140625q-0.84375 1.34375 -2.515625 1.34375q-1.0625 0 -1.96875 -0.59375q-0.90625 -0.59375 -1.40625 -1.65625q-0.484375 -1.0625 -0.484375 -2.4375q0 -1.34375 0.4375 -2.4375q0.453125 -1.09375 1.34375 -1.671875q0.90625 -0.59375 2.015625 -0.59375q0.8125 0 1.4375 0.34375q0.640625 0.34375 1.046875 0.890625l0 -4.453125l1.515625 0l0 12.40625l-1.421875 0zm-4.8125 -4.484375q0 1.71875 0.71875 2.578125q0.734375 0.859375 1.734375 0.859375q0.984375 0 1.6875 -0.8125q0.703125 -0.828125 0.703125 -2.5q0 -1.84375 -0.71875 -2.703125q-0.703125 -0.859375 -1.75 -0.859375q-1.015625 0 -1.703125 0.828125q-0.671875 0.828125 -0.671875 2.609375zm14.512085 4.484375l0 -1.3125q-1.046875 1.515625 -2.84375 1.515625q-0.796875 0 -1.5 -0.296875q-0.6875 -0.3125 -1.015625 -0.765625q-0.328125 -0.46875 -0.46875 -1.140625q-0.09375 -0.4375 -0.09375 -1.421875l0 -5.5625l1.515625 0l0 4.984375q0 1.1875 0.09375 1.609375q0.15625 0.59375 0.609375 0.9375q0.46875 0.34375 1.15625 0.34375q0.6875 0 1.28125 -0.34375q0.609375 -0.359375 0.859375 -0.953125q0.25 -0.609375 0.25 -1.765625l0 -4.8125l1.515625 0l0 8.984375l-1.359375 0zm9.605835 -3.296875l1.5 0.203125q-0.234375 1.546875 -1.25 2.421875q-1.015625 0.875 -2.484375 0.875q-1.84375 0 -2.96875 -1.203125q-1.125 -1.203125 -1.125 -3.453125q0 -1.46875 0.484375 -2.546875q0.484375 -1.09375 1.46875 -1.640625q0.984375 -0.546875 2.140625 -0.546875q1.46875 0 2.390625 0.75q0.9375 0.734375 1.203125 2.09375l-1.484375 0.21875q-0.203125 -0.890625 -0.75 -1.34375q-0.53125 -0.46875 -1.296875 -0.46875q-1.140625 0 -1.875 0.828125q-0.71875 0.828125 -0.71875 2.609375q0 1.8125 0.6875 2.640625q0.703125 0.8125 1.828125 0.8125q0.890625 0 1.484375 -0.546875q0.609375 -0.5625 0.765625 -1.703125zm6.1328125 1.9375l0.21875 1.34375q-0.640625 0.140625 -1.15625 0.140625q-0.828125 0 -1.28125 -0.265625q-0.453125 -0.265625 -0.640625 -0.6875q-0.1875 -0.4375 -0.1875 -1.796875l0 -5.171875l-1.125 0l0 -1.1875l1.125 0l0 -2.21875l1.515625 -0.921875l0 3.140625l1.53125 0l0 1.1875l-1.53125 0l0 5.25q0 0.65625 0.078125 0.84375q0.078125 0.1875 0.25 0.296875q0.1875 0.109375 0.53125 0.109375q0.25 0 0.671875 -0.0625zm0.9236908 -3.140625q0 -2.484375 1.390625 -3.6875q1.15625 -1.0 2.8125 -1.0q1.859375 0 3.03125 1.21875q1.1875 1.203125 1.1875 3.34375q0 1.734375 -0.53125 2.734375q-0.515625 1.0 -1.515625 1.546875q-0.984375 0.546875 -2.171875 0.546875q-1.875 0 -3.046875 -1.203125q-1.15625 -1.21875 -1.15625 -3.5zm1.5625 0q0 1.734375 0.75 2.59375q0.75 0.859375 1.890625 0.859375q1.140625 0 1.890625 -0.859375q0.75 -0.875 0.75 -2.640625q0 -1.65625 -0.75 -2.515625q-0.75 -0.859375 -1.890625 -0.859375q-1.140625 0 -1.890625 0.859375q-0.75 0.84375 -0.75 2.5625zm8.62146 4.5l0 -8.984375l1.375 0l0 1.359375q0.515625 -0.953125 0.953125 -1.25q0.453125 -0.3125 0.984375 -0.3125q0.78125 0 1.5625 0.484375l-0.515625 1.421875q-0.5625 -0.328125 -1.125 -0.328125q-0.5 0 -0.890625 0.296875q-0.390625 0.296875 -0.5625 0.828125q-0.265625 0.8125 -0.265625 1.78125l0 4.703125l-1.515625 0zm5.723526 3.453125l-0.171875 -1.421875q0.5 0.140625 0.875 0.140625q0.5 0 0.796875 -0.171875q0.3125 -0.171875 0.515625 -0.484375q0.140625 -0.21875 0.453125 -1.125q0.046875 -0.125 0.140625 -0.375l-3.40625 -9.0l1.640625 0l1.875 5.203125q0.359375 0.984375 0.640625 2.078125q0.265625 -1.046875 0.625 -2.046875l1.921875 -5.234375l1.53125 0l-3.421875 9.140625q-0.546875 1.484375 -0.859375 2.03125q-0.40625 0.75 -0.9375 1.09375q-0.515625 0.359375 -1.234375 0.359375q-0.453125 0 -0.984375 -0.1875zm16.869003 -4.8125l0.21875 1.34375q-0.640625 0.140625 -1.15625 0.140625q-0.828125 0 -1.28125 -0.265625q-0.453125 -0.265625 -0.640625 -0.6875q-0.1875 -0.4375 -0.1875 -1.796875l0 -5.171875l-1.125 0l0 -1.1875l1.125 0l0 -2.21875l1.515625 -0.921875l0 3.140625l1.53125 0l0 1.1875l-1.53125 0l0 5.25q0 0.65625 0.078125 0.84375q0.078125 0.1875 0.25 0.296875q0.1875 0.109375 0.53125 0.109375q0.25 0 0.671875 -0.0625zm7.642441 -1.53125l1.5625 0.1875q-0.359375 1.390625 -1.375 2.15625q-1.0 0.75 -2.5625 0.75q-1.984375 0 -3.140625 -1.203125q-1.140625 -1.21875 -1.140625 -3.421875q0 -2.265625 1.15625 -3.515625q1.171875 -1.25 3.03125 -1.25q1.8125 0 2.953125 1.234375q1.140625 1.21875 1.140625 3.4375q0 0.140625 -0.015625 0.40625l-6.703125 0q0.09375 1.484375 0.84375 2.28125q0.75 0.78125 1.875 0.78125q0.84375 0 1.4375 -0.4375q0.59375 -0.4375 0.9375 -1.40625zm-5.0 -2.46875l5.015625 0q-0.109375 -1.125 -0.578125 -1.703125q-0.734375 -0.875 -1.890625 -0.875q-1.046875 0 -1.765625 0.703125q-0.703125 0.703125 -0.78125 1.875zm7.46521 5.359375l3.28125 -4.671875l-3.03125 -4.3125l1.90625 0l1.375 2.109375q0.390625 0.59375 0.625 1.0q0.375 -0.5625 0.6875 -0.984375l1.515625 -2.125l1.8125 0l-3.109375 4.234375l3.34375 4.75l-1.859375 0l-1.84375 -2.796875l-0.5 -0.75l-2.359375 3.546875l-1.84375 0zm13.0078125 -1.359375l0.21875 1.34375q-0.640625 0.140625 -1.15625 0.140625q-0.828125 0 -1.28125 -0.265625q-0.453125 -0.265625 -0.640625 -0.6875q-0.1875 -0.4375 -0.1875 -1.796875l0 -5.171875l-1.125 0l0 -1.1875l1.125 0l0 -2.21875l1.515625 -0.921875l0 3.140625l1.53125 0l0 1.1875l-1.53125 0l0 5.25q0 0.65625 0.078125 0.84375q0.078125 0.1875 0.25 0.296875q0.1875 0.109375 0.53125 0.109375q0.25 0 0.671875 -0.0625zm7.9567566 1.359375l-2.75 -8.984375l1.578125 0l1.421875 5.1875l0.546875 1.921875q0.03125 -0.140625 0.453125 -1.84375l1.4375 -5.265625l1.5625 0l1.34375 5.203125l0.453125 1.71875l0.515625 -1.734375l1.53125 -5.1875l1.484375 0l-2.8125 8.984375l-1.578125 0l-1.421875 -5.375l-0.359375 -1.53125l-1.8125 6.90625l-1.59375 0zm10.873199 -10.65625l0 -1.75l1.515625 0l0 1.75l-1.515625 0zm0 10.65625l0 -8.984375l1.515625 0l0 8.984375l-1.515625 0zm7.162262 -1.359375l0.21875 1.34375q-0.640625 0.140625 -1.15625 0.140625q-0.828125 0 -1.28125 -0.265625q-0.453125 -0.265625 -0.640625 -0.6875q-0.1875 -0.4375 -0.1875 -1.796875l0 -5.171875l-1.125 0l0 -1.1875l1.125 0l0 -2.21875l1.515625 -0.921875l0 3.140625l1.53125 0l0 1.1875l-1.53125 0l0 5.25q0 0.65625 0.078125 0.84375q0.078125 0.1875 0.25 0.296875q0.1875 0.109375 0.53125 0.109375q0.25 0 0.671875 -0.0625zm1.4861908 1.359375l0 -12.40625l1.53125 0l0 4.453125q1.0625 -1.234375 2.6875 -1.234375q1.0 0 1.734375 0.390625q0.734375 0.390625 1.046875 1.09375q0.328125 0.6875 0.328125 2.015625l0 5.6875l-1.53125 0l0 -5.6875q0 -1.15625 -0.5 -1.671875q-0.484375 -0.515625 -1.390625 -0.515625q-0.6875 0 -1.28125 0.359375q-0.59375 0.34375 -0.84375 0.953125q-0.25 0.59375 -0.25 1.640625l0 4.921875l-1.53125 0zm14.451401 0l0 -8.984375l1.375 0l0 1.28125q0.984375 -1.484375 2.859375 -1.484375q0.8125 0 1.484375 0.296875q0.6875 0.28125 1.015625 0.765625q0.34375 0.46875 0.484375 1.125q0.078125 0.421875 0.078125 1.46875l0 5.53125l-1.515625 0l0 -5.46875q0 -0.921875 -0.1875 -1.375q-0.171875 -0.46875 -0.625 -0.75q-0.453125 -0.28125 -1.0625 -0.28125q-0.96875 0 -1.671875 0.625q-0.703125 0.609375 -0.703125 2.34375l0 4.90625l-1.53125 0zm9.074585 -4.5q0 -2.484375 1.390625 -3.6875q1.15625 -1.0 2.8125 -1.0q1.859375 0 3.03125 1.21875q1.1875 1.203125 1.1875 3.34375q0 1.734375 -0.53125 2.734375q-0.515625 1.0 -1.515625 1.546875q-0.984375 0.546875 -2.171875 0.546875q-1.875 0 -3.046875 -1.203125q-1.15625 -1.21875 -1.15625 -3.5zm1.5625 0q0 1.734375 0.75 2.59375q0.75 0.859375 1.890625 0.859375q1.140625 0 1.890625 -0.859375q0.75 -0.875 0.75 -2.640625q0 -1.65625 -0.75 -2.515625q-0.75 -0.859375 -1.890625 -0.859375q-1.140625 0 -1.890625 0.859375q-0.75 0.84375 -0.75 2.5625zm16.77951 3.140625l0.21875 1.34375q-0.640625 0.140625 -1.15625 0.140625q-0.828125 0 -1.28125 -0.265625q-0.453125 -0.265625 -0.640625 -0.6875q-0.1875 -0.4375 -0.1875 -1.796875l0 -5.171875l-1.125 0l0 -1.1875l1.125 0l0 -2.21875l1.515625 -0.921875l0 3.140625l1.53125 0l0 1.1875l-1.53125 0l0 5.25q0 0.65625 0.078125 0.84375q0.078125 0.1875 0.25 0.296875q0.1875 0.109375 0.53125 0.109375q0.25 0 0.671875 -0.0625zm1.470581 1.359375l0 -8.984375l1.375 0l0 1.359375q0.515625 -0.953125 0.953125 -1.25q0.453125 -0.3125 0.984375 -0.3125q0.78125 0 1.5625 0.484375l-0.515625 1.421875q-0.5625 -0.328125 -1.125 -0.328125q-0.5 0 -0.890625 0.296875q-0.390625 0.296875 -0.5625 0.828125q-0.265625 0.8125 -0.265625 1.78125l0 4.703125l-1.515625 0zm5.8016357 -10.65625l0 -1.75l1.515625 0l0 1.75l-1.515625 0zm0 10.65625l0 -8.984375l1.515625 0l0 8.984375l-1.515625 0zm3.552887 0.75l1.484375 0.21875q0.09375 0.6875 0.515625 1.0q0.5625 0.421875 1.546875 0.421875q1.0625 0 1.625 -0.421875q0.578125 -0.421875 0.78125 -1.1875q0.125 -0.46875 0.109375 -1.953125q-0.984375 1.171875 -2.484375 1.171875q-1.84375 0 -2.859375 -1.328125q-1.015625 -1.34375 -1.015625 -3.21875q0 -1.28125 0.453125 -2.359375q0.46875 -1.09375 1.34375 -1.6875q0.890625 -0.59375 2.09375 -0.59375q1.59375 0 2.625 1.28125l0 -1.078125l1.40625 0l0 7.765625q0 2.09375 -0.4375 2.96875q-0.421875 0.875 -1.359375 1.375q-0.921875 0.515625 -2.265625 0.515625q-1.609375 0 -2.609375 -0.71875q-0.984375 -0.71875 -0.953125 -2.171875zm1.265625 -5.40625q0 1.765625 0.703125 2.578125q0.703125 0.8125 1.75 0.8125q1.0625 0 1.765625 -0.796875q0.71875 -0.8125 0.71875 -2.546875q0 -1.640625 -0.734375 -2.46875q-0.734375 -0.84375 -1.765625 -0.84375q-1.015625 0 -1.734375 0.828125q-0.703125 0.8125 -0.703125 2.4375zm8.37146 5.40625l1.484375 0.21875q0.09375 0.6875 0.515625 1.0q0.5625 0.421875 1.546875 0.421875q1.0625 0 1.625 -0.421875q0.578125 -0.421875 0.78125 -1.1875q0.125 -0.46875 0.109375 -1.953125q-0.984375 1.171875 -2.484375 1.171875q-1.84375 0 -2.859375 -1.328125q-1.015625 -1.34375 -1.015625 -3.21875q0 -1.28125 0.453125 -2.359375q0.46875 -1.09375 1.34375 -1.6875q0.890625 -0.59375 2.09375 -0.59375q1.59375 0 2.625 1.28125l0 -1.078125l1.40625 0l0 7.765625q0 2.09375 -0.4375 2.96875q-0.421875 0.875 -1.359375 1.375q-0.921875 0.515625 -2.265625 0.515625q-1.609375 0 -2.609375 -0.71875q-0.984375 -0.71875 -0.953125 -2.171875zm1.265625 -5.40625q0 1.765625 0.703125 2.578125q0.703125 0.8125 1.75 0.8125q1.0625 0 1.765625 -0.796875q0.71875 -0.8125 0.71875 -2.546875q0 -1.640625 -0.734375 -2.46875q-0.734375 -0.84375 -1.765625 -0.84375q-1.015625 0 -1.734375 0.828125q-0.703125 0.8125 -0.703125 2.4375zm14.80896 1.765625l1.5625 0.1875q-0.359375 1.390625 -1.375 2.15625q-1.0 0.75 -2.5625 0.75q-1.984375 0 -3.140625 -1.203125q-1.140625 -1.21875 -1.140625 -3.421875q0 -2.265625 1.15625 -3.515625q1.171875 -1.25 3.03125 -1.25q1.8125 0 2.953125 1.234375q1.140625 1.21875 1.140625 3.4375q0 0.140625 -0.015625 0.40625l-6.703125 0q0.09375 1.484375 0.84375 2.28125q0.75 0.78125 1.875 0.78125q0.84375 0 1.4375 -0.4375q0.59375 -0.4375 0.9375 -1.40625zm-5.0 -2.46875l5.015625 0q-0.109375 -1.125 -0.578125 -1.703125q-0.734375 -0.875 -1.890625 -0.875q-1.046875 0 -1.765625 0.703125q-0.703125 0.703125 -0.78125 1.875zm8.46521 5.359375l0 -8.984375l1.375 0l0 1.359375q0.515625 -0.953125 0.953125 -1.25q0.453125 -0.3125 0.984375 -0.3125q0.78125 0 1.5625 0.484375l-0.515625 1.421875q-0.5625 -0.328125 -1.125 -0.328125q-0.5 0 -0.890625 0.296875q-0.390625 0.296875 -0.5625 0.828125q-0.265625 0.8125 -0.265625 1.78125l0 4.703125l-1.515625 0z" fill-rule="nonzero"/><path fill="#000000" fill-opacity="0.0" d="m394.4506 324.26248l161.5748 0l0 109.88974l-161.5748 0z" fill-rule="evenodd"/><path fill="#000000" d="m414.40372 338.8387l0.109375 3.171875l-0.453125 0q-0.03125 -0.15625 -0.09375 -0.421875q-0.0625 -0.28125 -0.109375 -0.40625q-0.09375 -0.28125 -0.203125 -0.5625q-0.109375 -0.28125 -0.375 -0.5q-0.25 -0.21875 -0.75 -0.359375q-0.484375 -0.140625 -1.3125 -0.140625l-1.125 0l0 9.609375q0 0.90625 0.328125 1.25q0.328125 0.34375 1.203125 0.34375l0.265625 0l0 0.359375l-5.453125 0l0 -0.359375l0.40625 -0.046875q0.421875 -0.0625 0.6875 -0.140625q0.265625 -0.09375 0.40625 -0.25q0.140625 -0.15625 0.1875 -0.40625q0.0625 -0.25 0.0625 -0.640625l0 -9.71875l-0.609375 0q-0.78125 0 -1.3125 0.046875q-0.53125 0.046875 -0.90625 0.21875q-0.359375 0.15625 -0.59375 0.5q-0.21875 0.34375 -0.375 0.953125l-0.171875 0.671875l-0.453125 0l0.109375 -3.171875l10.53125 0zm3.3677063 -0.34375l0 5.640625l0.046875 0q0.625 -0.84375 1.234375 -1.1875q0.625 -0.34375 1.46875 -0.34375q1.140625 0 1.71875 0.734375q0.578125 0.734375 0.578125 2.140625l0 3.90625q0 0.375 0.015625 0.625q0.03125 0.25 0.125 0.421875q0.09375 0.171875 0.25 0.265625q0.171875 0.09375 0.453125 0.15625l0.265625 0.046875l0 0.28125l-3.953125 0l0 -0.28125l0.265625 -0.03125q0.65625 -0.09375 0.828125 -0.421875q0.1875 -0.328125 0.1875 -1.078125l0 -3.859375q0 -0.890625 -0.359375 -1.390625q-0.34375 -0.515625 -1.046875 -0.515625q-0.546875 0 -1.015625 0.265625q-0.453125 0.265625 -1.0625 0.90625l0 4.59375q0 0.78125 0.1875 1.09375q0.1875 0.3125 0.765625 0.390625q0.1875 0.03125 0.328125 0.03125l0 0.296875l-4.03125 0l0 -0.28125q0.109375 -0.015625 0.203125 -0.03125q0.09375 -0.015625 0.1875 -0.046875q0.5625 -0.109375 0.671875 -0.4375q0.125 -0.328125 0.125 -1.0l0 -8.875q0 -0.171875 -0.015625 -0.34375q0 -0.171875 -0.0625 -0.3125q-0.0625 -0.140625 -0.21875 -0.21875q-0.140625 -0.09375 -0.40625 -0.09375q-0.015625 0 -0.140625 0q-0.125 0 -0.328125 0.015625l0 -0.296875q0.359375 -0.125 0.6875 -0.21875q0.34375 -0.09375 0.65625 -0.171875q0.3125 -0.09375 0.625 -0.1875q0.328125 -0.09375 0.65625 -0.25l0.109375 0.0625zm8.15625 7.515625q0.09375 1.3125 0.40625 2.109375q0.328125 0.78125 0.765625 1.21875q0.4375 0.4375 0.921875 0.59375q0.484375 0.15625 0.890625 0.15625q0.875 0 1.53125 -0.453125q0.671875 -0.453125 1.34375 -1.515625l0.296875 0.140625q-0.59375 1.515625 -1.609375 2.3125q-1.0 0.796875 -2.34375 0.796875q-1.640625 0 -2.5625 -1.125q-0.921875 -1.140625 -0.921875 -3.0625q0 -1.015625 0.28125 -1.859375q0.296875 -0.84375 0.8125 -1.4375q0.515625 -0.609375 1.21875 -0.9375q0.703125 -0.34375 1.5625 -0.34375q0.5 0 1.0 0.140625q0.5 0.140625 0.90625 0.453125q0.421875 0.296875 0.734375 0.78125q0.3125 0.484375 0.4375 1.171875q0.046875 0.1875 0.078125 0.453125q0.03125 0.25 0.0625 0.40625l-5.8125 0zm3.90625 -0.59375q-0.109375 -1.0625 -0.515625 -1.59375q-0.40625 -0.546875 -1.296875 -0.546875q-0.390625 0 -0.71875 0.09375q-0.3125 0.09375 -0.5625 0.34375q-0.25 0.234375 -0.4375 0.65625q-0.1875 0.40625 -0.3125 1.046875l3.84375 0zm15.150574 -2.8125l0.0625 0.078125l0 11.109375q0 0.484375 0.171875 0.75q0.171875 0.265625 0.859375 0.390625l0.15625 0.03125l0 0.265625l-4.40625 0l0 -0.3125l0.203125 0q0.875 0 1.15625 -0.34375q0.296875 -0.34375 0.296875 -1.046875l0 -3.5l-0.09375 0q-0.21875 0.3125 -0.546875 0.5625q-0.328125 0.234375 -0.703125 0.421875q-0.375 0.171875 -0.78125 0.265625q-0.390625 0.09375 -0.75 0.09375q-0.671875 0 -1.234375 -0.296875q-0.546875 -0.296875 -0.953125 -0.84375q-0.40625 -0.546875 -0.625 -1.265625q-0.21875 -0.734375 -0.21875 -1.609375q0 -1.0 0.3125 -1.875q0.3125 -0.875 0.875 -1.515625q0.5625 -0.640625 1.328125 -1.0q0.78125 -0.359375 1.71875 -0.359375q0.53125 0 0.953125 0.15625q0.4375 0.140625 1.078125 0.5l1.140625 -0.65625zm-3.421875 7.625q0.265625 0 0.65625 -0.09375q0.40625 -0.09375 0.671875 -0.234375q0.265625 -0.15625 0.421875 -0.34375q0.171875 -0.203125 0.171875 -0.578125l0 -4.0625q0 -0.84375 -0.421875 -1.3125q-0.421875 -0.484375 -1.328125 -0.484375q-1.140625 0 -1.859375 0.9375q-0.703125 0.9375 -0.703125 2.625q0 1.625 0.65625 2.59375q0.671875 0.953125 1.734375 0.953125zm7.78125 -7.4375l0 6.109375q0 0.5625 0.390625 0.984375q0.390625 0.40625 1.015625 0.40625q0.328125 0 0.71875 -0.125q0.390625 -0.140625 0.71875 -0.390625q0.21875 -0.171875 0.34375 -0.375q0.140625 -0.203125 0.140625 -0.6875l0 -4.484375q0 -0.609375 -0.234375 -0.859375q-0.21875 -0.265625 -0.90625 -0.265625l-0.25 0l0 -0.3125l2.953125 0l0 6.453125q0 0.484375 0.125 0.71875q0.140625 0.21875 0.578125 0.265625q0.09375 0.015625 0.203125 0.015625q0.125 0 0.25 0l0 0.265625q-0.5 0.15625 -0.78125 0.234375q-0.28125 0.078125 -0.515625 0.171875q-0.234375 0.078125 -0.515625 0.1875q-0.28125 0.09375 -0.78125 0.25l-0.03125 -0.046875l0 -1.546875q-0.3125 0.296875 -0.578125 0.578125q-0.265625 0.28125 -0.546875 0.484375q-0.34375 0.265625 -0.765625 0.40625q-0.40625 0.140625 -0.875 0.140625q-1.03125 0 -1.625 -0.671875q-0.59375 -0.671875 -0.59375 -1.703125l0 -4.8125q0 -0.484375 -0.171875 -0.734375q-0.15625 -0.265625 -0.65625 -0.359375q-0.1875 -0.046875 -0.328125 -0.046875l0 -0.25l2.71875 0zm9.796875 -3.40625q0 0.421875 -0.28125 0.6875q-0.265625 0.265625 -0.6875 0.265625q-0.390625 0 -0.671875 -0.265625q-0.265625 -0.265625 -0.265625 -0.6875q0 -0.390625 0.28125 -0.671875q0.28125 -0.28125 0.65625 -0.28125q0.40625 0 0.6875 0.28125q0.28125 0.265625 0.28125 0.671875zm-0.09375 3.21875l0.078125 0.046875l0 6.71875q0 0.375 0.015625 0.625q0.03125 0.25 0.125 0.421875q0.09375 0.171875 0.265625 0.265625q0.1875 0.09375 0.46875 0.140625q0.109375 0.03125 0.234375 0.046875q0.125 0.015625 0.265625 0.03125l0 0.28125l-4.421875 0l0 -0.28125q0.125 0 0.234375 0q0.125 0 0.21875 -0.015625q0.625 -0.0625 0.8125 -0.359375q0.203125 -0.3125 0.203125 -1.15625l0 -4.5q0 -0.53125 -0.125 -0.78125q-0.125 -0.25 -0.578125 -0.25q-0.3125 0 -0.6875 0.09375l0 -0.3125l2.890625 -1.015625zm9.342682 1.90625q0 0.328125 -0.25 0.5625q-0.25 0.234375 -0.625 0.234375q-0.3125 0 -0.5 -0.140625q-0.171875 -0.140625 -0.28125 -0.359375q-0.09375 -0.234375 -0.15625 -0.484375q-0.046875 -0.265625 -0.125 -0.515625q-0.09375 -0.28125 -0.296875 -0.46875q-0.1875 -0.203125 -0.765625 -0.203125q-0.578125 0 -1.046875 0.25q-0.46875 0.234375 -0.796875 0.6875q-0.328125 0.4375 -0.5 1.046875q-0.171875 0.59375 -0.171875 1.3125q0 0.75 0.203125 1.40625q0.21875 0.65625 0.59375 1.140625q0.390625 0.484375 0.921875 0.765625q0.53125 0.28125 1.171875 0.28125q0.78125 0 1.390625 -0.390625q0.625 -0.40625 1.234375 -1.359375l0.265625 0.15625q-0.703125 1.46875 -1.5625 2.203125q-0.859375 0.734375 -2.09375 0.734375q-0.765625 0 -1.421875 -0.296875q-0.65625 -0.3125 -1.140625 -0.859375q-0.46875 -0.546875 -0.734375 -1.3125q-0.265625 -0.765625 -0.265625 -1.6875q0 -0.96875 0.3125 -1.8125q0.3125 -0.84375 0.859375 -1.46875q0.5625 -0.625 1.296875 -0.96875q0.75 -0.359375 1.640625 -0.359375q0.578125 0 1.078125 0.15625q0.515625 0.140625 0.90625 0.40625q0.390625 0.25 0.625 0.59375q0.234375 0.34375 0.234375 0.75zm3.9552307 -6.03125l0 7.765625l0.046875 0.03125q2.46875 -2.203125 2.703125 -2.421875q0.234375 -0.25 0.234375 -0.46875q0 -0.15625 -0.140625 -0.234375q-0.140625 -0.078125 -0.515625 -0.109375l-0.265625 0l0 -0.25l3.796875 0l0 0.28125l-0.28125 0q-0.390625 0 -0.75 0.125q-0.359375 0.109375 -0.828125 0.4375q-0.46875 0.328125 -1.125 0.875q-0.640625 0.546875 -1.578125 1.40625l2.6875 3.40625q0.609375 0.78125 1.078125 1.125q0.46875 0.34375 0.96875 0.421875l0.296875 0.03125l0 0.28125l-4.0625 0l0 -0.28125l0.34375 0q0.390625 0 0.390625 -0.28125q0 -0.109375 -0.078125 -0.203125q-0.0625 -0.09375 -0.25 -0.328125l-2.625 -3.53125l-0.046875 0l0 3.4375q0 0.203125 0.03125 0.359375q0.046875 0.15625 0.15625 0.265625q0.109375 0.109375 0.328125 0.1875q0.21875 0.0625 0.5625 0.078125l0.328125 0.015625l0 0.28125l-4.375 0l0 -0.28125l0.28125 -0.046875q0.34375 -0.0625 0.5625 -0.109375q0.21875 -0.0625 0.34375 -0.171875q0.125 -0.125 0.171875 -0.3125q0.046875 -0.203125 0.046875 -0.53125l0 -9.109375q0 -0.609375 -0.171875 -0.84375q-0.171875 -0.25 -0.5625 -0.25l-0.203125 0q-0.03125 0 -0.171875 0.015625q-0.125 0 -0.296875 0.015625l0 -0.296875q0.1875 -0.0625 0.5625 -0.15625q0.375 -0.109375 0.796875 -0.21875q0.4375 -0.109375 0.84375 -0.234375q0.421875 -0.125 0.6875 -0.21875l0.078125 0.046875z" fill-rule="nonzero"/><path fill="#000000" d="m406.21622 360.83246l0.09375 0.046875l0 5.625l0.03125 0q0.109375 -0.296875 0.359375 -0.5625q0.25 -0.265625 0.59375 -0.484375q0.359375 -0.21875 0.765625 -0.328125q0.40625 -0.125 0.84375 -0.125q0.71875 0 1.328125 0.328125q0.609375 0.328125 1.03125 0.875q0.4375 0.546875 0.671875 1.28125q0.25 0.734375 0.25 1.578125q0 0.984375 -0.34375 1.84375q-0.328125 0.859375 -0.9375 1.5q-0.59375 0.625 -1.390625 1.0q-0.796875 0.359375 -1.75 0.359375q-0.5 0 -1.03125 -0.109375q-0.53125 -0.09375 -0.984375 -0.265625q-0.4375 -0.171875 -0.734375 -0.375q-0.28125 -0.203125 -0.28125 -0.421875l0 -9.78125q0 -0.5 -0.140625 -0.6875q-0.140625 -0.1875 -0.5625 -0.1875q-0.203125 0 -0.359375 0q-0.140625 0 -0.15625 0.015625l0 -0.296875q0.140625 -0.03125 0.390625 -0.09375q0.25 -0.078125 0.734375 -0.21875l1.578125 -0.515625zm0.09375 11.46875q0 0.328125 0.53125 0.609375q0.53125 0.265625 1.3125 0.265625q1.140625 0 1.765625 -0.859375q0.625 -0.875 0.625 -2.46875q0 -1.640625 -0.640625 -2.65625q-0.625 -1.015625 -1.75 -1.015625q-0.375 0 -0.71875 0.125q-0.328125 0.125 -0.578125 0.3125q-0.25 0.171875 -0.40625 0.4375q-0.140625 0.25 -0.140625 0.484375l0 4.765625zm9.453125 -7.265625l0 1.65625l0.03125 0q0.453125 -0.6875 0.984375 -1.1875q0.546875 -0.5 1.25 -0.5q0.453125 0 0.71875 0.265625q0.28125 0.265625 0.28125 0.71875q0 0.390625 -0.203125 0.625q-0.1875 0.21875 -0.53125 0.21875q-0.203125 0 -0.375 -0.09375q-0.15625 -0.109375 -0.3125 -0.234375q-0.140625 -0.125 -0.28125 -0.21875q-0.140625 -0.109375 -0.28125 -0.109375q-0.203125 0 -0.421875 0.15625q-0.21875 0.15625 -0.40625 0.390625q-0.1875 0.234375 -0.328125 0.5q-0.125 0.265625 -0.125 0.46875l0 4.265625q0 0.3125 0.046875 0.578125q0.046875 0.25 0.1875 0.421875q0.15625 0.15625 0.421875 0.25q0.28125 0.09375 0.703125 0.09375l0.234375 0l0 0.28125l-4.484375 0l0 -0.28125q0.03125 0 0.0625 0q0.046875 -0.015625 0.09375 -0.015625q0.328125 -0.0625 0.5625 -0.125q0.234375 -0.078125 0.359375 -0.203125q0.140625 -0.140625 0.1875 -0.34375q0.0625 -0.203125 0.0625 -0.53125l0 -4.8125q0 -0.5 -0.140625 -0.765625q-0.125 -0.265625 -0.515625 -0.265625q-0.125 0 -0.296875 0.015625q-0.171875 0.015625 -0.34375 0.046875l0 -0.296875q0.671875 -0.21875 1.40625 -0.453125q0.75 -0.25 1.359375 -0.546875l0.09375 0.03125zm11.993774 4.1875q0 0.9375 -0.3125 1.78125q-0.3125 0.828125 -0.875 1.453125q-0.5625 0.609375 -1.328125 0.96875q-0.75 0.34375 -1.625 0.34375q-0.875 0 -1.640625 -0.328125q-0.75 -0.34375 -1.296875 -0.9375q-0.53125 -0.59375 -0.84375 -1.390625q-0.296875 -0.8125 -0.296875 -1.765625q0 -0.953125 0.296875 -1.75q0.3125 -0.8125 0.84375 -1.375q0.546875 -0.5625 1.28125 -0.890625q0.75 -0.328125 1.625 -0.328125q0.921875 0 1.703125 0.3125q0.78125 0.3125 1.328125 0.875q0.546875 0.5625 0.84375 1.34375q0.296875 0.765625 0.296875 1.6875zm-3.859375 4.03125q1.03125 0 1.609375 -0.890625q0.578125 -0.90625 0.578125 -2.53125q0 -0.921875 -0.203125 -1.703125q-0.1875 -0.796875 -0.546875 -1.375q-0.34375 -0.578125 -0.84375 -0.90625q-0.484375 -0.328125 -1.09375 -0.328125q-0.953125 0 -1.578125 0.78125q-0.609375 0.765625 -0.609375 2.21875q0 0.859375 0.171875 1.703125q0.1875 0.84375 0.5 1.53125q0.296875 0.65625 0.78125 1.078125q0.484375 0.421875 1.234375 0.421875zm7.7425537 -8.0625l0 0.28125l-0.265625 0.03125q-0.59375 0.125 -0.59375 0.5625q0 0.1875 0.125 0.609375q0.125 0.40625 0.453125 1.265625l1.40625 3.546875l1.671875 -3.6875q-0.203125 -0.578125 -0.390625 -1.046875q-0.171875 -0.484375 -0.3125 -0.75q-0.15625 -0.25 -0.359375 -0.359375q-0.1875 -0.109375 -0.375 -0.140625q-0.078125 -0.015625 -0.125 -0.015625q-0.046875 -0.015625 -0.09375 -0.015625l0 -0.28125l3.78125 0l0 0.28125q-0.03125 0 -0.09375 0.015625q-0.046875 0 -0.09375 0q-0.5 0.078125 -0.703125 0.234375q-0.1875 0.140625 -0.1875 0.453125q0 0.3125 0.140625 0.640625q0.140625 0.3125 0.328125 0.796875l1.421875 3.84375l1.671875 -4.203125q0.125 -0.328125 0.203125 -0.609375q0.09375 -0.28125 0.109375 -0.578125q0 -0.25 -0.125 -0.34375q-0.125 -0.109375 -0.3125 -0.15625l-0.375 -0.09375l0 -0.28125l2.296875 0l0 0.28125q-0.09375 0.03125 -0.171875 0.0625q-0.078125 0.03125 -0.125 0.078125q-0.078125 0.078125 -0.125 0.140625q-0.046875 0.0625 -0.09375 0.15625q-0.046875 0.078125 -0.109375 0.21875q-0.046875 0.125 -0.140625 0.34375l-2.9375 7.375l-0.3125 0l-2.0 -5.203125l-2.4375 5.203125l-0.28125 0l-2.703125 -6.890625q-0.1875 -0.46875 -0.328125 -0.734375q-0.125 -0.265625 -0.21875 -0.40625q-0.09375 -0.140625 -0.15625 -0.1875q-0.0625 -0.046875 -0.125 -0.09375q-0.140625 -0.0625 -0.296875 -0.0625l0 -0.28125l3.359375 0zm12.594818 -0.1875l0.125 0.03125l0 1.46875q0.828125 -0.8125 1.421875 -1.15625q0.609375 -0.34375 1.28125 -0.34375q1.0625 0 1.625 0.75q0.578125 0.734375 0.578125 1.96875l0 4.421875q0 0.375 0.078125 0.59375q0.09375 0.203125 0.21875 0.3125q0.125 0.109375 0.28125 0.140625q0.15625 0.03125 0.328125 0.078125q0.0625 0.015625 0.125 0.03125q0.0625 0 0.109375 0l0 0.28125l-3.875 0l0 -0.28125q0.1875 0 0.328125 -0.03125q0.328125 -0.0625 0.484375 -0.21875q0.171875 -0.15625 0.25 -0.390625q0.09375 -0.234375 0.09375 -0.53125q0.015625 -0.296875 0.015625 -0.625l0 -3.75q0 -0.796875 -0.328125 -1.265625q-0.328125 -0.46875 -1.03125 -0.46875q-0.453125 0 -0.890625 0.234375q-0.421875 0.234375 -1.03125 0.828125l0 5.28125q0 0.421875 0.21875 0.6875q0.21875 0.25 0.796875 0.25l0.21875 0l0 0.28125l-3.96875 0l0 -0.28125l0.3125 -0.046875q0.578125 -0.125 0.71875 -0.4375q0.140625 -0.3125 0.140625 -0.84375l0 -4.765625q0 -0.546875 -0.140625 -0.828125q-0.125 -0.296875 -0.5 -0.296875q-0.265625 0 -0.5625 0.078125l0 -0.328125l1.109375 -0.34375l1.46875 -0.484375zm18.257812 -3.0q0 0.3125 -0.21875 0.53125q-0.21875 0.21875 -0.578125 0.21875q-0.296875 0 -0.453125 -0.203125q-0.15625 -0.203125 -0.375 -0.46875q-0.203125 -0.25 -0.375 -0.484375q-0.171875 -0.234375 -0.59375 -0.234375q-0.546875 0 -0.8125 0.4375q-0.265625 0.421875 -0.265625 1.140625l0 2.25l2.296875 0l0 0.59375l-2.28125 0l0 5.953125q0 0.59375 0.078125 0.875q0.09375 0.265625 0.296875 0.421875q0.1875 0.15625 0.515625 0.21875q0.328125 0.046875 0.5 0.046875l0.34375 0l0 0.28125l-4.84375 0l0 -0.28125l0.109375 0q0.3125 0 0.578125 -0.03125q0.265625 -0.046875 0.453125 -0.1875q0.203125 -0.140625 0.296875 -0.4375q0.109375 -0.296875 0.109375 -0.8125l0 -6.046875l-1.53125 0l0 -0.59375l1.53125 0q0 -0.515625 0.03125 -0.953125q0.046875 -0.453125 0.140625 -0.84375q0.3125 -1.28125 1.109375 -1.921875q0.796875 -0.640625 1.984375 -0.640625q0.859375 0 1.40625 0.328125q0.546875 0.328125 0.546875 0.84375zm7.8375244 7.21875q0 0.9375 -0.3125 1.78125q-0.3125 0.828125 -0.875 1.453125q-0.5625 0.609375 -1.328125 0.96875q-0.75 0.34375 -1.625 0.34375q-0.875 0 -1.640625 -0.328125q-0.75 -0.34375 -1.296875 -0.9375q-0.53125 -0.59375 -0.84375 -1.390625q-0.296875 -0.8125 -0.296875 -1.765625q0 -0.953125 0.296875 -1.75q0.3125 -0.8125 0.84375 -1.375q0.546875 -0.5625 1.28125 -0.890625q0.75 -0.328125 1.625 -0.328125q0.921875 0 1.703125 0.3125q0.78125 0.3125 1.328125 0.875q0.546875 0.5625 0.84375 1.34375q0.296875 0.765625 0.296875 1.6875zm-3.859375 4.03125q1.03125 0 1.609375 -0.890625q0.578125 -0.90625 0.578125 -2.53125q0 -0.921875 -0.203125 -1.703125q-0.1875 -0.796875 -0.546875 -1.375q-0.34375 -0.578125 -0.84375 -0.90625q-0.484375 -0.328125 -1.09375 -0.328125q-0.953125 0 -1.578125 0.78125q-0.609375 0.765625 -0.609375 2.21875q0 0.859375 0.171875 1.703125q0.1875 0.84375 0.5 1.53125q0.296875 0.65625 0.78125 1.078125q0.484375 0.421875 1.234375 0.421875zm8.734375 -8.0625l0 0.28125q-0.0625 0 -0.125 0.015625q-0.046875 0 -0.109375 0q-0.578125 0.046875 -0.578125 0.390625q0 0.1875 0.234375 0.65625q0.234375 0.46875 0.890625 1.375q0.125 -0.21875 0.34375 -0.5q0.21875 -0.296875 0.421875 -0.578125q0.203125 -0.28125 0.34375 -0.53125q0.140625 -0.25 0.140625 -0.421875q0 -0.390625 -0.578125 -0.40625l-0.171875 0l0 -0.28125l2.953125 0l0 0.28125q-0.125 0 -0.25 0.03125q-0.84375 0.171875 -1.28125 0.796875l-1.53125 2.21875l2.390625 3.65625q0.5625 0.859375 1.15625 1.046875q0.09375 0.046875 0.1875 0.0625q0.09375 0 0.1875 0.015625l0 0.28125l-3.75 0l0 -0.28125l0.234375 0q0.234375 0 0.375 -0.09375q0.140625 -0.109375 0.140625 -0.359375q0 -0.15625 -0.078125 -0.28125q-0.078125 -0.140625 -0.21875 -0.390625l-1.515625 -2.265625l-1.5 2.3125q-0.34375 0.53125 -0.34375 0.75q0 0.140625 0.15625 0.234375q0.15625 0.09375 0.421875 0.09375l0.15625 0l0 0.28125l-2.703125 0l0 -0.28125q0.140625 0 0.25 -0.03125q0.40625 -0.078125 0.609375 -0.296875q0.203125 -0.21875 0.46875 -0.5625l2.171875 -3.140625l-1.71875 -2.625q-0.234375 -0.34375 -0.40625 -0.5625q-0.15625 -0.21875 -0.3125 -0.359375q-0.15625 -0.140625 -0.34375 -0.1875q-0.171875 -0.0625 -0.390625 -0.0625l-0.1875 0l0 -0.28125l3.859375 0z" fill-rule="nonzero"/><path fill="#000000" d="m407.0756 384.18558q0 0.421875 -0.28125 0.6875q-0.265625 0.265625 -0.6875 0.265625q-0.40625 0 -0.671875 -0.265625q-0.265625 -0.265625 -0.265625 -0.6875q0 -0.390625 0.28125 -0.671875q0.28125 -0.28125 0.65625 -0.28125q0.40625 0 0.6875 0.28125q0.28125 0.265625 0.28125 0.671875zm-0.03125 3.265625l0 8.625q0 1.859375 -0.78125 2.90625q-0.78125 1.0625 -2.359375 1.0625q-0.78125 0 -1.265625 -0.296875q-0.5 -0.28125 -0.5 -0.75q0 -0.296875 0.234375 -0.5q0.21875 -0.203125 0.53125 -0.203125q0.34375 0 0.53125 0.21875q0.1875 0.21875 0.421875 0.453125q0.1875 0.1875 0.28125 0.3125q0.109375 0.140625 0.4375 0.140625q0.25 0 0.421875 -0.125q0.1875 -0.109375 0.28125 -0.375q0.109375 -0.265625 0.15625 -0.734375q0.046875 -0.46875 0.046875 -1.171875l0 -7.34375q0 -0.5 -0.140625 -0.765625q-0.125 -0.265625 -0.484375 -0.265625q-0.125 0 -0.328125 0.015625q-0.1875 0.015625 -0.484375 0.046875l0 -0.296875q0.578125 -0.171875 1.328125 -0.421875q0.75 -0.25 1.578125 -0.578125l0.09375 0.046875zm4.483307 0.140625l0 6.109375q0 0.5625 0.390625 0.984375q0.390625 0.40625 1.015625 0.40625q0.328125 0 0.71875 -0.125q0.390625 -0.140625 0.71875 -0.390625q0.21875 -0.171875 0.34375 -0.375q0.140625 -0.203125 0.140625 -0.6875l0 -4.484375q0 -0.609375 -0.234375 -0.859375q-0.21875 -0.265625 -0.90625 -0.265625l-0.25 0l0 -0.3125l2.953125 0l0 6.453125q0 0.484375 0.125 0.71875q0.140625 0.21875 0.578125 0.265625q0.09375 0.015625 0.203125 0.015625q0.125 0 0.25 0l0 0.265625q-0.5 0.15625 -0.78125 0.234375q-0.28125 0.078125 -0.515625 0.171875q-0.234375 0.078125 -0.515625 0.1875q-0.28125 0.09375 -0.78125 0.25l-0.03125 -0.046875l0 -1.546875q-0.3125 0.296875 -0.578125 0.578125q-0.265625 0.28125 -0.546875 0.484375q-0.34375 0.265625 -0.765625 0.40625q-0.40625 0.140625 -0.875 0.140625q-1.03125 0 -1.625 -0.671875q-0.59375 -0.671875 -0.59375 -1.703125l0 -4.8125q0 -0.484375 -0.171875 -0.734375q-0.15625 -0.265625 -0.65625 -0.359375q-0.1875 -0.046875 -0.328125 -0.046875l0 -0.25l2.71875 0zm9.53125 -0.15625l0 1.40625q0.5 -0.390625 0.90625 -0.65625q0.40625 -0.28125 0.734375 -0.4375q0.34375 -0.171875 0.640625 -0.25q0.296875 -0.09375 0.609375 -0.09375q1.453125 0 1.984375 1.5625q1.46875 -1.5625 3.015625 -1.5625q1.125 0 1.65625 0.84375q0.53125 0.84375 0.53125 2.375l0 4.0q0 0.59375 0.25 0.84375q0.265625 0.234375 0.875 0.234375l0.15625 0l0 0.28125l-4.078125 0l0 -0.28125q0.046875 -0.015625 0.125 -0.015625q0.078125 0 0.109375 -0.015625q0.34375 -0.0625 0.546875 -0.15625q0.203125 -0.09375 0.296875 -0.234375q0.09375 -0.140625 0.125 -0.34375q0.03125 -0.21875 0.03125 -0.5l0 -4.109375q0 -1.0625 -0.296875 -1.5q-0.28125 -0.453125 -1.109375 -0.453125q-0.65625 0 -1.140625 0.265625q-0.46875 0.265625 -0.890625 0.875l0 4.765625q0 0.734375 0.234375 1.078125q0.234375 0.34375 0.921875 0.34375l0.1875 0l0 0.28125l-4.1875 0l0 -0.28125l0.1875 0q0.703125 0 0.890625 -0.3125q0.203125 -0.328125 0.203125 -0.953125l0 -4.1875q0 -0.890625 -0.3125 -1.375q-0.296875 -0.5 -0.984375 -0.5q-1.203125 0 -2.140625 1.09375l0 5.28125q0 0.4375 0.1875 0.703125q0.203125 0.25 0.890625 0.25l0.1875 0l0 0.28125l-4.140625 0l0 -0.28125l0.203125 0q0.625 0 0.859375 -0.296875q0.25 -0.3125 0.25 -0.953125l0 -4.84375q0 -0.546875 -0.125 -0.828125q-0.109375 -0.296875 -0.515625 -0.296875q-0.484375 0 -0.609375 0.078125l0 -0.328125q0.671875 -0.140625 1.3125 -0.375q0.640625 -0.234375 1.296875 -0.453125l0.125 0.03125zm14.389557 0l0 1.359375l0.03125 0.046875q1.125 -1.4375 2.65625 -1.4375q0.6875 0 1.265625 0.3125q0.578125 0.296875 0.984375 0.828125q0.421875 0.53125 0.640625 1.265625q0.21875 0.71875 0.21875 1.5625q0 1.015625 -0.296875 1.890625q-0.296875 0.875 -0.828125 1.515625q-0.53125 0.640625 -1.25 1.015625q-0.703125 0.375 -1.546875 0.375q-0.578125 0 -0.984375 -0.171875q-0.390625 -0.171875 -0.890625 -0.625l0 3.0q0 0.421875 0.0625 0.671875q0.0625 0.265625 0.234375 0.40625q0.171875 0.15625 0.4375 0.203125q0.265625 0.046875 0.703125 0.046875l0.203125 0l0 0.328125l-4.515625 0l0 -0.3125l0.265625 -0.046875q0.625 -0.109375 0.828125 -0.328125q0.21875 -0.21875 0.21875 -0.84375l0 -8.96875q0 -0.59375 -0.1875 -0.734375q-0.1875 -0.15625 -0.453125 -0.15625l-0.59375 0.015625l0 -0.296875q0.703125 -0.234375 1.375 -0.484375q0.671875 -0.265625 1.3125 -0.46875l0.109375 0.03125zm0 6.921875q0 0.171875 0.140625 0.390625q0.15625 0.203125 0.40625 0.390625q0.265625 0.171875 0.609375 0.3125q0.359375 0.125 0.75 0.125q1.0625 0 1.671875 -0.9375q0.609375 -0.953125 0.609375 -2.578125q0 -1.625 -0.625 -2.578125q-0.625 -0.96875 -1.703125 -0.96875q-0.328125 0 -0.671875 0.125q-0.328125 0.125 -0.609375 0.3125q-0.265625 0.1875 -0.421875 0.390625q-0.15625 0.203125 -0.15625 0.390625l0 4.625zm11.640625 -6.578125q0.171875 0 0.3125 -0.203125l0.203125 0l0.078125 2.546875l-0.28125 0q-0.296875 -1.234375 -0.796875 -1.765625q-0.484375 -0.53125 -1.265625 -0.53125q-0.640625 0 -1.03125 0.359375q-0.390625 0.359375 -0.390625 0.890625q0 0.484375 0.234375 0.8125q0.25 0.3125 0.71875 0.578125l2.15625 1.28125q1.28125 0.765625 1.28125 2.0q0 0.515625 -0.21875 0.96875q-0.21875 0.4375 -0.59375 0.765625q-0.359375 0.3125 -0.859375 0.5q-0.5 0.1875 -1.0625 0.1875q-0.21875 0 -0.53125 -0.0625q-0.3125 -0.046875 -0.625 -0.109375q-0.296875 -0.046875 -0.578125 -0.109375q-0.265625 -0.0625 -0.390625 -0.0625q-0.109375 0 -0.21875 0.03125q-0.109375 0.03125 -0.203125 0.203125l-0.25 0l0 -2.90625l0.296875 0l0.09375 0.390625q0.140625 0.578125 0.296875 0.921875q0.34375 0.6875 0.859375 1.0q0.53125 0.296875 1.125 0.296875q0.703125 0 1.125 -0.359375q0.421875 -0.375 0.421875 -0.984375q0 -0.46875 -0.265625 -0.796875q-0.25 -0.34375 -0.90625 -0.71875q-0.71875 -0.40625 -1.359375 -0.78125q-0.625 -0.375 -1.046875 -0.828125q-0.328125 -0.328125 -0.5 -0.703125q-0.15625 -0.390625 -0.15625 -0.875q0 -0.5 0.1875 -0.921875q0.203125 -0.421875 0.53125 -0.734375q0.34375 -0.3125 0.8125 -0.484375q0.484375 -0.171875 1.046875 -0.171875q0.640625 0 1.09375 0.1875q0.453125 0.1875 0.65625 0.1875zm15.405731 3.84375q0 0.9375 -0.3125 1.78125q-0.3125 0.828125 -0.875 1.453125q-0.5625 0.609375 -1.328125 0.96875q-0.75 0.34375 -1.625 0.34375q-0.875 0 -1.640625 -0.328125q-0.75 -0.34375 -1.296875 -0.9375q-0.53125 -0.59375 -0.84375 -1.390625q-0.296875 -0.8125 -0.296875 -1.765625q0 -0.953125 0.296875 -1.75q0.3125 -0.8125 0.84375 -1.375q0.546875 -0.5625 1.28125 -0.890625q0.75 -0.328125 1.625 -0.328125q0.921875 0 1.703125 0.3125q0.78125 0.3125 1.328125 0.875q0.546875 0.5625 0.84375 1.34375q0.296875 0.765625 0.296875 1.6875zm-3.859375 4.03125q1.03125 0 1.609375 -0.890625q0.578125 -0.90625 0.578125 -2.53125q0 -0.921875 -0.203125 -1.703125q-0.1875 -0.796875 -0.546875 -1.375q-0.34375 -0.578125 -0.84375 -0.90625q-0.484375 -0.328125 -1.09375 -0.328125q-0.953125 0 -1.578125 0.78125q-0.609375 0.765625 -0.609375 2.21875q0 0.859375 0.171875 1.703125q0.1875 0.84375 0.5 1.53125q0.296875 0.65625 0.78125 1.078125q0.484375 0.421875 1.234375 0.421875zm8.120148 -8.0625l0 0.28125q-0.046875 0 -0.078125 0.015625q-0.015625 0 -0.0625 0q-0.40625 0.046875 -0.5625 0.15625q-0.15625 0.109375 -0.15625 0.359375q0 0.140625 0.0625 0.375q0.0625 0.21875 0.21875 0.59375l1.8125 4.484375l1.546875 -4.046875q0.234375 -0.625 0.3125 -0.90625q0.078125 -0.296875 0.078125 -0.4375q0 -0.46875 -0.734375 -0.578125q-0.03125 0 -0.078125 0q-0.03125 -0.015625 -0.0625 -0.015625l0 -0.28125l2.59375 0l0 0.28125q-0.046875 0 -0.1875 0.03125q-0.265625 0.03125 -0.40625 0.203125q-0.140625 0.171875 -0.296875 0.40625q-0.046875 0.125 -0.125 0.28125q-0.078125 0.15625 -0.203125 0.46875q-0.109375 0.3125 -0.328125 0.828125q-0.203125 0.515625 -0.53125 1.34375q-0.3125 0.8125 -0.78125 2.0q-0.46875 1.1875 -1.125 2.8125l-0.28125 0q-1.28125 -3.140625 -2.109375 -5.125q-0.828125 -2.0 -1.1875 -2.625q-0.125 -0.21875 -0.265625 -0.34375q-0.140625 -0.140625 -0.4375 -0.234375q-0.046875 -0.015625 -0.15625 -0.03125q-0.09375 -0.015625 -0.125 -0.015625l0 -0.28125l3.65625 0zm6.763855 3.21875q0.09375 1.3125 0.40625 2.109375q0.328125 0.78125 0.765625 1.21875q0.4375 0.4375 0.921875 0.59375q0.484375 0.15625 0.890625 0.15625q0.875 0 1.53125 -0.453125q0.671875 -0.453125 1.34375 -1.515625l0.296875 0.140625q-0.59375 1.515625 -1.609375 2.3125q-1.0 0.796875 -2.34375 0.796875q-1.640625 0 -2.5625 -1.125q-0.921875 -1.140625 -0.921875 -3.0625q0 -1.015625 0.28125 -1.859375q0.296875 -0.84375 0.8125 -1.4375q0.515625 -0.609375 1.21875 -0.9375q0.703125 -0.34375 1.5625 -0.34375q0.5 0 1.0 0.140625q0.5 0.140625 0.90625 0.453125q0.421875 0.296875 0.734375 0.78125q0.3125 0.484375 0.4375 1.171875q0.046875 0.1875 0.078125 0.453125q0.03125 0.25 0.0625 0.40625l-5.8125 0zm3.90625 -0.59375q-0.109375 -1.0625 -0.515625 -1.59375q-0.40625 -0.546875 -1.296875 -0.546875q-0.390625 0 -0.71875 0.09375q-0.3125 0.09375 -0.5625 0.34375q-0.25 0.234375 -0.4375 0.65625q-0.1875 0.40625 -0.3125 1.046875l3.84375 0zm5.6114807 -2.78125l0 1.65625l0.03125 0q0.453125 -0.6875 0.984375 -1.1875q0.546875 -0.5 1.25 -0.5q0.453125 0 0.71875 0.265625q0.28125 0.265625 0.28125 0.71875q0 0.390625 -0.203125 0.625q-0.1875 0.21875 -0.53125 0.21875q-0.203125 0 -0.375 -0.09375q-0.15625 -0.109375 -0.3125 -0.234375q-0.140625 -0.125 -0.28125 -0.21875q-0.140625 -0.109375 -0.28125 -0.109375q-0.203125 0 -0.421875 0.15625q-0.21875 0.15625 -0.40625 0.390625q-0.1875 0.234375 -0.328125 0.5q-0.125 0.265625 -0.125 0.46875l0 4.265625q0 0.3125 0.046875 0.578125q0.046875 0.25 0.1875 0.421875q0.15625 0.15625 0.421875 0.25q0.28125 0.09375 0.703125 0.09375l0.234375 0l0 0.28125l-4.484375 0l0 -0.28125q0.03125 0 0.0625 0q0.046875 -0.015625 0.09375 -0.015625q0.328125 -0.0625 0.5625 -0.125q0.234375 -0.078125 0.359375 -0.203125q0.140625 -0.140625 0.1875 -0.34375q0.0625 -0.203125 0.0625 -0.53125l0 -4.8125q0 -0.5 -0.140625 -0.765625q-0.125 -0.265625 -0.515625 -0.265625q-0.125 0 -0.296875 0.015625q-0.171875 0.015625 -0.34375 0.046875l0 -0.296875q0.671875 -0.21875 1.40625 -0.453125q0.75 -0.25 1.359375 -0.546875l0.09375 0.03125z" fill-rule="nonzero"/><path fill="#000000" d="m406.3256 407.5856l0 2.40625l1.859375 0l0 0.59375l-1.859375 0l0 5.703125q0 0.640625 0.21875 0.96875q0.234375 0.328125 0.75 0.328125q0.484375 0 1.125 -0.640625l0.25 0.1875q-0.921875 1.4375 -2.15625 1.4375q-0.265625 0 -0.703125 -0.125q-0.421875 -0.125 -0.6875 -0.484375q-0.09375 -0.140625 -0.15625 -0.265625q-0.0625 -0.140625 -0.109375 -0.3125q-0.046875 -0.1875 -0.078125 -0.46875q-0.015625 -0.296875 -0.015625 -0.78125l0 -5.546875l-1.0625 0l0 -0.25q0.84375 -0.609375 1.4375 -1.28125q0.609375 -0.6875 0.984375 -1.46875l0.203125 0zm5.233307 -1.890625l0 5.640625l0.046875 0q0.625 -0.84375 1.234375 -1.1875q0.625 -0.34375 1.46875 -0.34375q1.140625 0 1.71875 0.734375q0.578125 0.734375 0.578125 2.140625l0 3.90625q0 0.375 0.015625 0.625q0.03125 0.25 0.125 0.421875q0.09375 0.171875 0.25 0.265625q0.171875 0.09375 0.453125 0.15625l0.265625 0.046875l0 0.28125l-3.953125 0l0 -0.28125l0.265625 -0.03125q0.65625 -0.09375 0.828125 -0.421875q0.1875 -0.328125 0.1875 -1.078125l0 -3.859375q0 -0.890625 -0.359375 -1.390625q-0.34375 -0.515625 -1.046875 -0.515625q-0.546875 0 -1.015625 0.265625q-0.453125 0.265625 -1.0625 0.90625l0 4.59375q0 0.78125 0.1875 1.09375q0.1875 0.3125 0.765625 0.390625q0.1875 0.03125 0.328125 0.03125l0 0.296875l-4.03125 0l0 -0.28125q0.109375 -0.015625 0.203125 -0.03125q0.09375 -0.015625 0.1875 -0.046875q0.5625 -0.109375 0.671875 -0.4375q0.125 -0.328125 0.125 -1.0l0 -8.875q0 -0.171875 -0.015625 -0.34375q0 -0.171875 -0.0625 -0.3125q-0.0625 -0.140625 -0.21875 -0.21875q-0.140625 -0.09375 -0.40625 -0.09375q-0.015625 0 -0.140625 0q-0.125 0 -0.328125 0.015625l0 -0.296875q0.359375 -0.125 0.6875 -0.21875q0.34375 -0.09375 0.65625 -0.171875q0.3125 -0.09375 0.625 -0.1875q0.328125 -0.09375 0.65625 -0.25l0.109375 0.0625zm8.15625 7.515625q0.09375 1.3125 0.40625 2.109375q0.328125 0.78125 0.765625 1.21875q0.4375 0.4375 0.921875 0.59375q0.484375 0.15625 0.890625 0.15625q0.875 0 1.53125 -0.453125q0.671875 -0.453125 1.34375 -1.515625l0.296875 0.140625q-0.59375 1.515625 -1.609375 2.3125q-1.0 0.796875 -2.34375 0.796875q-1.640625 0 -2.5625 -1.125q-0.921875 -1.140625 -0.921875 -3.0625q0 -1.015625 0.28125 -1.859375q0.296875 -0.84375 0.8125 -1.4375q0.515625 -0.609375 1.21875 -0.9375q0.703125 -0.34375 1.5625 -0.34375q0.5 0 1.0 0.140625q0.5 0.140625 0.90625 0.453125q0.421875 0.296875 0.734375 0.78125q0.3125 0.484375 0.4375 1.171875q0.046875 0.1875 0.078125 0.453125q0.03125 0.25 0.0625 0.40625l-5.8125 0zm3.90625 -0.59375q-0.109375 -1.0625 -0.515625 -1.59375q-0.40625 -0.546875 -1.296875 -0.546875q-0.390625 0 -0.71875 0.09375q-0.3125 0.09375 -0.5625 0.34375q-0.25 0.234375 -0.4375 0.65625q-0.1875 0.40625 -0.3125 1.046875l3.84375 0zm10.681793 -6.9375l0 11.1875q0 0.625 0.203125 0.921875q0.21875 0.28125 0.859375 0.3125l0.34375 0l0 0.28125l-4.40625 0l0 -0.28125l0.296875 -0.03125q0.6875 -0.09375 0.90625 -0.359375q0.234375 -0.265625 0.234375 -0.890625l0 -8.921875q0 -0.25 -0.015625 -0.46875q0 -0.21875 -0.078125 -0.359375q-0.078125 -0.15625 -0.234375 -0.25q-0.15625 -0.09375 -0.453125 -0.09375q-0.125 0 -0.34375 0.015625q-0.203125 0 -0.34375 0.015625l0 -0.296875q1.140625 -0.28125 1.796875 -0.46875q0.65625 -0.203125 1.140625 -0.359375l0.09375 0.046875zm8.505859 10.8125q0 0.53125 0.109375 0.78125q0.125 0.234375 0.453125 0.234375q0.203125 0 0.390625 -0.078125q0.1875 -0.078125 0.4375 -0.28125l0 0.484375q-0.5 0.546875 -0.859375 0.75q-0.359375 0.1875 -0.828125 0.1875q-0.5625 0 -0.84375 -0.3125q-0.265625 -0.328125 -0.34375 -1.046875q-0.84375 0.71875 -1.484375 1.046875q-0.625 0.3125 -1.234375 0.3125q-0.859375 0 -1.421875 -0.546875q-0.546875 -0.5625 -0.546875 -1.40625q0 -0.953125 0.59375 -1.59375q0.609375 -0.640625 1.703125 -1.09375l2.375 -1.0l0 -1.1875q0 -0.671875 -0.359375 -1.078125q-0.359375 -0.421875 -1.0625 -0.421875q-0.578125 0 -0.96875 0.28125q-0.375 0.265625 -0.375 0.640625q0 0.234375 0.046875 0.421875q0.046875 0.1875 0.046875 0.265625q0 0.375 -0.265625 0.609375q-0.25 0.234375 -0.578125 0.234375q-0.328125 0 -0.5625 -0.234375q-0.234375 -0.25 -0.234375 -0.59375q0 -0.421875 0.234375 -0.796875q0.25 -0.390625 0.671875 -0.671875q0.421875 -0.28125 0.96875 -0.4375q0.5625 -0.15625 1.203125 -0.15625q0.328125 0 0.796875 0.0625q0.484375 0.0625 0.90625 0.328125q0.4375 0.265625 0.734375 0.796875q0.296875 0.53125 0.296875 1.484375l0 4.015625zm-3.359375 1.0q0.25 0 0.59375 -0.09375q0.34375 -0.09375 0.71875 -0.296875q0.25 -0.15625 0.390625 -0.3125q0.15625 -0.171875 0.15625 -0.640625l0 -2.765625l-0.96875 0.375q-0.953125 0.375 -1.515625 0.921875q-0.546875 0.546875 -0.546875 1.328125q0 0.640625 0.328125 1.0625q0.34375 0.421875 0.84375 0.421875zm12.298981 -7.5l0 0.28125l-5.015625 7.546875l2.484375 0q0.328125 0 0.828125 -0.03125q0.5 -0.046875 0.890625 -0.265625q0.40625 -0.234375 0.546875 -0.875q0.046875 -0.171875 0.109375 -0.40625q0.0625 -0.234375 0.109375 -0.453125l0.328125 0.078125l-0.265625 2.515625l-7.03125 0l0 -0.28125l4.96875 -7.546875l-2.59375 0q-0.59375 0 -0.953125 0.1875q-0.359375 0.171875 -0.484375 0.8125l-0.109375 0.640625l-0.34375 0l0.0625 -2.203125l6.46875 0zm4.877136 0l0 0.28125q-0.203125 0.015625 -0.375 0.03125q-0.15625 0.015625 -0.28125 0.0625q-0.4375 0.09375 -0.4375 0.4375q0 0.203125 0.15625 0.59375q0.15625 0.375 0.4375 1.015625q0.296875 0.640625 0.734375 1.5625q0.4375 0.921875 1.015625 2.21875l1.40625 -4.046875q0.21875 -0.578125 0.34375 -0.90625q0.125 -0.34375 0.125 -0.484375q0 -0.296875 -0.328125 -0.421875q-0.09375 -0.03125 -0.25 -0.046875q-0.140625 -0.015625 -0.3125 -0.015625l0 -0.28125l2.515625 0l0 0.28125q-0.109375 0.03125 -0.203125 0.046875q-0.09375 0.015625 -0.171875 0.0625q-0.3125 0.140625 -0.515625 0.71875l-2.796875 7.40625q-0.421875 1.09375 -0.796875 1.84375q-0.359375 0.75 -0.75 1.21875q-0.375 0.46875 -0.796875 0.671875q-0.421875 0.203125 -0.90625 0.203125q-0.59375 0 -0.984375 -0.3125q-0.375 -0.296875 -0.375 -0.765625q0 -0.375 0.234375 -0.59375q0.25 -0.21875 0.65625 -0.21875q0.40625 0 0.78125 0.15625q0.375 0.171875 0.578125 0.171875q0.234375 0 0.46875 -0.21875q0.25 -0.203125 0.46875 -0.609375q0.21875 -0.390625 0.421875 -0.9375q0.21875 -0.53125 0.34375 -1.1875l-3.296875 -7.0625q-0.09375 -0.234375 -0.234375 -0.328125q-0.125 -0.109375 -0.3125 -0.171875q-0.203125 -0.09375 -0.40625 -0.125l0 -0.25l3.84375 0zm17.789062 -4.3125l0 10.65625q0 0.328125 0.046875 0.53125q0.046875 0.203125 0.140625 0.296875q0.109375 0.09375 0.25 0.125q0.140625 0.03125 0.3125 0.03125q0.109375 0 0.203125 0q0.109375 -0.015625 0.296875 -0.015625l0 0.296875l-2.734375 0.96875l-0.078125 -0.0625l0 -1.125l-0.03125 0q-0.859375 1.1875 -2.359375 1.1875q-0.78125 0 -1.421875 -0.296875q-0.640625 -0.296875 -1.09375 -0.84375q-0.453125 -0.546875 -0.703125 -1.28125q-0.234375 -0.734375 -0.234375 -1.625q0 -0.96875 0.296875 -1.828125q0.296875 -0.859375 0.8125 -1.5q0.53125 -0.640625 1.234375 -1.015625q0.71875 -0.375 1.546875 -0.375q0.546875 0 0.96875 0.171875q0.4375 0.171875 0.984375 0.625l0 -2.96875q0 -0.484375 -0.140625 -0.6875q-0.125 -0.203125 -0.609375 -0.203125q-0.140625 0 -0.265625 0q-0.109375 0 -0.25 0.015625l0 -0.296875q0.59375 -0.125 0.96875 -0.234375q0.390625 -0.125 0.671875 -0.21875q0.296875 -0.09375 0.53125 -0.1875q0.25 -0.09375 0.5625 -0.1875l0.09375 0.046875zm-3.21875 11.921875q0.34375 0 0.65625 -0.125q0.3125 -0.125 0.53125 -0.28125q0.21875 -0.171875 0.34375 -0.359375q0.125 -0.1875 0.125 -0.34375l0 -4.34375q0 -0.328125 -0.15625 -0.65625q-0.140625 -0.34375 -0.40625 -0.59375q-0.265625 -0.265625 -0.625 -0.421875q-0.34375 -0.15625 -0.75 -0.15625q-1.03125 0 -1.671875 0.9375q-0.625 0.9375 -0.625 2.578125q0 0.828125 0.1875 1.53125q0.1875 0.6875 0.515625 1.1875q0.34375 0.5 0.8125 0.78125q0.484375 0.265625 1.0625 0.265625zm13.40625 -3.578125q0 0.9375 -0.3125 1.78125q-0.3125 0.828125 -0.875 1.453125q-0.5625 0.609375 -1.328125 0.96875q-0.75 0.34375 -1.625 0.34375q-0.875 0 -1.640625 -0.328125q-0.75 -0.34375 -1.296875 -0.9375q-0.53125 -0.59375 -0.84375 -1.390625q-0.296875 -0.8125 -0.296875 -1.765625q0 -0.953125 0.296875 -1.75q0.3125 -0.8125 0.84375 -1.375q0.546875 -0.5625 1.28125 -0.890625q0.75 -0.328125 1.625 -0.328125q0.921875 0 1.703125 0.3125q0.78125 0.3125 1.328125 0.875q0.546875 0.5625 0.84375 1.34375q0.296875 0.765625 0.296875 1.6875zm-3.859375 4.03125q1.03125 0 1.609375 -0.890625q0.578125 -0.90625 0.578125 -2.53125q0 -0.921875 -0.203125 -1.703125q-0.1875 -0.796875 -0.546875 -1.375q-0.34375 -0.578125 -0.84375 -0.90625q-0.484375 -0.328125 -1.09375 -0.328125q-0.953125 0 -1.578125 0.78125q-0.609375 0.765625 -0.609375 2.21875q0 0.859375 0.171875 1.703125q0.1875 0.84375 0.5 1.53125q0.296875 0.65625 0.78125 1.078125q0.484375 0.421875 1.234375 0.421875zm13.1875 -7.640625l0 0.734375l-1.546875 0q0.21875 0.5 0.28125 0.875q0.078125 0.359375 0.078125 0.75q0 0.59375 -0.234375 1.109375q-0.21875 0.5 -0.625 0.890625q-0.390625 0.375 -0.921875 0.609375q-0.53125 0.21875 -1.15625 0.21875q-0.34375 0 -0.65625 -0.046875q-0.296875 -0.046875 -0.359375 -0.046875q-0.15625 0 -0.34375 0.140625q-0.1875 0.125 -0.375 0.3125q-0.1875 0.1875 -0.3125 0.390625q-0.109375 0.203125 -0.109375 0.359375q0 0.203125 0.3125 0.3125q0.3125 0.109375 0.84375 0.140625l2.890625 0.15625q0.390625 0.015625 0.765625 0.15625q0.375 0.125 0.65625 0.375q0.296875 0.234375 0.46875 0.59375q0.171875 0.359375 0.171875 0.875q0 0.609375 -0.40625 1.171875q-0.390625 0.578125 -1.0625 1.0q-0.671875 0.4375 -1.546875 0.6875q-0.875 0.265625 -1.828125 0.265625q-0.671875 0 -1.265625 -0.15625q-0.578125 -0.140625 -1.015625 -0.390625q-0.4375 -0.25 -0.703125 -0.578125q-0.25 -0.328125 -0.25 -0.703125q0 -0.5625 0.5 -1.125q0.5 -0.546875 1.328125 -1.125q-0.59375 -0.28125 -0.796875 -0.46875q-0.1875 -0.203125 -0.1875 -0.515625q0 -0.171875 0.046875 -0.3125q0.046875 -0.15625 0.21875 -0.375q0.171875 -0.21875 0.5 -0.53125q0.34375 -0.3125 0.890625 -0.828125q-0.9375 -0.453125 -1.34375 -1.03125q-0.390625 -0.59375 -0.390625 -1.4375q0 -0.65625 0.234375 -1.21875q0.234375 -0.5625 0.65625 -0.96875q0.4375 -0.40625 1.03125 -0.640625q0.609375 -0.234375 1.3125 -0.234375q0.453125 0 0.78125 0.109375q0.34375 0.09375 0.6875 0.203125q0.34375 0.109375 0.625 0.203125q0.296875 0.09375 0.671875 0.09375l1.484375 0zm-3.984375 4.71875q0.609375 0 0.984375 -0.453125q0.375 -0.46875 0.375 -1.265625q0 -0.609375 -0.140625 -1.171875q-0.140625 -0.5625 -0.390625 -0.984375q-0.25 -0.4375 -0.625 -0.6875q-0.359375 -0.25 -0.78125 -0.25q-0.609375 0 -1.0 0.4375q-0.375 0.4375 -0.375 1.28125q0 1.453125 0.515625 2.28125q0.53125 0.8125 1.4375 0.8125zm-2.03125 3.28125q-0.4375 0.484375 -0.6875 0.875q-0.234375 0.40625 -0.234375 0.734375q0 0.640625 0.75 1.0q0.765625 0.359375 2.109375 0.359375q0.703125 0 1.3125 -0.125q0.625 -0.125 1.09375 -0.359375q0.46875 -0.234375 0.71875 -0.578125q0.265625 -0.328125 0.265625 -0.75q0 -0.421875 -0.28125 -0.609375q-0.265625 -0.171875 -0.796875 -0.21875q-0.5625 -0.0625 -1.140625 -0.078125q-0.5625 -0.015625 -1.109375 -0.046875q-0.546875 -0.015625 -1.0625 -0.046875q-0.515625 -0.03125 -0.9375 -0.15625z" fill-rule="nonzero"/><path fill="#000000" fill-opacity="0.0" d="m75.673706 362.29922l292.7874 0l0 40.409424l-292.7874 0z" fill-rule="evenodd"/><path fill="#000000" d="m89.173706 387.9392l0 -10.9375l-4.09375 0l0 -1.46875l9.828125 0l0 1.46875l-4.09375 0l0 10.9375l-1.640625 0zm6.5664825 0l0 -8.984375l1.375 0l0 1.359375q0.515625 -0.953125 0.953125 -1.25q0.453125 -0.3125 0.984375 -0.3125q0.78125 0 1.5625 0.484375l-0.515625 1.421875q-0.5625 -0.328125 -1.125 -0.328125q-0.5 0 -0.890625 0.296875q-0.390625 0.296875 -0.5625 0.828125q-0.265625 0.8125 -0.265625 1.78125l0 4.703125l-1.515625 0zm5.801651 -10.65625l0 -1.75l1.515625 0l0 1.75l-1.515625 0zm0 10.65625l0 -8.984375l1.515625 0l0 8.984375l-1.515625 0zm3.552887 0.75l1.484375 0.21875q0.09375 0.6875 0.515625 1.0q0.5625 0.421875 1.546875 0.421875q1.0625 0 1.625 -0.421875q0.578125 -0.421875 0.78125 -1.1875q0.125 -0.46875 0.109375 -1.953125q-0.984375 1.171875 -2.484375 1.171875q-1.84375 0 -2.859375 -1.328125q-1.015625 -1.34375 -1.015625 -3.21875q0 -1.28125 0.453125 -2.359375q0.46875 -1.09375 1.34375 -1.6875q0.890625 -0.59375 2.09375 -0.59375q1.59375 0 2.625 1.28125l0 -1.078125l1.40625 0l0 7.765625q0 2.09375 -0.4375 2.96875q-0.421875 0.875 -1.359375 1.375q-0.921875 0.515625 -2.265625 0.515625q-1.609375 0 -2.609375 -0.71875q-0.984375 -0.71875 -0.953125 -2.171875zm1.265625 -5.40625q0 1.765625 0.703125 2.578125q0.703125 0.8125 1.75 0.8125q1.0625 0 1.765625 -0.796875q0.71875 -0.8125 0.71875 -2.546875q0 -1.640625 -0.734375 -2.46875q-0.734375 -0.84375 -1.765625 -0.84375q-1.015625 0 -1.734375 0.828125q-0.703125 0.8125 -0.703125 2.4375zm8.37146 5.40625l1.484375 0.21875q0.09375 0.6875 0.515625 1.0q0.5625 0.421875 1.546875 0.421875q1.0625 0 1.625 -0.421875q0.578125 -0.421875 0.78125 -1.1875q0.125 -0.46875 0.109375 -1.953125q-0.984375 1.171875 -2.484375 1.171875q-1.84375 0 -2.859375 -1.328125q-1.015625 -1.34375 -1.015625 -3.21875q0 -1.28125 0.453125 -2.359375q0.46875 -1.09375 1.34375 -1.6875q0.890625 -0.59375 2.09375 -0.59375q1.59375 0 2.625 1.28125l0 -1.078125l1.40625 0l0 7.765625q0 2.09375 -0.4375 2.96875q-0.421875 0.875 -1.359375 1.375q-0.921875 0.515625 -2.265625 0.515625q-1.609375 0 -2.609375 -0.71875q-0.984375 -0.71875 -0.953125 -2.171875zm1.265625 -5.40625q0 1.765625 0.703125 2.578125q0.703125 0.8125 1.75 0.8125q1.0625 0 1.765625 -0.796875q0.71875 -0.8125 0.71875 -2.546875q0 -1.640625 -0.734375 -2.46875q-0.734375 -0.84375 -1.765625 -0.84375q-1.015625 0 -1.734375 0.828125q-0.703125 0.8125 -0.703125 2.4375zm14.80896 1.765625l1.5625 0.1875q-0.359375 1.390625 -1.375 2.15625q-1.0 0.75 -2.5625 0.75q-1.984375 0 -3.140625 -1.203125q-1.140625 -1.21875 -1.140625 -3.421875q0 -2.265625 1.15625 -3.515625q1.171875 -1.25 3.03125 -1.25q1.8125 0 2.953125 1.234375q1.140625 1.21875 1.140625 3.4375q0 0.140625 -0.015625 0.40625l-6.703125 0q0.09375 1.484375 0.84375 2.28125q0.75 0.78125 1.875 0.78125q0.84375 0 1.4375 -0.4375q0.59375 -0.4375 0.9375 -1.40625zm-5.0 -2.46875l5.015625 0q-0.109375 -1.125 -0.578125 -1.703125q-0.734375 -0.875 -1.890625 -0.875q-1.046875 0 -1.765625 0.703125q-0.703125 0.703125 -0.78125 1.875zm8.46521 5.359375l0 -8.984375l1.375 0l0 1.359375q0.515625 -0.953125 0.953125 -1.25q0.453125 -0.3125 0.984375 -0.3125q0.78125 0 1.5625 0.484375l-0.515625 1.421875q-0.5625 -0.328125 -1.125 -0.328125q-0.5 0 -0.890625 0.296875q-0.390625 0.296875 -0.5625 0.828125q-0.265625 0.8125 -0.265625 1.78125l0 4.703125l-1.515625 0zm5.801651 -10.65625l0 -1.75l1.515625 0l0 1.75l-1.515625 0zm0 10.65625l0 -8.984375l1.515625 0l0 8.984375l-1.515625 0zm3.834137 0l0 -8.984375l1.375 0l0 1.28125q0.984375 -1.484375 2.859375 -1.484375q0.8125 0 1.484375 0.296875q0.6875 0.28125 1.015625 0.765625q0.34375 0.46875 0.484375 1.125q0.078125 0.421875 0.078125 1.46875l0 5.53125l-1.515625 0l0 -5.46875q0 -0.921875 -0.1875 -1.375q-0.171875 -0.46875 -0.625 -0.75q-0.453125 -0.28125 -1.0625 -0.28125q-0.96875 0 -1.671875 0.625q-0.703125 0.609375 -0.703125 2.34375l0 4.90625l-1.53125 0zm9.355835 0.75l1.484375 0.21875q0.09375 0.6875 0.515625 1.0q0.5625 0.421875 1.546875 0.421875q1.0625 0 1.625 -0.421875q0.578125 -0.421875 0.78125 -1.1875q0.125 -0.46875 0.109375 -1.953125q-0.984375 1.171875 -2.484375 1.171875q-1.84375 0 -2.859375 -1.328125q-1.015625 -1.34375 -1.015625 -3.21875q0 -1.28125 0.453125 -2.359375q0.46875 -1.09375 1.34375 -1.6875q0.890625 -0.59375 2.09375 -0.59375q1.59375 0 2.625 1.28125l0 -1.078125l1.40625 0l0 7.765625q0 2.09375 -0.4375 2.96875q-0.421875 0.875 -1.359375 1.375q-0.921875 0.515625 -2.265625 0.515625q-1.609375 0 -2.609375 -0.71875q-0.984375 -0.71875 -0.953125 -2.171875zm1.265625 -5.40625q0 1.765625 0.703125 2.578125q0.703125 0.8125 1.75 0.8125q1.0625 0 1.765625 -0.796875q0.71875 -0.8125 0.71875 -2.546875q0 -1.640625 -0.734375 -2.46875q-0.734375 -0.84375 -1.765625 -0.84375q-1.015625 0 -1.734375 0.828125q-0.703125 0.8125 -0.703125 2.4375zm16.79515 3.296875l0.21875 1.34375q-0.640625 0.140625 -1.15625 0.140625q-0.828125 0 -1.28125 -0.265625q-0.453125 -0.265625 -0.640625 -0.6875q-0.1875 -0.4375 -0.1875 -1.796875l0 -5.171875l-1.125 0l0 -1.1875l1.125 0l0 -2.21875l1.515625 -0.921875l0 3.140625l1.53125 0l0 1.1875l-1.53125 0l0 5.25q0 0.65625 0.078125 0.84375q0.078125 0.1875 0.25 0.296875q0.1875 0.109375 0.53125 0.109375q0.25 0 0.671875 -0.0625zm7.642441 -1.53125l1.5625 0.1875q-0.359375 1.390625 -1.375 2.15625q-1.0 0.75 -2.5625 0.75q-1.984375 0 -3.140625 -1.203125q-1.140625 -1.21875 -1.140625 -3.421875q0 -2.265625 1.15625 -3.515625q1.171875 -1.25 3.03125 -1.25q1.8125 0 2.953125 1.234375q1.140625 1.21875 1.140625 3.4375q0 0.140625 -0.015625 0.40625l-6.703125 0q0.09375 1.484375 0.84375 2.28125q0.75 0.78125 1.875 0.78125q0.84375 0 1.4375 -0.4375q0.59375 -0.4375 0.9375 -1.40625zm-5.0 -2.46875l5.015625 0q-0.109375 -1.125 -0.578125 -1.703125q-0.734375 -0.875 -1.890625 -0.875q-1.046875 0 -1.765625 0.703125q-0.703125 0.703125 -0.78125 1.875zm7.46521 5.359375l3.28125 -4.671875l-3.03125 -4.3125l1.90625 0l1.375 2.109375q0.390625 0.59375 0.625 1.0q0.375 -0.5625 0.6875 -0.984375l1.515625 -2.125l1.8125 0l-3.109375 4.234375l3.34375 4.75l-1.859375 0l-1.84375 -2.796875l-0.5 -0.75l-2.359375 3.546875l-1.84375 0zm13.0078125 -1.359375l0.21875 1.34375q-0.640625 0.140625 -1.15625 0.140625q-0.828125 0 -1.28125 -0.265625q-0.453125 -0.265625 -0.640625 -0.6875q-0.1875 -0.4375 -0.1875 -1.796875l0 -5.171875l-1.125 0l0 -1.1875l1.125 0l0 -2.21875l1.515625 -0.921875l0 3.140625l1.53125 0l0 1.1875l-1.53125 0l0 5.25q0 0.65625 0.078125 0.84375q0.078125 0.1875 0.25 0.296875q0.1875 0.109375 0.53125 0.109375q0.25 0 0.671875 -0.0625z" fill-rule="nonzero"/><path fill="#000000" fill-opacity="0.0" d="m73.327225 299.16272l583.3701 0" fill-rule="evenodd"/><path stroke="#000000" stroke-width="1.0" stroke-linejoin="round" stroke-linecap="butt" stroke-dasharray="4.0,3.0" d="m73.327225 299.16272l583.3701 0" fill-rule="evenodd"/><path fill="#000000" fill-opacity="0.0" d="m418.96494 235.66753l139.96854 0l0 40.40944l-139.96854 0z" fill-rule="evenodd"/><path fill="#434343" d="m432.4337 261.24377l-0.265625 1.359375q-0.59375 0.140625 -1.15625 0.140625q-0.984375 0 -1.5625 -0.46875q-0.4375 -0.375 -0.4375 -1.0q0 -0.3125 0.234375 -1.46875l1.171875 -5.625l-1.296875 0l0.265625 -1.265625l1.296875 0l0.5 -2.375l1.890625 -1.140625l-0.734375 3.515625l1.625 0l-0.28125 1.265625l-1.609375 0l-1.125 5.359375q-0.203125 1.015625 -0.203125 1.21875q0 0.28125 0.15625 0.4375q0.171875 0.15625 0.5625 0.15625q0.546875 0 0.96875 -0.109375zm1.3395691 1.34375l2.78125 -13.359375l1.65625 0l-1.078125 5.140625q0.921875 -0.90625 1.71875 -1.28125q0.796875 -0.390625 1.625 -0.390625q1.203125 0 1.859375 0.640625q0.671875 0.625 0.671875 1.65625q0 0.515625 -0.28125 1.875l-1.203125 5.71875l-1.640625 0l1.234375 -5.859375q0.25 -1.265625 0.25 -1.59375q0 -0.484375 -0.328125 -0.78125q-0.328125 -0.296875 -0.9375 -0.296875q-0.890625 0 -1.703125 0.46875q-0.8125 0.46875 -1.28125 1.28125q-0.453125 0.8125 -0.828125 2.625l-0.875 4.15625l-1.640625 0zm10.375702 0l2.015625 -9.671875l1.453125 0l-0.40625 1.96875q0.75 -1.109375 1.453125 -1.640625q0.71875 -0.546875 1.46875 -0.546875q0.5 0 1.21875 0.359375l-0.671875 1.53125q-0.4375 -0.3125 -0.9375 -0.3125q-0.875 0 -1.78125 0.96875q-0.90625 0.953125 -1.4375 3.46875l-0.8125 3.875l-1.5625 0zm13.306427 -3.28125l1.609375 0.15625q-0.34375 1.1875 -1.59375 2.265625q-1.234375 1.078125 -2.96875 1.078125q-1.0625 0 -1.96875 -0.5q-0.890625 -0.5 -1.359375 -1.4375q-0.46875 -0.953125 -0.46875 -2.15625q0 -1.59375 0.734375 -3.078125q0.734375 -1.484375 1.890625 -2.203125q1.171875 -0.734375 2.53125 -0.734375q1.734375 0 2.765625 1.078125q1.03125 1.0625 1.03125 2.921875q0 0.71875 -0.125 1.46875l-7.125 0q-0.046875 0.28125 -0.046875 0.5q0 1.359375 0.625 2.078125q0.625 0.71875 1.53125 0.71875q0.84375 0 1.65625 -0.546875q0.828125 -0.5625 1.28125 -1.609375zm-4.78125 -2.40625l5.421875 0q0.015625 -0.25 0.015625 -0.359375q0 -1.234375 -0.625 -1.890625q-0.625 -0.671875 -1.59375 -0.671875q-1.0625 0 -1.9375 0.734375q-0.859375 0.71875 -1.28125 2.1875zm8.219482 2.375l1.640625 -0.09375q0 0.703125 0.21875 1.21875q0.21875 0.5 0.796875 0.8125q0.59375 0.3125 1.375 0.3125q1.09375 0 1.640625 -0.4375q0.546875 -0.4375 0.546875 -1.015625q0 -0.4375 -0.328125 -0.8125q-0.328125 -0.390625 -1.640625 -0.953125q-1.3125 -0.5625 -1.671875 -0.78125q-0.609375 -0.375 -0.921875 -0.875q-0.3125 -0.515625 -0.3125 -1.171875q0 -1.140625 0.90625 -1.953125q0.921875 -0.828125 2.5625 -0.828125q1.828125 0 2.765625 0.84375q0.953125 0.84375 1.0 2.21875l-1.609375 0.109375q-0.046875 -0.875 -0.625 -1.390625q-0.578125 -0.515625 -1.65625 -0.515625q-0.84375 0 -1.328125 0.40625q-0.46875 0.390625 -0.46875 0.84375q0 0.453125 0.40625 0.796875q0.28125 0.234375 1.421875 0.734375q1.890625 0.8125 2.375 1.28125q0.78125 0.765625 0.78125 1.84375q0 0.71875 -0.4375 1.421875q-0.4375 0.6875 -1.34375 1.109375q-0.90625 0.40625 -2.140625 0.40625q-1.671875 0 -2.84375 -0.828125q-1.1875 -0.828125 -1.109375 -2.703125zm9.171875 3.3125l2.78125 -13.359375l1.65625 0l-1.078125 5.140625q0.921875 -0.90625 1.71875 -1.28125q0.796875 -0.390625 1.625 -0.390625q1.203125 0 1.859375 0.640625q0.671875 0.625 0.671875 1.65625q0 0.515625 -0.28125 1.875l-1.203125 5.71875l-1.640625 0l1.234375 -5.859375q0.25 -1.265625 0.25 -1.59375q0 -0.484375 -0.328125 -0.78125q-0.328125 -0.296875 -0.9375 -0.296875q-0.890625 0 -1.703125 0.46875q-0.8125 0.46875 -1.28125 1.28125q-0.453125 0.8125 -0.828125 2.625l-0.875 4.15625l-1.640625 0zm10.656952 -3.671875q0 -2.828125 1.671875 -4.6875q1.375 -1.53125 3.609375 -1.53125q1.75 0 2.8125 1.09375q1.078125 1.09375 1.078125 2.953125q0 1.65625 -0.671875 3.09375q-0.671875 1.4375 -1.921875 2.203125q-1.25 0.765625 -2.625 0.765625q-1.125 0 -2.046875 -0.484375q-0.921875 -0.484375 -1.421875 -1.359375q-0.484375 -0.890625 -0.484375 -2.046875zm1.65625 -0.15625q0 1.359375 0.65625 2.0625q0.65625 0.703125 1.65625 0.703125q0.53125 0 1.046875 -0.203125q0.53125 -0.21875 0.96875 -0.65625q0.453125 -0.4375 0.765625 -1.0q0.3125 -0.5625 0.5 -1.203125q0.28125 -0.90625 0.28125 -1.734375q0 -1.3125 -0.65625 -2.03125q-0.65625 -0.734375 -1.65625 -0.734375q-0.78125 0 -1.421875 0.375q-0.625 0.375 -1.140625 1.09375q-0.515625 0.703125 -0.765625 1.640625q-0.234375 0.9375 -0.234375 1.6875zm8.297607 3.828125l2.796875 -13.359375l1.640625 0l-2.78125 13.359375l-1.65625 0zm10.801056 -1.40625q-1.40625 1.625 -2.953125 1.625q-1.375 0 -2.296875 -1.015625q-0.90625 -1.015625 -0.90625 -2.953125q0 -1.765625 0.71875 -3.21875q0.734375 -1.46875 1.8125 -2.1875q1.09375 -0.734375 2.1875 -0.734375q1.796875 0 2.71875 1.734375l1.09375 -5.203125l1.640625 0l-2.78125 13.359375l-1.53125 0l0.296875 -1.40625zm-4.515625 -2.640625q0 1.0 0.203125 1.59375q0.203125 0.578125 0.671875 0.96875q0.484375 0.375 1.171875 0.375q1.109375 0 2.03125 -1.15625q1.21875 -1.546875 1.21875 -3.828125q0 -1.140625 -0.609375 -1.78125q-0.59375 -0.65625 -1.515625 -0.65625q-0.59375 0 -1.078125 0.265625q-0.484375 0.265625 -0.96875 0.90625q-0.46875 0.625 -0.796875 1.59375q-0.328125 0.96875 -0.328125 1.71875zm13.418396 4.046875l2.796875 -13.359375l1.640625 0l-2.78125 13.359375l-1.65625 0zm6.6135864 -11.484375l0.40625 -1.875l1.625 0l-0.390625 1.875l-1.640625 0zm-2.390625 11.484375l2.015625 -9.671875l1.65625 0l-2.03125 9.671875l-1.640625 0zm4.2073364 0l2.015625 -9.671875l1.5 0l-0.359375 1.6875q0.96875 -1.0 1.8125 -1.453125q0.859375 -0.453125 1.734375 -0.453125q1.1875 0 1.84375 0.640625q0.671875 0.625 0.671875 1.703125q0 0.53125 -0.234375 1.6875l-1.234375 5.859375l-1.640625 0l1.28125 -6.125q0.1875 -0.890625 0.1875 -1.328125q0 -0.484375 -0.328125 -0.78125q-0.328125 -0.296875 -0.953125 -0.296875q-1.28125 0 -2.265625 0.90625q-0.984375 0.90625 -1.453125 3.125l-0.9375 4.5l-1.640625 0zm17.469421 -3.28125l1.609375 0.15625q-0.34375 1.1875 -1.59375 2.265625q-1.234375 1.078125 -2.96875 1.078125q-1.0625 0 -1.96875 -0.5q-0.890625 -0.5 -1.359375 -1.4375q-0.46875 -0.953125 -0.46875 -2.15625q0 -1.59375 0.734375 -3.078125q0.734375 -1.484375 1.890625 -2.203125q1.171875 -0.734375 2.53125 -0.734375q1.734375 0 2.765625 1.078125q1.03125 1.0625 1.03125 2.921875q0 0.71875 -0.125 1.46875l-7.125 0q-0.046875 0.28125 -0.046875 0.5q0 1.359375 0.625 2.078125q0.625 0.71875 1.53125 0.71875q0.84375 0 1.65625 -0.546875q0.828125 -0.5625 1.28125 -1.609375zm-4.78125 -2.40625l5.421875 0q0.015625 -0.25 0.015625 -0.359375q0 -1.234375 -0.625 -1.890625q-0.625 -0.671875 -1.59375 -0.671875q-1.0625 0 -1.9375 0.734375q-0.859375 0.71875 -1.28125 2.1875z" fill-rule="nonzero"/><path fill="#000000" fill-opacity="0.0" d="m424.09363 258.0c-13.268799 2.6495972 -28.281708 8.537109 -35.24411 20.1391c-3.3935242 5.654907 -2.0908813 13.232056 -5.0341187 19.13388" fill-rule="evenodd"/><path stroke="#666666" stroke-width="2.0" stroke-linejoin="round" stroke-linecap="butt" d="m424.09363 258.0c-13.268799 2.6495972 -28.281708 8.537109 -35.24411 20.1391c-1.6967468 2.8274841 -2.2194824 6.1354675 -2.6858826 9.474365c-0.11663818 0.8346863 -0.22970581 1.6713562 -0.3567505 2.5028992l-0.09011841 0.57141113" fill-rule="evenodd"/><path fill="#666666" stroke="#666666" stroke-width="2.0" stroke-linecap="butt" d="m385.71677 290.6878l-1.5369568 -2.7848206l0.4466858 6.560913l3.8750916 -5.31308z" fill-rule="evenodd"/></g></svg>